<svg width="24" height="24" viewBox="0 0 24 24" fill="none" xmlns="http://www.w3.org/2000/svg">
<path d="M14.7489 12C14.151 12.001 13.5698 12.1967 13.093 12.5575C12.6163 12.9184 12.27 13.4247 12.1065 14H7.25225C6.83804 14 6.50225 14.3358 6.50225 14.75C6.50225 15.1642 6.83804 15.5 7.25225 15.5H12.1065C12.2459 15.9923 12.52 16.4359 12.8977 16.7809C13.2754 17.1259 13.7419 17.3586 14.2446 17.4529C14.7473 17.5472 15.2664 17.4993 15.7434 17.3146C16.2204 17.1299 16.6364 16.8157 16.9446 16.4074C17.2529 15.9991 17.4412 15.5128 17.4883 15.0033C17.5354 14.4938 17.4395 13.9813 17.2114 13.5233C16.9832 13.0653 16.6319 12.6802 16.1968 12.411C15.7618 12.1419 15.2604 11.9996 14.7489 12ZM14.7489 16C14.5017 16 14.2602 15.9267 14.0547 15.7893C13.8492 15.652 13.6891 15.4568 13.5945 15.2284C13.4999 14.9999 13.4752 14.7486 13.5234 14.5061C13.5716 14.2637 13.6906 14.0409 13.8654 13.8661C14.0401 13.6913 14.2627 13.5723 14.5051 13.524C14.7475 13.4758 14.9987 13.5005 15.227 13.5952C15.4553 13.6898 15.6505 13.85 15.7878 14.0555C15.9251 14.2611 15.9984 14.5028 15.9984 14.75C15.9984 15.0815 15.8667 15.3995 15.6324 15.6339C15.3981 15.8683 15.0803 16 14.7489 16ZM11.8935 8.50001C11.7126 7.86141 11.3069 7.30984 10.7512 6.94707C10.1956 6.5843 9.52759 6.43481 8.87042 6.52619C8.21326 6.61758 7.6113 6.94366 7.17564 7.44427C6.73997 7.94489 6.5 8.58625 6.5 9.25001C6.5 9.91376 6.73997 10.5551 7.17564 11.0557C7.6113 11.5564 8.21326 11.8824 8.87042 11.9738C9.52759 12.0652 10.1956 11.9157 10.7512 11.5529C11.3069 11.1902 11.7126 10.6386 11.8935 10H16.7477C17.162 10 17.4977 9.66422 17.4977 9.25001C17.4977 8.83579 17.162 8.50001 16.7477 8.50001H11.8935ZM9.25112 10.5C9.004 10.5 8.76242 10.4267 8.55695 10.2893C8.35147 10.152 8.19132 9.95677 8.09675 9.72836C8.00218 9.49995 7.97743 9.24862 8.02564 9.00614C8.07386 8.76367 8.19286 8.54094 8.3676 8.36612C8.54235 8.19131 8.76498 8.07226 9.00736 8.02402C9.24974 7.97579 9.50097 8.00055 9.72928 8.09516C9.9576 8.18977 10.1527 8.34998 10.29 8.55554C10.4273 8.7611 10.5006 9.00278 10.5006 9.25001C10.5006 9.58153 10.369 9.89947 10.1346 10.1339C9.90032 10.3683 9.58251 10.5 9.25112 10.5Z" fill="white"/>
</svg>
