<svg width="32" height="32" viewBox="0 0 32 32" fill="none" xmlns="http://www.w3.org/2000/svg">
<rect x="0.5" y="0.5" width="31" height="31" rx="1.5" fill="white" stroke="#F3F3FB"/>
<path d="M17.6001 9.6001C17.1583 9.6001 16.8001 9.95827 16.8001 10.4001C16.8001 10.8419 17.1583 11.2001 17.6001 11.2001H19.6687L14.6344 16.2344C14.322 16.5468 14.322 17.0534 14.6344 17.3658C14.9468 17.6782 15.4534 17.6782 15.7658 17.3658L20.8001 12.3315V14.4001C20.8001 14.8419 21.1583 15.2001 21.6001 15.2001C22.0419 15.2001 22.4001 14.8419 22.4001 14.4001V10.4001C22.4001 9.95827 22.0419 9.6001 21.6001 9.6001H17.6001Z" fill="#C8D1EF"/>
<path d="M11.2001 11.2001C10.3164 11.2001 9.6001 11.9164 9.6001 12.8001V20.8001C9.6001 21.6838 10.3164 22.4001 11.2001 22.4001H19.2001C20.0838 22.4001 20.8001 21.6838 20.8001 20.8001V16.8001C20.8001 16.3583 20.4419 16.0001 20.0001 16.0001C19.5583 16.0001 19.2001 16.3583 19.2001 16.8001V20.8001H11.2001V12.8001L15.2001 12.8001C15.6419 12.8001 16.0001 12.4419 16.0001 12.0001C16.0001 11.5583 15.6419 11.2001 15.2001 11.2001H11.2001Z" fill="#C8D1EF"/>
</svg>
