<svg width="31" height="44" viewBox="0 0 31 44" fill="none" xmlns="http://www.w3.org/2000/svg">
<path d="M1.6 15.4C1.6 11.8219 2.83433 8.36878 5.15447 5.82677C7.45322 3.30821 10.8921 1.6 15.5 1.6C24.5256 1.6 29.4 8.71429 29.4 15.4C29.4 23.9161 25.7322 30.7255 21.9948 35.4529C20.1295 37.8125 18.263 39.6319 16.8662 40.8584C16.3394 41.321 15.8808 41.698 15.5161 41.9867C15.1481 41.6866 14.6835 41.2938 14.1491 40.8123C12.749 39.5509 10.8789 37.6895 9.01033 35.3003C5.26284 30.5087 1.6 23.6983 1.6 15.4ZM15.5 7.2C10.9571 7.2 7.25714 10.8612 7.25714 15.4C7.25714 19.9388 10.9571 23.6 15.5 23.6C20.0429 23.6 23.7429 19.9388 23.7429 15.4C23.7429 10.8612 20.0429 7.2 15.5 7.2Z" stroke="#C8D1EF" stroke-width="3.2"/>
</svg>
