<svg width="24" height="24" viewBox="0 0 24 24" fill="none" xmlns="http://www.w3.org/2000/svg">
<g clip-path="url(#clip0)">
<path d="M0 2.00025C0 0.895677 0.895431 0.000244141 2 0.000244141H21.9404C23.045 0.000244141 23.9404 0.895675 23.9404 2.00024V12.3722C23.9404 12.7535 23.8314 13.1269 23.6262 13.4484L23.4842 13.6708C23.044 14.3602 23.068 15.2481 23.5448 15.9128L23.5655 15.9417C23.8093 16.2815 23.9404 16.6892 23.9404 17.1074V22.0002C23.9404 23.1048 23.045 24.0002 21.9404 24.0002H2C0.895428 24.0002 0 23.1048 0 22.0002V12.1216C0 11.9057 0.0778916 11.697 0.219372 11.5339L0.237221 11.5133C0.524467 11.1821 0.519022 10.6886 0.224541 10.3639C0.0800398 10.2045 0 9.9971 0 9.78199V2.00025Z" fill="#016FD0"/>
<path d="M4.64737 16.7239V12.9559H8.62706L9.05403 13.5139L9.49513 12.9559H23.9404V16.4641C23.9404 16.4641 23.5626 16.7201 23.1257 16.7239H15.1271L14.6457 16.13V16.7239H13.0682V15.71C13.0682 15.71 12.8527 15.8515 12.3868 15.8515H11.8499V16.7239H9.46137L9.03501 16.1539L8.60209 16.7239H4.64737Z" fill="white"/>
<path d="M0 10.116L0.897435 8.01855H2.44946L2.95876 9.19346V8.01855H4.88806L5.19125 8.86774L5.48519 8.01855H14.1458V8.44547C14.1458 8.44547 14.601 8.01855 15.3493 8.01855L18.1593 8.0284L18.6598 9.18793V8.01855H20.2744L20.7187 8.68461V8.01855H22.3481V11.7865H20.7187L20.2929 11.1183V11.7865H17.9208L17.6822 11.1926H17.0445L16.8098 11.7865H15.2011C14.5573 11.7865 14.1458 11.3683 14.1458 11.3683V11.7865H11.7202L11.2388 11.1926V11.7865H2.21953L1.98115 11.1926H1.34547L1.10877 11.7865H0V10.116Z" fill="white"/>
<path d="M1.21507 8.48315L0.00462341 11.3045H0.792685L1.01603 10.7395H2.31442L2.5366 11.3045H3.34202L2.13274 8.48315H1.21507ZM1.66291 9.13977L2.05868 10.127H1.26598L1.66291 9.13977Z" fill="#016FD0"/>
<path d="M3.42535 11.304V8.48267L4.54523 8.48684L5.19659 10.3059L5.83236 8.48267H6.94328V11.304H6.23969V9.22513L5.49388 11.304H4.87683L4.12894 9.22513V11.304H3.42535Z" fill="#016FD0"/>
<path d="M7.42467 11.304V8.48267H9.72058V9.11376H8.13566V9.59635H9.68354V10.1903H8.13566V10.6915H9.72058V11.304H7.42467Z" fill="#016FD0"/>
<path d="M10.1279 8.48315V11.3045H10.8315V10.3022H11.1277L11.9714 11.3045H12.8312L11.9054 10.2651C12.2853 10.2329 12.6773 9.90601 12.6773 9.39847C12.6773 8.80476 12.2124 8.48315 11.6936 8.48315H10.1279ZM10.8315 9.11424H11.6358C11.8287 9.11424 11.969 9.26554 11.969 9.41123C11.969 9.59867 11.7872 9.70821 11.6462 9.70821H10.8315V9.11424Z" fill="#016FD0"/>
<path d="M13.6829 11.304H12.9645V8.48267H13.6829V11.304Z" fill="#016FD0"/>
<path d="M15.3863 11.304H15.2312C14.4809 11.304 14.0254 10.7114 14.0254 9.90494C14.0254 9.07852 14.4758 8.48267 15.4233 8.48267H16.201V9.15088H15.3949C15.0103 9.15088 14.7383 9.45179 14.7383 9.9119C14.7383 10.4583 15.0493 10.6878 15.4974 10.6878H15.6825L15.3863 11.304Z" fill="#016FD0"/>
<path d="M16.9173 8.48315L15.7068 11.3045H16.4949L16.7183 10.7395H18.0166L18.2388 11.3045H19.0442L17.835 8.48315H16.9173ZM17.3651 9.13977L17.7609 10.127H16.9682L17.3651 9.13977Z" fill="#016FD0"/>
<path d="M19.1264 11.304V8.48267H20.0209L21.1631 10.2553V8.48267H21.8667V11.304H21.0011L19.83 9.48499V11.304H19.1264Z" fill="#016FD0"/>
<path d="M5.12877 16.2413V13.4199H7.42468V14.051H5.83976V14.5336H7.38765V15.1276H5.83976V15.6287H7.42468V16.2413H5.12877Z" fill="#016FD0"/>
<path d="M16.3787 16.2413V13.4199H18.6746V14.051H17.0897V14.5336H18.6302V15.1276H17.0897V15.6287H18.6746V16.2413H16.3787Z" fill="#016FD0"/>
<path d="M7.51377 16.2413L8.63163 14.848L7.48715 13.4199H8.37358L9.05517 14.3028L9.73909 13.4199H10.5908L9.46136 14.8306L10.5813 16.2413H9.695L9.03319 15.3724L8.38746 16.2413H7.51377Z" fill="#016FD0"/>
<path d="M10.6649 13.4204V16.2418H11.387V15.3508H12.1276C12.7543 15.3508 13.2293 15.0175 13.2293 14.3694C13.2293 13.8324 12.8567 13.4204 12.219 13.4204H10.6649ZM11.387 14.0585H12.1669C12.3694 14.0585 12.5141 14.1829 12.5141 14.3833C12.5141 14.5716 12.3701 14.7081 12.1646 14.7081H11.387V14.0585Z" fill="#016FD0"/>
<path d="M13.5348 13.4199V16.2413H14.2383V15.2389H14.5346L15.3782 16.2413H16.238L15.3122 15.2018C15.6922 15.1697 16.0841 14.8428 16.0841 14.3352C16.0841 13.7415 15.6193 13.4199 15.1005 13.4199H13.5348ZM14.2383 14.051H15.0426C15.2355 14.051 15.3759 14.2023 15.3759 14.348C15.3759 14.5354 15.194 14.645 15.053 14.645H14.2383V14.051Z" fill="#016FD0"/>
<path d="M19.0005 16.2413V15.6287H20.4086C20.6169 15.6287 20.7072 15.5159 20.7072 15.3921C20.7072 15.2735 20.6172 15.1536 20.4086 15.1536H19.7723C19.2192 15.1536 18.9112 14.8157 18.9112 14.3086C18.9112 13.8562 19.1932 13.4199 20.0151 13.4199H21.3853L21.089 14.0547H19.9041C19.6775 14.0547 19.6078 14.1739 19.6078 14.2877C19.6078 14.4046 19.694 14.5336 19.867 14.5336H20.5336C21.1501 14.5336 21.4177 14.8842 21.4177 15.3434C21.4177 15.837 21.1196 16.2413 20.5 16.2413H19.0005Z" fill="#016FD0"/>
<path d="M21.5828 16.2413V15.6287H22.9909C23.1993 15.6287 23.2895 15.5159 23.2895 15.3921C23.2895 15.2735 23.1996 15.1536 22.9909 15.1536H22.3546C21.8015 15.1536 21.4935 14.8157 21.4935 14.3086C21.4935 13.8562 21.7756 13.4199 22.5975 13.4199H23.9676L23.6714 14.0547H22.4864C22.2599 14.0547 22.1901 14.1739 22.1901 14.2877C22.1901 14.4046 22.2763 14.5336 22.4493 14.5336H23.1159C23.7325 14.5336 24 14.8842 24 15.3434C24 15.837 23.7019 16.2413 23.0823 16.2413H21.5828Z" fill="#016FD0"/>
</g>
<defs>
<clipPath id="clip0">
<rect width="24" height="24" fill="white"/>
</clipPath>
</defs>
</svg>
