<svg width="300" height="281" viewBox="0 0 300 281" fill="none" xmlns="http://www.w3.org/2000/svg">
<g opacity="0.2">
<g filter="url(#filter0_f)">
<path d="M159.814 268.993C155.576 269.091 151.387 268.089 147.659 266.085L18.9689 192.227C14.539 189.685 12 185.658 12 181.183C12 176.278 15.0613 171.713 20.4004 168.652L93.4294 126.738C97.9415 124.248 103.026 122.962 108.186 123.006C112.423 122.912 116.612 123.915 120.341 125.915L249.031 199.772C253.461 202.323 256 206.342 256 210.817C256 215.722 252.939 220.286 247.609 223.347L174.571 265.27C170.056 267.754 164.973 269.036 159.814 268.993Z" fill="#8692AB"/>
</g>
<path opacity="0.2" d="M149.75 263.85L15.4702 186.33C10.1702 183.27 10.8302 177.92 16.9502 174.33L93.1602 130.33C99.2802 126.79 108.55 126.41 113.85 129.47L248.13 207C253.43 210.06 252.76 215.4 246.64 218.94L170.44 262.94C164.31 266.53 155.05 266.92 149.75 263.85Z" fill="black"/>
</g>
<path d="M149.75 263.73L15.4701 186.21C13.1101 184.84 11.9301 183.02 11.8901 181.11V174.46C11.8901 172.14 13.6501 176.17 16.9501 174.26L93.1601 130.26C99.2801 126.73 108.55 126.34 113.85 129.41L248.13 206.93C249.9 207.93 251.18 203.62 251.64 205C251.79 205.45 251.7 211.54 251.71 212C251.71 214.38 250.04 216.89 246.64 218.86L170.44 262.86C164.31 266.41 155.05 266.79 149.75 263.73Z" fill="url(#paint0_linear)"/>
<path d="M149.75 257.2L15.4702 179.68C10.1702 176.61 10.8302 171.27 16.9502 167.68L93.1602 123.68C99.2802 120.15 108.55 119.77 113.85 122.83L248.13 200.4C253.43 203.46 252.76 208.81 246.64 212.35L170.44 256.35C164.31 259.88 155.05 260.26 149.75 257.2Z" fill="url(#paint1_linear)"/>
<path d="M251.69 205.59C251.69 207.94 249.99 210.41 246.64 212.35L170.44 256.35C164.31 259.88 155.05 260.26 149.75 257.2L15.4701 179.68C12.9101 178.2 11.7501 176.18 11.9201 174.1C11.908 174.22 11.908 174.34 11.9201 174.46V181.11C11.9201 183.02 13.1401 184.84 15.5001 186.21L149.78 263.73C155.08 266.79 164.34 266.41 170.47 262.87L246.67 218.87C250.07 216.87 251.79 214.39 251.74 212.01C251.7 211.61 251.76 207.23 251.69 205.59Z" fill="url(#paint2_linear)"/>
<path d="M158.73 256.59C156.08 256.675 153.451 256.087 151.09 254.88L16.8098 177.36C15.9698 176.87 14.5698 175.86 14.5698 174.49C14.5698 173.12 15.9598 171.4 18.2998 170.06L94.4998 126.06C97.6792 124.338 101.244 123.454 104.86 123.49C107.513 123.403 110.146 123.992 112.51 125.2L246.79 202.73C247.62 203.21 249.02 204.22 249.02 205.59C249.02 206.96 247.63 208.68 245.3 210.03L169.09 254.03C165.91 255.748 162.344 256.629 158.73 256.59Z" fill="url(#paint3_linear)"/>
<path d="M246.64 211.24L170.44 255.24C164.31 258.77 155.05 259.16 149.75 256.09L15.4699 178.57C13.2699 177.3 12.1099 175.63 11.9299 173.87C11.6499 176.03 12.8099 178.14 15.4699 179.68L149.75 257.2C155.05 260.26 164.31 259.88 170.44 256.35L246.64 212.35C250.22 210.28 251.92 207.59 251.64 205.1C251.39 207.26 249.7 209.48 246.64 211.24Z" fill="white"/>
<path d="M246.47 197.42L114.4 121.17C112.261 119.934 110.598 118.018 109.674 115.728C108.75 113.437 108.618 110.904 109.3 108.53L138.07 8.99993C138.534 7.38591 139.36 5.89883 140.484 4.65148C141.609 3.40414 143.003 2.4293 144.561 1.80091C146.118 1.17252 147.798 0.90708 149.474 1.02473C151.149 1.14238 152.775 1.64003 154.23 2.47993L286.3 78.7399C288.443 79.9679 290.111 81.8815 291.034 84.1726C291.957 86.4637 292.083 88.9989 291.39 91.3699L262.63 190.9C262.165 192.514 261.34 194.001 260.215 195.248C259.09 196.496 257.697 197.471 256.139 198.099C254.582 198.727 252.901 198.993 251.226 198.875C249.551 198.757 247.924 198.26 246.47 197.42Z" fill="url(#paint4_linear)"/>
<path d="M244.62 197.42L112.55 121.17C110.411 119.935 108.747 118.019 107.825 115.728C106.902 113.437 106.774 110.903 107.46 108.53L136.23 9.00024C136.684 7.3807 137.504 5.88696 138.626 4.63387C139.749 3.38079 141.143 2.40175 142.703 1.77205C144.263 1.14234 145.946 0.878735 147.624 1.00151C149.301 1.12428 150.929 1.63016 152.38 2.48024L284.45 78.7402C286.588 79.9745 288.251 81.8883 289.175 84.177C290.099 86.4657 290.231 88.9978 289.55 91.3702L260.78 190.9C260.316 192.514 259.49 194.001 258.365 195.249C257.241 196.496 255.847 197.471 254.289 198.099C252.732 198.728 251.052 198.993 249.376 198.875C247.701 198.758 246.074 198.26 244.62 197.42Z" fill="#12356B"/>
<path d="M246.6 192.38C245.363 192.38 244.149 192.052 243.08 191.43L116.24 118.2C114.871 117.412 113.806 116.187 113.215 114.723C112.624 113.258 112.541 111.637 112.98 110.12L140.8 13.8798C141.233 12.4054 142.131 11.1104 143.36 10.1877C144.589 9.26512 146.083 8.76425 147.62 8.75977C148.858 8.77349 150.07 9.1188 151.13 9.75977L278 82.9398C279.36 83.7311 280.417 84.9536 281.004 86.4135C281.591 87.8734 281.674 89.4873 281.24 90.9998L253.41 187.24C252.984 188.718 252.09 190.018 250.862 190.945C249.634 191.872 248.138 192.375 246.6 192.38Z" fill="url(#paint5_linear)"/>
<g opacity="0.4">
<path d="M204.55 85.6456C203.389 75.397 198.156 71.0508 196.886 70.1196C195.617 69.1885 193.936 68.4717 192.958 69.4057C191.981 70.3398 192.215 73.2972 192.215 73.2972L194.486 74.3436C194.486 74.3436 194.15 71.439 196.455 73.1051C198.76 74.7712 199.135 78.6255 198.954 81.1289C198.783 83.5016 197.499 83.7045 195.959 84.1943C194.235 84.7426 192.264 82.7222 190.609 83.1596C188.955 83.5971 188.666 85.5525 188.666 85.5525C188.666 85.5525 178.526 81.1072 178.7 88.7675C178.875 96.4278 183.105 100.768 185.898 102.817C188.691 104.865 191.737 103.384 191.737 103.384C191.737 103.384 188.981 107.228 185.948 105.003C182.915 102.779 181.514 100.323 181.514 100.323C181.514 100.323 179.881 101.705 179.989 106.427C180.097 111.15 182.872 116.074 182.872 116.074C182.872 116.074 182.557 116.901 181.887 116.693C181.217 116.485 179.532 115.585 179.532 115.585C179.532 115.585 181.326 117.623 182.715 118.447C184.104 119.271 183.672 118.312 184.581 118.952C185.489 119.592 187.004 122.097 191.405 125.325C195.807 128.553 199.258 126.647 199.258 126.647L199.361 131.16C199.361 131.16 206.81 136.623 207.825 137.367C209.068 138.279 207.07 134.755 206.646 133.097C205.737 129.542 205.247 123.468 204.387 121.639C203.425 119.592 198.822 118.486 198.822 118.486C198.822 118.486 200.838 116.869 203.718 118.465C203.866 117.645 203.603 112.437 203.705 109.995C203.807 107.554 205.116 106.8 205.317 104.677C205.519 102.555 206.032 98.9076 205.517 98.2203C205.002 97.5331 202.588 97.5168 202.588 97.5168C202.588 97.5168 205.711 95.8943 204.55 85.6456Z" fill="white"/>
<path d="M195.758 89.4868C195.978 89.6395 196.063 89.3778 195.864 89.1109C195.321 88.3805 194.533 87.5318 193.946 87.7747C193.37 88.013 193.486 88.8984 193.683 89.5968C193.767 89.895 194.027 90.0029 194.065 89.7821C194.124 89.4523 194.24 89.1081 194.473 88.9868C194.737 88.8495 195.295 89.1639 195.758 89.4868Z" fill="#465EC7"/>
</g>
<path d="M284.45 78.74L152.38 2.48997C150.096 1.15848 147.405 0.703519 144.81 1.20997C147.139 0.9458 149.491 1.43656 151.52 2.60997L283.59 78.86C285.729 80.0949 287.393 82.0109 288.315 84.302C289.238 86.5931 289.366 89.1273 288.68 91.5L259.92 191C259.357 192.971 258.255 194.746 256.737 196.125C255.219 197.503 253.347 198.43 251.33 198.8C253.516 198.575 255.585 197.7 257.269 196.288C258.953 194.877 260.176 192.993 260.78 190.88L289.55 91.35C290.226 88.9803 290.092 86.4527 289.168 84.1683C288.244 81.8838 286.583 79.9733 284.45 78.74Z" fill="url(#paint6_linear)"/>
<path style="mix-blend-mode:color-dodge" d="M121.83 140.72C125.39 151.05 114.08 164.32 96.5701 170.34C79.0601 176.36 62.0001 172.86 58.4401 162.52C54.8801 152.18 66.1901 138.93 83.7001 132.9C101.21 126.87 118.28 130.38 121.83 140.72Z" fill="url(#paint7_radial)"/>
<path d="M173.61 228.65L64.6101 165.65C62.4301 164.39 62.7001 162.19 65.2201 160.73L106.16 137.1C108.68 135.64 112.5 135.48 114.68 136.74L223.68 199.74C225.86 201 225.59 203.2 223.07 204.66L182.13 228.29C179.61 229.75 175.79 229.91 173.61 228.65Z" fill="url(#paint8_linear)"/>
<path style="mix-blend-mode:screen" opacity="0.3" d="M108.51 141.74L115.51 145.74C116.006 145.991 116.554 146.122 117.11 146.122C117.666 146.122 118.214 145.991 118.71 145.74C119.6 145.23 119.59 144.4 118.71 143.88L111.71 139.88C111.213 139.629 110.663 139.498 110.105 139.498C109.548 139.498 108.998 139.629 108.5 139.88C107.61 140.39 107.62 141.22 108.51 141.74ZM120.51 148.64L123.82 150.55C124.317 150.804 124.867 150.936 125.425 150.936C125.983 150.936 126.533 150.804 127.03 150.55C127.214 150.475 127.37 150.346 127.481 150.182C127.591 150.017 127.65 149.823 127.65 149.625C127.65 149.427 127.591 149.233 127.481 149.068C127.37 148.903 127.214 148.775 127.03 148.7L123.72 146.79C123.223 146.536 122.673 146.404 122.115 146.404C121.557 146.404 121.007 146.536 120.51 146.79C120.325 146.861 120.165 146.986 120.051 147.148C119.937 147.311 119.874 147.503 119.87 147.701C119.865 147.9 119.92 148.095 120.027 148.262C120.134 148.429 120.288 148.561 120.47 148.64H120.51ZM128.8 153.43L132.11 155.34C132.606 155.591 133.154 155.722 133.71 155.722C134.266 155.722 134.814 155.591 135.31 155.34C136.2 154.83 136.19 154.01 135.31 153.49L132.01 151.58C131.513 151.329 130.963 151.198 130.405 151.198C129.848 151.198 129.298 151.329 128.8 151.58C127.86 152.09 127.87 152.91 128.76 153.43H128.8ZM137.08 158.21L140.39 160.12C140.887 160.374 141.437 160.506 141.995 160.506C142.553 160.506 143.103 160.374 143.6 160.12C143.784 160.045 143.94 159.916 144.051 159.752C144.161 159.587 144.22 159.393 144.22 159.195C144.22 158.997 144.161 158.803 144.051 158.638C143.94 158.473 143.784 158.345 143.6 158.27L140.29 156.35C139.793 156.099 139.243 155.968 138.685 155.968C138.128 155.968 137.578 156.099 137.08 156.35C136.89 156.415 136.724 156.536 136.604 156.697C136.484 156.858 136.415 157.052 136.406 157.253C136.398 157.453 136.45 157.652 136.556 157.823C136.662 157.994 136.816 158.129 137 158.21H137.08ZM145.37 163L148.68 164.91C149.178 165.161 149.728 165.292 150.285 165.292C150.843 165.292 151.393 165.161 151.89 164.91C152.074 164.835 152.23 164.706 152.341 164.542C152.451 164.377 152.51 164.183 152.51 163.985C152.51 163.787 152.451 163.593 152.341 163.428C152.23 163.263 152.074 163.135 151.89 163.06L148.58 161.15C148.083 160.899 147.533 160.768 146.975 160.768C146.418 160.768 145.868 160.899 145.37 161.15C145.185 161.221 145.025 161.346 144.911 161.508C144.797 161.671 144.734 161.863 144.73 162.061C144.725 162.26 144.78 162.455 144.887 162.622C144.994 162.789 145.148 162.921 145.33 163H145.37ZM153.66 167.78L156.96 169.69C157.458 169.941 158.008 170.072 158.565 170.072C159.123 170.072 159.673 169.941 160.17 169.69C161.06 169.18 161.05 168.35 160.17 167.83L156.86 165.92C156.364 165.669 155.816 165.538 155.26 165.538C154.704 165.538 154.156 165.669 153.66 165.92C152.72 166.44 152.73 167.27 153.62 167.78H153.66ZM161.94 172.56L165.25 174.47C165.747 174.724 166.297 174.856 166.855 174.856C167.413 174.856 167.963 174.724 168.46 174.47C168.644 174.395 168.8 174.266 168.911 174.102C169.021 173.937 169.08 173.743 169.08 173.545C169.08 173.347 169.021 173.153 168.911 172.988C168.8 172.823 168.644 172.695 168.46 172.62L165.15 170.71C164.653 170.456 164.103 170.324 163.545 170.324C162.987 170.324 162.437 170.456 161.94 170.71C161.755 170.781 161.595 170.906 161.481 171.068C161.367 171.231 161.304 171.423 161.3 171.621C161.296 171.82 161.35 172.015 161.457 172.182C161.564 172.349 161.718 172.481 161.9 172.56H161.94ZM170.23 177.35L173.54 179.26C174.038 179.511 174.588 179.642 175.145 179.642C175.703 179.642 176.253 179.511 176.75 179.26C177.63 178.75 177.62 177.93 176.75 177.41L173.44 175.5C172.943 175.249 172.393 175.118 171.835 175.118C171.278 175.118 170.728 175.249 170.23 175.5C169.29 176 169.3 176.83 170.19 177.35H170.23ZM178.51 182.13L181.82 184.04C182.317 184.294 182.867 184.426 183.425 184.426C183.983 184.426 184.533 184.294 185.03 184.04C185.214 183.965 185.37 183.836 185.481 183.672C185.591 183.507 185.65 183.313 185.65 183.115C185.65 182.917 185.591 182.723 185.481 182.558C185.37 182.393 185.214 182.265 185.03 182.19L181.72 180.27C181.223 180.019 180.673 179.888 180.115 179.888C179.558 179.888 179.008 180.019 178.51 180.27C178.322 180.34 178.159 180.464 178.043 180.628C177.926 180.791 177.862 180.986 177.857 181.186C177.853 181.387 177.909 181.584 178.018 181.752C178.128 181.921 178.285 182.052 178.47 182.13H178.51ZM186.8 186.92L190.11 188.83C190.608 189.081 191.158 189.212 191.715 189.212C192.273 189.212 192.823 189.081 193.32 188.83C193.504 188.755 193.66 188.626 193.771 188.462C193.881 188.297 193.94 188.103 193.94 187.905C193.94 187.707 193.881 187.513 193.771 187.348C193.66 187.183 193.504 187.055 193.32 186.98L190 185.07C189.503 184.819 188.953 184.688 188.395 184.688C187.838 184.688 187.288 184.819 186.79 185.07C186.606 185.142 186.447 185.268 186.333 185.431C186.22 185.594 186.158 185.787 186.155 185.985C186.152 186.183 186.208 186.378 186.315 186.544C186.423 186.711 186.578 186.842 186.76 186.92H186.8ZM195.09 191.7L198.4 193.61C198.896 193.861 199.444 193.992 200 193.992C200.556 193.992 201.104 193.861 201.6 193.61C202.49 193.1 202.48 192.27 201.6 191.75L198.29 189.84C197.794 189.589 197.246 189.458 196.69 189.458C196.134 189.458 195.586 189.589 195.09 189.84C194.15 190.36 194.16 191.19 195.05 191.7H195.09ZM203.37 196.48L206.68 198.39C207.177 198.644 207.727 198.776 208.285 198.776C208.843 198.776 209.393 198.644 209.89 198.39C210.074 198.315 210.23 198.186 210.341 198.022C210.451 197.857 210.51 197.663 210.51 197.465C210.51 197.267 210.451 197.073 210.341 196.908C210.23 196.743 210.074 196.615 209.89 196.54L206.58 194.63C206.083 194.376 205.533 194.244 204.975 194.244C204.417 194.244 203.867 194.376 203.37 194.63C203.185 194.701 203.025 194.826 202.911 194.988C202.797 195.151 202.734 195.343 202.73 195.541C202.725 195.74 202.78 195.935 202.887 196.102C202.994 196.269 203.148 196.401 203.33 196.48H203.37ZM211.83 201.37L215.14 203.28C215.638 203.531 216.188 203.662 216.745 203.662C217.303 203.662 217.853 203.531 218.35 203.28C218.534 203.205 218.69 203.076 218.801 202.912C218.911 202.747 218.97 202.553 218.97 202.355C218.97 202.157 218.911 201.963 218.801 201.798C218.69 201.633 218.534 201.505 218.35 201.43L215 199.52C214.503 199.269 213.953 199.138 213.395 199.138C212.838 199.138 212.288 199.269 211.79 199.52C211.607 199.595 211.45 199.723 211.34 199.888C211.229 200.053 211.17 200.247 211.17 200.445C211.17 200.643 211.229 200.837 211.34 201.002C211.45 201.166 211.607 201.295 211.79 201.37H211.83ZM101.05 146.3L103.92 147.95C104.485 148.239 105.111 148.39 105.745 148.39C106.38 148.39 107.005 148.239 107.57 147.95L110.42 146.3C110.638 146.222 110.826 146.079 110.959 145.89C111.093 145.701 111.164 145.476 111.164 145.245C111.164 145.014 111.093 144.788 110.959 144.599C110.826 144.411 110.638 144.267 110.42 144.19L107.55 142.54C106.985 142.25 106.36 142.099 105.725 142.099C105.091 142.099 104.465 142.25 103.9 142.54L101 144.19C100.784 144.273 100.599 144.42 100.47 144.612C100.341 144.804 100.275 145.031 100.281 145.263C100.286 145.494 100.363 145.718 100.501 145.903C100.639 146.089 100.831 146.228 101.05 146.3ZM115.86 152.74L118.71 151.1C118.933 151.027 119.126 150.886 119.264 150.696C119.401 150.507 119.475 150.279 119.475 150.045C119.475 149.811 119.401 149.583 119.264 149.393C119.126 149.204 118.933 149.063 118.71 148.99L115.85 147.33C115.285 147.04 114.66 146.889 114.025 146.889C113.391 146.889 112.765 147.04 112.2 147.33L109.33 149C109.108 149.073 108.914 149.214 108.777 149.403C108.639 149.593 108.565 149.821 108.565 150.055C108.565 150.289 108.639 150.517 108.777 150.706C108.914 150.896 109.108 151.037 109.33 151.11L112.2 152.76C112.768 153.048 113.396 153.197 114.033 153.193C114.669 153.19 115.296 153.034 115.86 152.74ZM117.63 155.86L120.49 157.52C121.055 157.809 121.681 157.96 122.315 157.96C122.95 157.96 123.575 157.809 124.14 157.52L126.99 155.87C127.99 155.29 127.99 154.35 126.99 153.76L124.12 152.11C123.555 151.82 122.93 151.669 122.295 151.669C121.661 151.669 121.035 151.82 120.47 152.11L117.63 153.76C116.61 154.34 116.62 155.28 117.63 155.86ZM125.91 160.65L128.78 162.3C129.345 162.589 129.971 162.74 130.605 162.74C131.24 162.74 131.865 162.589 132.43 162.3L135.28 160.65C135.499 160.575 135.689 160.433 135.823 160.245C135.958 160.057 136.03 159.831 136.03 159.6C136.03 159.369 135.958 159.143 135.823 158.955C135.689 158.766 135.499 158.625 135.28 158.55L132.41 156.89C131.845 156.6 131.22 156.449 130.585 156.449C129.951 156.449 129.325 156.6 128.76 156.89L125.91 158.53C125.689 158.605 125.497 158.748 125.361 158.938C125.225 159.128 125.152 159.356 125.152 159.59C125.152 159.824 125.225 160.051 125.361 160.242C125.497 160.432 125.689 160.574 125.91 160.65ZM143.55 163.34L140.69 161.69C140.125 161.4 139.5 161.249 138.865 161.249C138.231 161.249 137.605 161.4 137.04 161.69L134.19 163.33C133.968 163.403 133.774 163.544 133.637 163.733C133.499 163.923 133.425 164.151 133.425 164.385C133.425 164.619 133.499 164.847 133.637 165.036C133.774 165.226 133.968 165.367 134.19 165.44L137.05 167.1C137.618 167.386 138.245 167.535 138.88 167.535C139.516 167.535 140.143 167.386 140.71 167.1L143.55 165.46C143.776 165.39 143.974 165.249 144.115 165.058C144.255 164.867 144.331 164.637 144.331 164.4C144.331 164.163 144.255 163.932 144.115 163.742C143.974 163.551 143.776 163.41 143.55 163.34ZM151.84 168.12L149 166.47C148.435 166.18 147.81 166.029 147.175 166.029C146.541 166.029 145.915 166.18 145.35 166.47L142.5 168.12C141.5 168.7 141.5 169.64 142.5 170.23L145.36 171.88C145.925 172.169 146.551 172.32 147.185 172.32C147.82 172.32 148.445 172.169 149.01 171.88L151.86 170.23C152.077 170.15 152.264 170.005 152.396 169.815C152.527 169.625 152.596 169.399 152.594 169.168C152.592 168.937 152.518 168.712 152.383 168.524C152.248 168.337 152.059 168.195 151.84 168.12ZM160.12 172.91L157.26 171.25C156.695 170.96 156.07 170.809 155.435 170.809C154.801 170.809 154.175 170.96 153.61 171.25L150.76 172.89C150.538 172.963 150.344 173.104 150.207 173.293C150.069 173.483 149.995 173.711 149.995 173.945C149.995 174.179 150.069 174.407 150.207 174.596C150.344 174.786 150.538 174.927 150.76 175L153.63 176.65C154.195 176.939 154.821 177.09 155.455 177.09C156.09 177.09 156.715 176.939 157.28 176.65L160.13 175.01C160.344 174.929 160.528 174.785 160.658 174.597C160.788 174.409 160.857 174.185 160.855 173.956C160.854 173.728 160.783 173.505 160.652 173.318C160.52 173.131 160.335 172.988 160.12 172.91ZM168.41 177.69L165.54 176C164.975 175.71 164.35 175.559 163.715 175.559C163.081 175.559 162.455 175.71 161.89 176L159.05 177.65C158.05 178.23 158.05 179.17 159.05 179.75L161.91 181.41C162.475 181.699 163.101 181.85 163.735 181.85C164.37 181.85 164.995 181.699 165.56 181.41L168.41 179.77C169.43 179.22 169.42 178.28 168.41 177.69ZM176.7 182.48L173.83 180.82C173.265 180.53 172.64 180.379 172.005 180.379C171.371 180.379 170.745 180.53 170.18 180.82L167.33 182.46C167.112 182.537 166.924 182.681 166.791 182.869C166.658 183.058 166.586 183.284 166.586 183.515C166.586 183.746 166.658 183.971 166.791 184.16C166.924 184.349 167.112 184.492 167.33 184.57L170.2 186.22C170.765 186.509 171.391 186.66 172.025 186.66C172.66 186.66 173.285 186.509 173.85 186.22L176.7 184.57C176.916 184.493 177.102 184.351 177.234 184.164C177.365 183.977 177.436 183.754 177.436 183.525C177.436 183.296 177.365 183.073 177.234 182.886C177.102 182.699 176.916 182.557 176.7 182.48ZM184.98 187.26L182.12 185.61C181.555 185.32 180.93 185.169 180.295 185.169C179.661 185.169 179.035 185.32 178.47 185.61L175.62 187.25C175.398 187.323 175.204 187.464 175.067 187.653C174.929 187.843 174.855 188.071 174.855 188.305C174.855 188.539 174.929 188.767 175.067 188.956C175.204 189.146 175.398 189.287 175.62 189.36L178.5 191C179.065 191.289 179.691 191.44 180.325 191.44C180.96 191.44 181.585 191.289 182.15 191L184.99 189.36C185.209 189.286 185.4 189.145 185.535 188.958C185.671 188.77 185.744 188.545 185.745 188.313C185.746 188.082 185.675 187.856 185.542 187.667C185.408 187.478 185.219 187.336 185 187.26H184.98ZM183.92 194.14L186.78 195.79C187.345 196.079 187.971 196.23 188.605 196.23C189.24 196.23 189.865 196.079 190.43 195.79L193.28 194.14C194.28 193.56 194.28 192.62 193.28 192.03L190.41 190.38C189.845 190.09 189.22 189.939 188.585 189.939C187.951 189.939 187.325 190.09 186.76 190.38L183.9 192C182.9 192.61 182.9 193.55 183.92 194.14ZM201.55 196.83L198.69 195.17C198.125 194.88 197.5 194.729 196.865 194.729C196.231 194.729 195.605 194.88 195.04 195.17L192.19 196.81C191.972 196.887 191.784 197.031 191.651 197.219C191.518 197.408 191.446 197.634 191.446 197.865C191.446 198.096 191.518 198.321 191.651 198.51C191.784 198.699 191.972 198.842 192.19 198.92L195.06 200.57C195.625 200.859 196.251 201.01 196.885 201.01C197.52 201.01 198.145 200.859 198.71 200.57L201.56 198.93C201.779 198.854 201.968 198.711 202.102 198.522C202.235 198.334 202.306 198.108 202.305 197.876C202.304 197.645 202.231 197.42 202.095 197.232C201.96 197.044 201.769 196.904 201.55 196.83ZM213.69 203.83L207.15 200.05C206.585 199.76 205.96 199.609 205.325 199.609C204.691 199.609 204.065 199.76 203.5 200.05L200.65 201.69C200.428 201.763 200.234 201.904 200.097 202.093C199.959 202.283 199.885 202.511 199.885 202.745C199.885 202.979 199.959 203.207 200.097 203.396C200.234 203.586 200.428 203.727 200.65 203.8L207.19 207.58C207.755 207.869 208.381 208.02 209.015 208.02C209.65 208.02 210.275 207.869 210.84 207.58L213.69 205.93C214.71 205.36 214.7 204.42 213.69 203.84V203.83ZM93.3802 150.73L99.9202 154.5C100.485 154.789 101.111 154.94 101.745 154.94C102.38 154.94 103.005 154.789 103.57 154.5L106.42 152.86C106.643 152.787 106.836 152.646 106.974 152.456C107.111 152.267 107.185 152.039 107.185 151.805C107.185 151.571 107.111 151.343 106.974 151.153C106.836 150.964 106.643 150.823 106.42 150.75L99.8702 147C99.3054 146.71 98.6799 146.559 98.0452 146.559C97.4105 146.559 96.785 146.71 96.2202 147L93.3702 148.64C92.3602 149.2 92.3702 150.14 93.3802 150.73ZM105.38 157.63L108.25 159.29C108.815 159.579 109.441 159.73 110.075 159.73C110.71 159.73 111.335 159.579 111.9 159.29L114.75 157.65C114.968 157.572 115.156 157.429 115.289 157.24C115.423 157.051 115.494 156.826 115.494 156.595C115.494 156.364 115.423 156.138 115.289 155.949C115.156 155.761 114.968 155.617 114.75 155.54L111.88 153.89C111.315 153.6 110.69 153.449 110.055 153.449C109.421 153.449 108.795 153.6 108.23 153.89L105.38 155.54C105.163 155.613 104.974 155.751 104.839 155.936C104.703 156.12 104.628 156.342 104.624 156.571C104.62 156.8 104.686 157.024 104.814 157.214C104.943 157.403 105.126 157.549 105.34 157.63H105.38ZM116.54 164.07C117.105 164.359 117.731 164.51 118.365 164.51C119 164.51 119.625 164.359 120.19 164.07L123.03 162.43C123.253 162.357 123.446 162.216 123.584 162.026C123.721 161.837 123.795 161.609 123.795 161.375C123.795 161.141 123.721 160.913 123.584 160.723C123.446 160.534 123.253 160.393 123.03 160.32L120.17 158.66C119.605 158.37 118.98 158.219 118.345 158.219C117.711 158.219 117.085 158.37 116.52 158.66L113.67 160.3C112.67 160.88 112.67 161.82 113.67 162.41L116.54 164.07ZM124.82 168.86C125.385 169.149 126.011 169.3 126.645 169.3C127.28 169.3 127.905 169.149 128.47 168.86L131.32 167.22C131.543 167.147 131.736 167.006 131.874 166.816C132.011 166.627 132.085 166.399 132.085 166.165C132.085 165.931 132.011 165.703 131.874 165.513C131.736 165.324 131.543 165.183 131.32 165.11L128.45 163.46C127.885 163.17 127.26 163.019 126.625 163.019C125.991 163.019 125.365 163.17 124.8 163.46L121.95 165.1C121.728 165.173 121.534 165.314 121.397 165.503C121.259 165.693 121.185 165.921 121.185 166.155C121.185 166.389 121.259 166.617 121.397 166.806C121.534 166.996 121.728 167.137 121.95 167.21L124.82 168.86ZM133.08 168.23L130.23 169.88C130.012 169.957 129.824 170.101 129.691 170.289C129.558 170.478 129.486 170.704 129.486 170.935C129.486 171.166 129.558 171.391 129.691 171.58C129.824 171.769 130.012 171.912 130.23 171.99L133.1 173.64C133.665 173.929 134.291 174.08 134.925 174.08C135.56 174.08 136.185 173.929 136.75 173.64L139.6 171.99C140.6 171.41 140.6 170.47 139.6 169.89L136.74 168.23C136.164 167.925 135.522 167.766 134.87 167.766C134.218 167.766 133.576 167.925 133 168.23H133.08ZM141.54 172.92L138.34 174.76C138.136 174.823 137.958 174.95 137.832 175.122C137.705 175.294 137.637 175.501 137.637 175.715C137.637 175.928 137.705 176.136 137.832 176.308C137.958 176.48 138.136 176.607 138.34 176.67L141.56 178.53C142.072 178.789 142.637 178.924 143.21 178.924C143.784 178.924 144.349 178.789 144.86 178.53L148.06 176.69C148.264 176.627 148.442 176.5 148.569 176.328C148.695 176.156 148.764 175.948 148.764 175.735C148.764 175.521 148.695 175.314 148.569 175.142C148.442 174.97 148.264 174.843 148.06 174.78L144.84 172.92C144.324 172.654 143.751 172.515 143.17 172.515C142.589 172.515 142.017 172.654 141.5 172.92H141.54ZM149.83 177.7L146.63 179.55C145.72 180.07 145.72 180.92 146.63 181.45L149.85 183.31C150.362 183.569 150.927 183.704 151.5 183.704C152.074 183.704 152.639 183.569 153.15 183.31L156.34 181.46C156.54 181.394 156.714 181.267 156.838 181.096C156.961 180.926 157.028 180.72 157.028 180.51C157.028 180.299 156.961 180.094 156.838 179.923C156.714 179.753 156.54 179.626 156.34 179.56L153.13 177.7C152.614 177.434 152.041 177.295 151.46 177.295C150.879 177.295 150.307 177.434 149.79 177.7H149.83ZM158.11 182.48L154.91 184.33C154.706 184.393 154.528 184.52 154.402 184.692C154.275 184.864 154.207 185.071 154.207 185.285C154.207 185.498 154.275 185.706 154.402 185.878C154.528 186.05 154.706 186.177 154.91 186.24L158.13 188.09C158.642 188.349 159.207 188.484 159.78 188.484C160.354 188.484 160.919 188.349 161.43 188.09L164.63 186.24C165.54 185.72 165.53 184.87 164.63 184.34L161.41 182.48C160.894 182.214 160.321 182.075 159.74 182.075C159.159 182.075 158.587 182.214 158.07 182.48H158.11ZM166.4 187.27L163.2 189.11C162.996 189.173 162.818 189.3 162.692 189.472C162.565 189.644 162.497 189.851 162.497 190.065C162.497 190.278 162.565 190.486 162.692 190.658C162.818 190.83 162.996 190.957 163.2 191.02L166.42 192.88C166.931 193.141 167.496 193.278 168.07 193.278C168.644 193.278 169.21 193.141 169.72 192.88L172.92 191.04C173.124 190.977 173.302 190.85 173.429 190.678C173.555 190.506 173.624 190.298 173.624 190.085C173.624 189.871 173.555 189.664 173.429 189.492C173.302 189.32 173.124 189.193 172.92 189.13L169.7 187.28C169.185 187.01 168.613 186.868 168.031 186.867C167.45 186.865 166.877 187.003 166.36 187.27H166.4ZM174.68 192.05L171.49 193.9C171.29 193.966 171.116 194.093 170.992 194.263C170.869 194.434 170.802 194.639 170.802 194.85C170.802 195.06 170.869 195.266 170.992 195.436C171.116 195.607 171.29 195.734 171.49 195.8L174.7 197.66C175.212 197.919 175.777 198.054 176.35 198.054C176.924 198.054 177.489 197.919 178 197.66L181.2 195.81C181.4 195.744 181.574 195.617 181.698 195.446C181.821 195.276 181.888 195.07 181.888 194.86C181.888 194.649 181.821 194.444 181.698 194.273C181.574 194.103 181.4 193.976 181.2 193.91L177.98 192.05C177.464 191.784 176.891 191.645 176.31 191.645C175.729 191.645 175.157 191.784 174.64 192.05H174.68ZM186.3 202.45L189.5 200.61C189.704 200.547 189.882 200.42 190.009 200.248C190.135 200.076 190.204 199.868 190.204 199.655C190.204 199.441 190.135 199.234 190.009 199.062C189.882 198.89 189.704 198.763 189.5 198.7L186.28 196.84C185.769 196.581 185.204 196.446 184.63 196.446C184.057 196.446 183.492 196.581 182.98 196.84L179.78 198.68C179.576 198.743 179.398 198.87 179.272 199.042C179.145 199.214 179.077 199.421 179.077 199.635C179.077 199.848 179.145 200.056 179.272 200.228C179.398 200.4 179.576 200.527 179.78 200.59L183 202.45C183.506 202.703 184.064 202.834 184.63 202.834C185.196 202.834 185.754 202.703 186.26 202.45H186.3ZM194.59 207.24L197.78 205.39C197.984 205.327 198.162 205.2 198.289 205.028C198.415 204.856 198.484 204.648 198.484 204.435C198.484 204.221 198.415 204.014 198.289 203.842C198.162 203.67 197.984 203.543 197.78 203.48L194.57 201.63C194.059 201.371 193.494 201.236 192.92 201.236C192.347 201.236 191.782 201.371 191.27 201.63L188.07 203.48C187.16 204 187.16 204.85 188.07 205.38L191.29 207.24C191.796 207.493 192.354 207.624 192.92 207.624C193.486 207.624 194.044 207.493 194.55 207.24H194.59ZM206.23 208.37L203 206.51C202.489 206.251 201.924 206.116 201.35 206.116C200.777 206.116 200.212 206.251 199.7 206.51L196.51 208.36C196.306 208.423 196.128 208.55 196.002 208.722C195.875 208.894 195.807 209.101 195.807 209.315C195.807 209.528 195.875 209.736 196.002 209.908C196.128 210.08 196.306 210.207 196.51 210.27L199.73 212.12C200.24 212.379 200.803 212.514 201.375 212.514C201.947 212.514 202.511 212.379 203.02 212.12L206.22 210.27C207.11 209.75 207.11 208.9 206.19 208.37H206.23ZM85.5302 155.06L95.9202 161.06C96.4316 161.319 96.9969 161.454 97.5702 161.454C98.1435 161.454 98.7088 161.319 99.2202 161.06L102.42 159.21C102.62 159.144 102.794 159.017 102.918 158.846C103.041 158.676 103.108 158.47 103.108 158.26C103.108 158.049 103.041 157.844 102.918 157.673C102.794 157.503 102.62 157.376 102.42 157.31L92.0302 151.31C91.5188 151.051 90.9535 150.916 90.3802 150.916C89.8069 150.916 89.2416 151.051 88.7302 151.31L85.5302 153.16C85.3301 153.226 85.1559 153.353 85.0324 153.523C84.9089 153.694 84.8424 153.899 84.8424 154.11C84.8424 154.32 84.9089 154.526 85.0324 154.696C85.1559 154.867 85.3301 154.994 85.5302 155.06ZM101 164L104.21 165.86C104.721 166.121 105.286 166.258 105.86 166.258C106.434 166.258 107 166.121 107.51 165.86L110.71 164.02C110.914 163.957 111.092 163.83 111.219 163.658C111.345 163.486 111.414 163.278 111.414 163.065C111.414 162.851 111.345 162.644 111.219 162.472C111.092 162.3 110.914 162.173 110.71 162.11L107.49 160.25C106.979 159.991 106.414 159.856 105.84 159.856C105.267 159.856 104.702 159.991 104.19 160.25L101 162.07C100.788 162.127 100.601 162.253 100.468 162.428C100.335 162.602 100.262 162.815 100.262 163.035C100.262 163.254 100.335 163.468 100.468 163.642C100.601 163.817 100.788 163.942 101 164ZM109.28 168.78L112.5 170.64C113.012 170.899 113.577 171.034 114.15 171.034C114.724 171.034 115.289 170.899 115.8 170.64L119 168.79C119.2 168.724 119.374 168.597 119.498 168.426C119.621 168.256 119.688 168.05 119.688 167.84C119.688 167.629 119.621 167.424 119.498 167.253C119.374 167.083 119.2 166.956 119 166.89L115.76 165C115.249 164.741 114.684 164.606 114.11 164.606C113.537 164.606 112.972 164.741 112.46 165L109.26 166.85C109.057 166.914 108.879 167.042 108.754 167.215C108.628 167.387 108.561 167.595 108.562 167.809C108.563 168.022 108.632 168.229 108.76 168.401C108.887 168.572 109.066 168.698 109.27 168.76L109.28 168.78ZM117.57 173.57L120.79 175.43C121.302 175.689 121.867 175.824 122.44 175.824C123.014 175.824 123.579 175.689 124.09 175.43L127.28 173.59C127.484 173.527 127.662 173.4 127.789 173.228C127.915 173.056 127.984 172.848 127.984 172.635C127.984 172.421 127.915 172.214 127.789 172.042C127.662 171.87 127.484 171.743 127.28 171.68L124.07 169.82C123.559 169.561 122.994 169.426 122.42 169.426C121.847 169.426 121.282 169.561 120.77 169.82L117.57 171.66C117.373 171.727 117.202 171.854 117.081 172.022C116.959 172.191 116.893 172.393 116.892 172.601C116.891 172.809 116.955 173.012 117.075 173.182C117.194 173.352 117.364 173.481 117.56 173.55L117.57 173.57ZM132.37 180.22L135.57 178.37C136.48 177.85 136.47 176.99 135.57 176.46L132.35 174.61C131.839 174.351 131.274 174.216 130.7 174.216C130.127 174.216 129.562 174.351 129.05 174.61L125.85 176.46C125.65 176.526 125.476 176.653 125.352 176.823C125.229 176.994 125.162 177.199 125.162 177.41C125.162 177.62 125.229 177.826 125.352 177.996C125.476 178.167 125.65 178.294 125.85 178.36L129.07 180.22C129.582 180.474 130.146 180.605 130.718 180.602C131.289 180.598 131.852 180.461 132.36 180.2L132.37 180.22ZM140.66 185L143.86 183.15C144.06 183.084 144.234 182.957 144.358 182.786C144.481 182.616 144.548 182.41 144.548 182.2C144.548 181.989 144.481 181.784 144.358 181.613C144.234 181.443 144.06 181.316 143.86 181.25L140.64 179.39C140.129 179.131 139.564 178.996 138.99 178.996C138.417 178.996 137.852 179.131 137.34 179.39L134.14 181.24C133.936 181.303 133.758 181.43 133.632 181.602C133.505 181.774 133.437 181.981 133.437 182.195C133.437 182.408 133.505 182.616 133.632 182.788C133.758 182.96 133.936 183.087 134.14 183.15L137.36 185C137.87 185.257 138.434 185.392 139.005 185.392C139.577 185.392 140.14 185.257 140.65 185H140.66ZM148.94 189.78L152.14 187.94C152.344 187.877 152.522 187.75 152.649 187.578C152.775 187.406 152.844 187.198 152.844 186.985C152.844 186.771 152.775 186.564 152.649 186.392C152.522 186.22 152.344 186.093 152.14 186.03L148.92 184.17C148.409 183.911 147.844 183.776 147.27 183.776C146.697 183.776 146.132 183.911 145.62 184.17L142.41 186C142.206 186.063 142.028 186.19 141.902 186.362C141.775 186.534 141.707 186.741 141.707 186.955C141.707 187.168 141.775 187.376 141.902 187.548C142.028 187.72 142.206 187.847 142.41 187.91L145.62 189.77C146.133 190.032 146.701 190.167 147.276 190.165C147.852 190.164 148.419 190.025 148.93 189.76L148.94 189.78ZM157.23 194.57L160.43 192.72C160.63 192.654 160.804 192.527 160.928 192.356C161.051 192.186 161.118 191.98 161.118 191.77C161.118 191.559 161.051 191.354 160.928 191.183C160.804 191.013 160.63 190.886 160.43 190.82L157.21 188.96C156.699 188.701 156.134 188.566 155.56 188.566C154.987 188.566 154.422 188.701 153.91 188.96L150.71 190.81C150.51 190.876 150.336 191.003 150.212 191.173C150.089 191.344 150.022 191.549 150.022 191.76C150.022 191.97 150.089 192.176 150.212 192.346C150.336 192.517 150.51 192.644 150.71 192.71L153.93 194.57C154.442 194.824 155.006 194.955 155.578 194.952C156.149 194.948 156.712 194.811 157.22 194.55L157.23 194.57ZM165.52 199.35L168.71 197.51C168.914 197.447 169.092 197.32 169.219 197.148C169.345 196.976 169.414 196.768 169.414 196.555C169.414 196.341 169.345 196.134 169.219 195.962C169.092 195.79 168.914 195.663 168.71 195.6L165.5 193.74C164.99 193.478 164.424 193.342 163.85 193.342C163.276 193.342 162.711 193.478 162.2 193.74L159 195.58C158.796 195.643 158.618 195.77 158.492 195.942C158.365 196.114 158.297 196.321 158.297 196.535C158.297 196.748 158.365 196.956 158.492 197.128C158.618 197.3 158.796 197.427 159 197.49L162.22 199.35C162.732 199.604 163.296 199.735 163.868 199.732C164.439 199.728 165.002 199.591 165.51 199.33L165.52 199.35ZM173.8 204.14L177 202.29C177.204 202.227 177.382 202.1 177.509 201.928C177.635 201.756 177.704 201.548 177.704 201.335C177.704 201.121 177.635 200.914 177.509 200.742C177.382 200.57 177.204 200.443 177 200.38L173.78 198.53C173.269 198.271 172.704 198.136 172.13 198.136C171.557 198.136 170.992 198.271 170.48 198.53L167.28 200.38C166.38 200.9 166.38 201.75 167.28 202.28L170.49 204.14C171.003 204.396 171.569 204.528 172.143 204.524C172.716 204.521 173.28 204.382 173.79 204.12L173.8 204.14ZM175.57 207.06L178.79 208.91C179.302 209.169 179.867 209.304 180.44 209.304C181.014 209.304 181.579 209.169 182.09 208.91L185.29 207.06C185.49 206.994 185.664 206.867 185.788 206.696C185.911 206.526 185.978 206.32 185.978 206.11C185.978 205.899 185.911 205.694 185.788 205.523C185.664 205.353 185.49 205.226 185.29 205.16L182.07 203.3C181.559 203.041 180.994 202.906 180.42 202.906C179.847 202.906 179.282 203.041 178.77 203.3L175.57 205.15C175.386 205.224 175.229 205.352 175.118 205.516C175.006 205.68 174.946 205.873 174.945 206.072C174.944 206.27 175.002 206.464 175.111 206.629C175.221 206.795 175.377 206.924 175.56 207L175.57 207.06ZM198.57 212.82L190.38 208.09C189.871 207.831 189.307 207.696 188.735 207.696C188.163 207.696 187.6 207.831 187.09 208.09L183.89 209.93C183.686 209.993 183.508 210.12 183.382 210.292C183.255 210.464 183.187 210.671 183.187 210.885C183.187 211.098 183.255 211.306 183.382 211.478C183.508 211.65 183.686 211.777 183.89 211.84L192.07 216.56C192.582 216.819 193.147 216.954 193.72 216.954C194.294 216.954 194.859 216.819 195.37 216.56L198.57 214.71C199.44 214.18 199.43 213.33 198.52 212.8L198.57 212.82ZM77.8902 159.72L92.6302 168.23C93.2063 168.523 93.8437 168.676 94.4902 168.676C95.1367 168.676 95.774 168.523 96.3502 168.23L99.1302 166.63C100.13 166.04 100.13 165.08 99.1302 164.48L84.3702 156C83.7941 155.707 83.1567 155.554 82.5102 155.554C81.8637 155.554 81.2264 155.707 80.6502 156L77.8702 157.6C77.6585 157.686 77.4775 157.834 77.3508 158.024C77.2241 158.214 77.1575 158.438 77.1596 158.667C77.1618 158.895 77.2326 159.118 77.3629 159.306C77.4932 159.494 77.6769 159.638 77.8902 159.72ZM98.1202 171.4L100.91 173.01C101.488 173.303 102.127 173.456 102.775 173.456C103.423 173.456 104.062 173.303 104.64 173.01L107.41 171.41C107.637 171.336 107.835 171.193 107.976 170.999C108.116 170.806 108.192 170.574 108.192 170.335C108.192 170.096 108.116 169.863 107.976 169.67C107.835 169.477 107.637 169.333 107.41 169.26L104.62 167.65C104.042 167.357 103.403 167.204 102.755 167.204C102.107 167.204 101.468 167.357 100.89 167.65L98.1202 169.25C97.8978 169.328 97.7052 169.474 97.569 169.666C97.4328 169.859 97.3596 170.089 97.3596 170.325C97.3596 170.561 97.4328 170.791 97.569 170.983C97.7052 171.176 97.8978 171.321 98.1202 171.4ZM106.41 176.19L109.2 177.79C109.778 178.083 110.417 178.236 111.065 178.236C111.713 178.236 112.352 178.083 112.93 177.79L115.7 176.19C115.923 176.111 116.115 175.966 116.251 175.773C116.388 175.581 116.461 175.351 116.461 175.115C116.461 174.879 116.388 174.649 116.251 174.456C116.115 174.264 115.923 174.118 115.7 174.04L112.91 172.43C112.332 172.137 111.693 171.984 111.045 171.984C110.397 171.984 109.758 172.137 109.18 172.43L106.4 174C106.163 174.07 105.955 174.215 105.808 174.413C105.66 174.611 105.581 174.852 105.582 175.099C105.583 175.346 105.665 175.586 105.814 175.782C105.963 175.979 106.173 176.122 106.41 176.19ZM114.7 181L117.49 182.61C118.066 182.903 118.704 183.056 119.35 183.056C119.997 183.056 120.634 182.903 121.21 182.61L124 181C124.226 180.924 124.422 180.778 124.561 180.585C124.7 180.391 124.775 180.158 124.775 179.92C124.775 179.681 124.7 179.449 124.561 179.255C124.422 179.061 124.226 178.916 124 178.84L121.21 177.23C120.634 176.937 119.997 176.784 119.35 176.784C118.704 176.784 118.066 176.937 117.49 177.23L114.71 178.83C113.66 179.41 113.66 180.37 114.7 181ZM122.98 185.78L125.77 187.39C126.348 187.683 126.987 187.836 127.635 187.836C128.283 187.836 128.922 187.683 129.5 187.39L132.27 185.79C132.497 185.716 132.695 185.573 132.836 185.379C132.976 185.186 133.052 184.954 133.052 184.715C133.052 184.476 132.976 184.243 132.836 184.05C132.695 183.857 132.497 183.713 132.27 183.64L129.47 182C128.892 181.707 128.253 181.554 127.605 181.554C126.957 181.554 126.318 181.707 125.74 182L123 183.6C122.778 183.678 122.585 183.824 122.449 184.016C122.313 184.209 122.24 184.439 122.24 184.675C122.24 184.911 122.313 185.141 122.449 185.333C122.585 185.526 122.778 185.671 123 185.75L122.98 185.78ZM131.27 190.57L134.06 192.18C134.638 192.473 135.277 192.626 135.925 192.626C136.573 192.626 137.212 192.473 137.79 192.18L140.56 190.58C141.56 189.99 141.56 189.03 140.56 188.43L137.78 186.82C137.202 186.529 136.563 186.377 135.915 186.377C135.268 186.377 134.629 186.529 134.05 186.82L131.28 188.42C131.067 188.503 130.884 188.648 130.755 188.837C130.626 189.025 130.556 189.248 130.555 189.477C130.554 189.705 130.621 189.929 130.749 190.118C130.876 190.308 131.058 190.455 131.27 190.54V190.57ZM139.55 195.35L142.34 196.96C142.918 197.253 143.557 197.406 144.205 197.406C144.853 197.406 145.492 197.253 146.07 196.96L148.84 195.36C149.067 195.286 149.265 195.143 149.406 194.949C149.546 194.756 149.622 194.524 149.622 194.285C149.622 194.046 149.546 193.813 149.406 193.62C149.265 193.427 149.067 193.283 148.84 193.21L146 191.58C145.422 191.287 144.783 191.134 144.135 191.134C143.487 191.134 142.848 191.287 142.27 191.58L139.5 193.18C139.283 193.265 139.097 193.416 138.968 193.61C138.839 193.804 138.772 194.034 138.778 194.267C138.783 194.501 138.86 194.727 138.998 194.915C139.137 195.103 139.329 195.245 139.55 195.32V195.35ZM147.84 200.14L150.63 201.74C151.208 202.033 151.847 202.186 152.495 202.186C153.143 202.186 153.782 202.033 154.36 201.74L157.13 200.14C157.353 200.061 157.545 199.916 157.681 199.723C157.818 199.531 157.891 199.301 157.891 199.065C157.891 198.829 157.818 198.599 157.681 198.406C157.545 198.214 157.353 198.068 157.13 197.99L154.34 196.38C153.762 196.087 153.123 195.934 152.475 195.934C151.827 195.934 151.188 196.087 150.61 196.38L147.84 197.98C147.624 198.062 147.439 198.208 147.308 198.398C147.177 198.589 147.107 198.814 147.107 199.045C147.107 199.276 147.177 199.501 147.308 199.691C147.439 199.882 147.624 200.028 147.84 200.11V200.14ZM156.13 204.92L158.92 206.53C159.496 206.823 160.134 206.976 160.78 206.976C161.427 206.976 162.064 206.823 162.64 206.53L165.42 204.93C165.646 204.854 165.842 204.708 165.981 204.515C166.12 204.321 166.195 204.088 166.195 203.85C166.195 203.611 166.12 203.379 165.981 203.185C165.842 202.992 165.646 202.846 165.42 202.77L162.63 201.16C162.054 200.867 161.417 200.714 160.77 200.714C160.124 200.714 159.486 200.867 158.91 201.16L156.14 202.76C155.09 203.33 155.09 204.29 156.13 204.89V204.92ZM164.41 209.7L167.2 211.31C167.778 211.603 168.417 211.756 169.065 211.756C169.713 211.756 170.352 211.603 170.93 211.31L173.7 209.71C173.927 209.636 174.125 209.493 174.266 209.299C174.406 209.106 174.482 208.874 174.482 208.635C174.482 208.396 174.406 208.163 174.266 207.97C174.125 207.777 173.927 207.633 173.7 207.56L170.91 205.95C170.332 205.657 169.693 205.504 169.045 205.504C168.397 205.504 167.758 205.657 167.18 205.95L164.41 207.55C164.198 207.634 164.015 207.78 163.887 207.969C163.758 208.158 163.69 208.381 163.69 208.61C163.69 208.838 163.758 209.062 163.887 209.251C164.015 209.44 164.198 209.586 164.41 209.67V209.7ZM172.7 214.49L175.49 216.1C176.068 216.393 176.707 216.546 177.355 216.546C178.003 216.546 178.642 216.393 179.22 216.1L181.99 214.5C182.213 214.421 182.405 214.276 182.541 214.083C182.678 213.891 182.751 213.661 182.751 213.425C182.751 213.189 182.678 212.959 182.541 212.766C182.405 212.574 182.213 212.428 181.99 212.35L179.2 210.74C178.622 210.449 177.983 210.297 177.335 210.297C176.688 210.297 176.049 210.449 175.47 210.74L172.7 212.34C172.488 212.424 172.305 212.57 172.177 212.759C172.048 212.948 171.98 213.171 171.98 213.4C171.98 213.628 172.048 213.852 172.177 214.041C172.305 214.23 172.488 214.376 172.7 214.46V214.49ZM190.45 217.24L187.66 215.63C187.082 215.339 186.443 215.187 185.795 215.187C185.148 215.187 184.509 215.339 183.93 215.63L181.16 217.23C180.934 217.306 180.738 217.451 180.599 217.645C180.46 217.839 180.385 218.071 180.385 218.31C180.385 218.548 180.46 218.781 180.599 218.975C180.738 219.168 180.934 219.314 181.16 219.39L184 221C184.578 221.293 185.217 221.446 185.865 221.446C186.513 221.446 187.152 221.293 187.73 221L190.5 219.4C190.736 219.326 190.942 219.177 191.086 218.976C191.23 218.776 191.304 218.533 191.299 218.286C191.293 218.039 191.207 217.8 191.054 217.606C190.901 217.412 190.689 217.273 190.45 217.21V217.24ZM83.1702 164.14L76.7002 160.4C76.1223 160.107 75.4833 159.954 74.8352 159.954C74.1871 159.954 73.5481 160.107 72.9702 160.4L70.2002 162C69.2002 162.59 69.2002 163.55 70.2002 164.15L76.6702 167.88C77.2481 168.173 77.8871 168.326 78.5352 168.326C79.1833 168.326 79.8223 168.173 80.4002 167.88L83.1702 166.28C83.3892 166.199 83.5782 166.054 83.7118 165.862C83.8453 165.671 83.9169 165.443 83.9169 165.21C83.9169 164.977 83.8453 164.749 83.7118 164.558C83.5782 164.366 83.3892 164.22 83.1702 164.14ZM91.4502 168.92L88.6602 167.31C88.0823 167.017 87.4433 166.864 86.7952 166.864C86.1471 166.864 85.5081 167.017 84.9302 167.31L82.1602 168.91C81.9378 168.988 81.7452 169.134 81.609 169.326C81.4728 169.519 81.3996 169.749 81.3996 169.985C81.3996 170.221 81.4728 170.451 81.609 170.643C81.7452 170.836 81.9378 170.981 82.1602 171.06L85.0002 172.66C85.5781 172.953 86.2171 173.106 86.8652 173.106C87.5133 173.106 88.1523 172.953 88.7302 172.66L91.5002 171.06C92.4902 170.48 92.4802 169.52 91.4502 168.92ZM99.7402 173.7L97.0002 172.09C96.4223 171.797 95.7833 171.644 95.1352 171.644C94.4871 171.644 93.8481 171.797 93.2702 172.09L90.5002 173.69C89.5002 174.28 89.5002 175.24 90.5002 175.84L93.2902 177.45C93.8688 177.741 94.5075 177.893 95.1552 177.893C95.8029 177.893 96.4416 177.741 97.0202 177.45L99.7902 175.85C100.011 175.766 100.2 175.616 100.332 175.421C100.464 175.225 100.532 174.993 100.526 174.757C100.521 174.521 100.442 174.293 100.301 174.103C100.161 173.914 99.9646 173.773 99.7402 173.7ZM157.74 207.19L105.23 176.88C104.654 176.587 104.017 176.434 103.37 176.434C102.724 176.434 102.086 176.587 101.51 176.88L98.7402 178.48C98.513 178.553 98.315 178.697 98.1745 178.89C98.0341 179.083 97.9584 179.316 97.9584 179.555C97.9584 179.794 98.0341 180.026 98.1745 180.219C98.315 180.413 98.513 180.556 98.7402 180.63L151.24 210.95C151.818 211.243 152.457 211.396 153.105 211.396C153.753 211.396 154.392 211.243 154.97 210.95L157.74 209.35C158.78 208.75 158.77 207.79 157.74 207.19ZM166 212L163.21 210.38C162.632 210.089 161.993 209.937 161.345 209.937C160.698 209.937 160.059 210.089 159.48 210.38L156.71 211.98C155.71 212.57 155.71 213.53 156.71 214.13L159.5 215.74C160.078 216.033 160.717 216.186 161.365 216.186C162.013 216.186 162.652 216.033 163.23 215.74L166 214.14C166.219 214.059 166.408 213.914 166.542 213.722C166.675 213.531 166.747 213.303 166.747 213.07C166.747 212.837 166.675 212.609 166.542 212.418C166.408 212.226 166.219 212.08 166 212ZM174.28 216.78L171.49 215.17C170.914 214.877 170.277 214.724 169.63 214.724C168.984 214.724 168.346 214.877 167.77 215.17L164.99 216.77C164.763 216.843 164.565 216.987 164.425 217.18C164.284 217.373 164.208 217.606 164.208 217.845C164.208 218.084 164.284 218.316 164.425 218.509C164.565 218.703 164.763 218.846 164.99 218.92L167.78 220.53C168.356 220.823 168.994 220.976 169.64 220.976C170.287 220.976 170.924 220.823 171.5 220.53L174.27 218.93C175.35 218.32 175.34 217.36 174.31 216.76L174.28 216.78ZM182.74 221.66L180 220C179.422 219.707 178.783 219.554 178.135 219.554C177.487 219.554 176.848 219.707 176.27 220L173.5 221.6C173.278 221.678 173.085 221.824 172.949 222.016C172.813 222.209 172.74 222.439 172.74 222.675C172.74 222.911 172.813 223.141 172.949 223.333C173.085 223.526 173.278 223.671 173.5 223.75L176.29 225.36C176.869 225.651 177.508 225.803 178.155 225.803C178.803 225.803 179.442 225.651 180.02 225.36L182.79 223.75C183.81 223.2 183.8 222.24 182.77 221.64L182.74 221.66Z" fill="url(#paint9_linear)"/>
<path opacity="0.65" d="M167.31 151L63.15 90.8499C57.82 87.7799 53.5 79.5299 53.5 72.4299V45.4299C53.5 38.3299 57.82 35.0699 63.15 38.1399L167.31 98.3199C172.64 101.4 176.95 109.65 176.95 116.75V143.75C177 150.85 172.64 154.11 167.31 151Z" fill="url(#paint10_linear)"/>
<path opacity="0.8" d="M170 96.8699L65.8802 36.6799C65.0634 36.1255 64.1318 35.7628 63.1552 35.6191C62.1785 35.4754 61.182 35.5543 60.2402 35.8499C60.0402 35.9299 57.3502 37.3599 57.1602 37.4699C58.8102 36.6699 60.9002 36.8199 63.1602 38.1299L167.31 98.3199C172.64 101.4 176.95 109.65 176.95 116.75V143.75C176.95 148.18 175.27 151.12 172.71 151.95C173.015 151.935 173.31 151.835 173.56 151.66C173.68 151.59 176.56 149.95 176.71 149.86C178.55 148.58 179.71 145.95 179.71 142.3V115.3C179.69 108.19 175.37 99.9999 170 96.8699Z" fill="url(#paint11_linear)"/>
<path d="M165.1 133.99L84.1499 87.16V65.29L165.1 112.12V133.99Z" fill="url(#paint12_linear)"/>
<path d="M86.1999 86.39V66.47L84.1499 65.29V87.16L165.1 133.99V132.03L86.1999 86.39Z" fill="#364F87"/>
<path style="mix-blend-mode:screen" opacity="0.6" d="M167.77 98.0902L63.6098 37.9002C61.4198 36.6402 59.4198 36.4602 57.7998 37.1602C59.429 36.979 61.0709 37.3639 62.4498 38.2502L166.62 98.4402C171.94 101.51 176.26 109.76 176.26 116.86V174.86C176.26 179.05 174.75 181.86 172.42 182.86C175.42 182.38 177.42 179.33 177.42 174.48V116.48C177.42 109.42 173.1 101.17 167.77 98.0902Z" fill="url(#paint13_radial)"/>
<g clip-path="url(#clip0)">
<path fill-rule="evenodd" clip-rule="evenodd" d="M63.4966 58.6159C62.3664 57.9863 61.3729 58.5214 61.2771 59.8112L60.5862 69.1589C60.4908 70.4494 61.3299 72.0061 62.4604 72.6358L73.718 78.9073C74.8485 79.5371 75.8422 79.0014 75.9376 77.7109L76.6275 68.3766C76.6283 68.3674 76.629 68.3581 76.6295 68.3487C76.717 67.0613 75.8801 65.5146 74.7542 64.8873L63.4966 58.6159ZM75.5939 67.4811C75.5166 66.9148 75.1439 66.3209 74.6679 66.0557L63.4102 59.7842C62.9342 59.519 62.5067 59.6671 62.3551 60.1058L68.6155 68.6513L75.5939 67.4811ZM62.2214 61.4523L61.6096 69.729C61.5619 70.3743 61.9815 71.1526 62.5467 71.4675L73.8044 77.739C74.3696 78.0539 74.8665 77.786 74.9142 77.1408L75.5259 68.8642L68.8046 69.9913C68.6269 70.0211 68.4106 69.9006 68.2511 69.683L62.2214 61.4523Z" fill="white"/>
</g>
<defs>
<filter id="filter0_f" x="8" y="119" width="252" height="154" filterUnits="userSpaceOnUse" color-interpolation-filters="sRGB">
<feFlood flood-opacity="0" result="BackgroundImageFix"/>
<feBlend mode="normal" in="SourceGraphic" in2="BackgroundImageFix" result="shape"/>
<feGaussianBlur stdDeviation="2" result="effect1_foregroundBlur"/>
</filter>
<linearGradient id="paint0_linear" x1="17.1901" y1="196.57" x2="266.47" y2="196.57" gradientUnits="userSpaceOnUse">
<stop offset="0.06" stop-color="#838FC7"/>
<stop offset="0.26" stop-color="#8590C8"/>
<stop offset="0.36" stop-color="#8D94CB"/>
<stop offset="0.44" stop-color="#9A9ACF"/>
<stop offset="0.49" stop-color="#A9A1D5"/>
<stop offset="0.51" stop-color="#ADA5D7"/>
<stop offset="0.52" stop-color="#B9B3DD"/>
<stop offset="0.53" stop-color="#CDC8E7"/>
<stop offset="0.55" stop-color="#E9E7F4"/>
<stop offset="0.56" stop-color="white"/>
<stop offset="0.57" stop-color="#E3E0F3"/>
<stop offset="0.58" stop-color="#CDC8EA"/>
<stop offset="0.59" stop-color="#C0B9E5"/>
<stop offset="0.6" stop-color="#BBB4E3"/>
<stop offset="0.61" stop-color="#B6B0E1"/>
<stop offset="0.67" stop-color="#9591D4"/>
<stop offset="0.72" stop-color="#7D7BCB"/>
<stop offset="0.77" stop-color="#6E6EC5"/>
<stop offset="0.81" stop-color="#6969C3"/>
<stop offset="1" stop-color="#868DCC"/>
</linearGradient>
<linearGradient id="paint1_linear" x1="251.706" y1="120.762" x2="77.7811" y2="310.052" gradientUnits="userSpaceOnUse">
<stop stop-color="#285AAD"/>
<stop offset="1" stop-color="#61C5E3"/>
</linearGradient>
<linearGradient id="paint2_linear" x1="251.741" y1="174.1" x2="149.128" y2="342.803" gradientUnits="userSpaceOnUse">
<stop stop-color="#285AAD"/>
<stop offset="1" stop-color="#59D8BC"/>
</linearGradient>
<linearGradient id="paint3_linear" x1="14.5698" y1="295.001" x2="87.5054" y2="71.0591" gradientUnits="userSpaceOnUse">
<stop offset="0.302083" stop-color="white"/>
<stop offset="0.755208" stop-color="#DEE4F7"/>
</linearGradient>
<linearGradient id="paint4_linear" x1="291.831" y1="0.997548" x2="75.1416" y2="126.918" gradientUnits="userSpaceOnUse">
<stop stop-color="#285AAD"/>
<stop offset="1" stop-color="#59D8BC"/>
</linearGradient>
<linearGradient id="paint5_linear" x1="111.06" y1="144.64" x2="283.33" y2="56.4198" gradientUnits="userSpaceOnUse">
<stop stop-color="#292699"/>
<stop offset="0.65" stop-color="#4964CC"/>
<stop offset="1" stop-color="#43E8E1"/>
</linearGradient>
<linearGradient id="paint6_linear" x1="144.81" y1="255.861" x2="323.38" y2="27.3866" gradientUnits="userSpaceOnUse">
<stop offset="0.302083" stop-color="white"/>
<stop offset="0.755208" stop-color="#DEE4F7"/>
</linearGradient>
<radialGradient id="paint7_radial" cx="0" cy="0" r="1" gradientUnits="userSpaceOnUse" gradientTransform="translate(99.3713 143.102) rotate(-19.1556) scale(33.7105 19.8217)">
<stop stop-color="#363885"/>
<stop offset="0.15" stop-color="#272860"/>
<stop offset="0.31" stop-color="#191A3D"/>
<stop offset="0.48" stop-color="#0E0F22"/>
<stop offset="0.65" stop-color="#06060F"/>
<stop offset="0.82" stop-color="#020204"/>
<stop offset="1"/>
</radialGradient>
<linearGradient id="paint8_linear" x1="225.153" y1="135.891" x2="107.603" y2="263.776" gradientUnits="userSpaceOnUse">
<stop stop-color="#285AAD"/>
<stop offset="1" stop-color="#61C5E3"/>
</linearGradient>
<linearGradient id="paint9_linear" x1="113.74" y1="134.93" x2="174.98" y2="231.03" gradientUnits="userSpaceOnUse">
<stop offset="0.06" stop-color="#7984B8"/>
<stop offset="0.25" stop-color="#7B86BA"/>
<stop offset="0.34" stop-color="#838CC0"/>
<stop offset="0.42" stop-color="#9097CB"/>
<stop offset="0.48" stop-color="#A3A6DA"/>
<stop offset="0.53" stop-color="#BBB9ED"/>
<stop offset="0.56" stop-color="#CAC6FA"/>
<stop offset="0.6" stop-color="#B6B5EF"/>
<stop offset="0.69" stop-color="#9599DC"/>
<stop offset="0.78" stop-color="#7D85CE"/>
<stop offset="0.85" stop-color="#6E78C6"/>
<stop offset="0.92" stop-color="#6974C3"/>
</linearGradient>
<linearGradient id="paint10_linear" x1="42.5228" y1="64.1634" x2="151.266" y2="26.4052" gradientUnits="userSpaceOnUse">
<stop stop-color="#4EC1DE"/>
<stop offset="0.03" stop-color="#4DC5DE"/>
<stop offset="0.21" stop-color="#46DFE0"/>
<stop offset="0.32" stop-color="#43E8E1"/>
<stop offset="0.43" stop-color="#42DDDD"/>
<stop offset="0.61" stop-color="#3FC0D1"/>
<stop offset="0.85" stop-color="#3A92BD"/>
<stop offset="1" stop-color="#3772B0"/>
</linearGradient>
<linearGradient id="paint11_linear" x1="151.71" y1="150.84" x2="128.42" y2="97.2299" gradientUnits="userSpaceOnUse">
<stop offset="0.05" stop-color="#77ABD9"/>
<stop offset="0.25" stop-color="#79ABD9"/>
<stop offset="0.35" stop-color="#81ACD8"/>
<stop offset="0.43" stop-color="#8EADD7"/>
<stop offset="0.49" stop-color="#A1AED5"/>
<stop offset="0.51" stop-color="#A5B2D7"/>
<stop offset="0.52" stop-color="#B3BDDD"/>
<stop offset="0.53" stop-color="#C8D0E7"/>
<stop offset="0.55" stop-color="#E7EAF4"/>
<stop offset="0.56" stop-color="white"/>
<stop offset="0.57" stop-color="#E8F0F9"/>
<stop offset="0.58" stop-color="#D0E1F2"/>
<stop offset="0.59" stop-color="#C1D8EE"/>
<stop offset="0.6" stop-color="#BCD5ED"/>
<stop offset="0.62" stop-color="#B6D4EC"/>
<stop offset="0.69" stop-color="#9ECFE7"/>
<stop offset="0.76" stop-color="#8FCCE4"/>
<stop offset="0.81" stop-color="#8ACBE3"/>
<stop offset="1" stop-color="#7FD0F5"/>
</linearGradient>
<linearGradient id="paint12_linear" x1="142.878" y1="160.298" x2="141.647" y2="95.1771" gradientUnits="userSpaceOnUse">
<stop offset="0.22" stop-color="#979CD5"/>
<stop offset="0.37" stop-color="#9BA0D7"/>
<stop offset="0.52" stop-color="#A9ADDC"/>
<stop offset="0.68" stop-color="#BEC1E5"/>
<stop offset="0.85" stop-color="#DDDEF1"/>
<stop offset="1" stop-color="white"/>
</linearGradient>
<radialGradient id="paint13_radial" cx="0" cy="0" r="1" gradientUnits="userSpaceOnUse" gradientTransform="translate(174.17 105.73) scale(15.04)">
<stop stop-color="white"/>
<stop offset="1"/>
</radialGradient>
<clipPath id="clip0">
<rect width="18.7443" height="18.7443" fill="white" transform="matrix(0.873589 0.486664 -0.0737075 0.99728 61.1108 54.854)"/>
</clipPath>
</defs>
</svg>
