<svg width="56" height="56" viewBox="0 0 56 56" fill="none" xmlns="http://www.w3.org/2000/svg">
<path d="M14.2205 9.34427C15.3041 0.484812 21.3052 0.00590172 22.7643 0.00585938C24.2234 0.00581704 26.1689 0.492204 27.3362 2.04861C28.5035 3.60501 28.309 6.23143 28.309 6.23143L25.6825 5.64778C25.6825 5.64778 25.9978 3.14165 23.3479 3.11863C20.6981 3.09561 20.3623 6.46988 20.6407 8.95517C20.9044 11.3107 22.4103 12.3896 24.2234 13.9162C26.2534 15.6254 28.5035 15.0835 30.449 16.6399C32.3945 18.1963 32.7836 20.2391 32.7836 20.2391C32.7836 20.2391 44.5182 23.06 44.5182 30.1611C44.5182 37.2622 39.6901 38.4295 36.4801 38.4295C33.27 38.4295 29.6708 34.9276 29.6708 34.9276C29.6708 34.9276 32.9946 40.4567 36.4801 40.4567C39.9655 40.4567 41.5384 39.1104 41.5384 39.1104C41.5384 39.1104 43.4835 41.5423 43.4835 45.9197C43.4835 50.2971 40.3707 53.0208 40.3707 53.0208C40.3707 53.0208 40.7606 54.0182 41.5384 54.2854C42.3162 54.5526 44.2617 54.869 44.2617 54.869C44.2617 54.869 42.2189 55.5499 40.6173 55.3665C39.0158 55.1831 39.4952 54.5772 38.4502 54.5526C37.4052 54.528 35.7015 55.8418 30.6432 55.8418C25.5849 55.8418 21.4997 51.6589 21.4997 51.6589V55.8418C21.4997 55.8418 12.9391 55.8418 11.7719 55.8418C10.3439 55.8418 12.5856 53.9014 13.0368 52.6317C14.0045 49.908 14.4151 44.5207 15.3714 43.3906C16.4414 42.126 21.7915 44.266 21.7915 44.266C21.7915 44.266 19.3925 41.3478 16.0687 40.8614C15.8742 39.9859 16.0424 35.2574 15.8577 32.8848C15.673 30.5123 14.1232 28.8966 13.8314 26.7565C13.5396 24.6165 12.8422 20.8227 13.4259 20.5309C14.0095 20.2391 16.8305 21.8928 16.8305 21.8928C16.8305 21.8928 13.1369 18.2037 14.2205 9.34427Z" fill="#33C6D9"/>
<path d="M24.5991 19.0435C24.3468 19.0359 24.2404 18.7303 24.4654 18.616C25.0813 18.3032 25.9793 18.0478 26.6719 18.6827C27.3514 19.3055 27.2398 20.0602 27.0279 20.5823C26.9374 20.8052 26.6373 20.7276 26.5858 20.4926C26.509 20.1414 26.3635 19.7363 26.0883 19.461C25.7766 19.1493 25.1321 19.0595 24.5991 19.0435Z" fill="white"/>
</svg>
