<svg width="135" height="135" viewBox="0 0 135 135" fill="none" xmlns="http://www.w3.org/2000/svg">
<g opacity="0.2">
<circle cx="1.5" cy="1.5" r="1.5" fill="#C8D1EF"/>
<circle cx="1.5" cy="25.5" r="1.5" fill="#C8D1EF"/>
<circle cx="1.5" cy="49.5" r="1.5" fill="#C8D1EF"/>
<circle cx="1.5" cy="73.5005" r="1.5" fill="#C8D1EF"/>
<circle cx="1.5" cy="97.5" r="1.5" fill="#C8D1EF"/>
<circle cx="1.5" cy="121.5" r="1.5" fill="#C8D1EF"/>
<circle cx="1.5" cy="13.5005" r="1.5" fill="#C8D1EF"/>
<circle cx="1.5" cy="37.5005" r="1.5" fill="#C8D1EF"/>
<circle cx="1.5" cy="61.5005" r="1.5" fill="#C8D1EF"/>
<circle cx="1.5" cy="85.5" r="1.5" fill="#C8D1EF"/>
<circle cx="1.5" cy="109.5" r="1.5" fill="#C8D1EF"/>
<circle cx="1.5" cy="133.5" r="1.5" fill="#C8D1EF"/>
<circle cx="13.5" cy="1.5" r="1.5" fill="#C8D1EF"/>
<circle cx="13.5" cy="25.5" r="1.5" fill="#C8D1EF"/>
<circle cx="13.5" cy="49.5" r="1.5" fill="#C8D1EF"/>
<circle cx="13.5" cy="73.5005" r="1.5" fill="#C8D1EF"/>
<circle cx="13.5" cy="97.5" r="1.5" fill="#C8D1EF"/>
<circle cx="13.5" cy="121.5" r="1.5" fill="#C8D1EF"/>
<circle cx="13.5" cy="13.5005" r="1.5" fill="#C8D1EF"/>
<circle cx="13.5" cy="37.5005" r="1.5" fill="#C8D1EF"/>
<circle cx="13.5" cy="61.5005" r="1.5" fill="#C8D1EF"/>
<circle cx="13.5" cy="85.5" r="1.5" fill="#C8D1EF"/>
<circle cx="13.5" cy="109.5" r="1.5" fill="#C8D1EF"/>
<circle cx="13.5" cy="133.5" r="1.5" fill="#C8D1EF"/>
<circle cx="25.4995" cy="1.5" r="1.5" fill="#C8D1EF"/>
<circle cx="25.4995" cy="25.5" r="1.5" fill="#C8D1EF"/>
<circle cx="25.4995" cy="49.5" r="1.5" fill="#C8D1EF"/>
<circle cx="25.4995" cy="73.5005" r="1.5" fill="#C8D1EF"/>
<circle cx="25.4995" cy="97.5" r="1.5" fill="#C8D1EF"/>
<circle cx="25.4995" cy="121.5" r="1.5" fill="#C8D1EF"/>
<circle cx="25.4995" cy="13.5005" r="1.5" fill="#C8D1EF"/>
<circle cx="25.4995" cy="37.5005" r="1.5" fill="#C8D1EF"/>
<circle cx="25.4995" cy="61.5005" r="1.5" fill="#C8D1EF"/>
<circle cx="25.4995" cy="85.5" r="1.5" fill="#C8D1EF"/>
<circle cx="25.4995" cy="109.5" r="1.5" fill="#C8D1EF"/>
<circle cx="25.4995" cy="133.5" r="1.5" fill="#C8D1EF"/>
<circle cx="37.5005" cy="1.5" r="1.5" fill="#C8D1EF"/>
<circle cx="37.5005" cy="25.5" r="1.5" fill="#C8D1EF"/>
<circle cx="37.5005" cy="49.5" r="1.5" fill="#C8D1EF"/>
<circle cx="37.5005" cy="73.5005" r="1.5" fill="#C8D1EF"/>
<circle cx="37.5005" cy="97.5" r="1.5" fill="#C8D1EF"/>
<circle cx="37.5005" cy="121.5" r="1.5" fill="#C8D1EF"/>
<circle cx="37.5005" cy="13.5005" r="1.5" fill="#C8D1EF"/>
<circle cx="37.5005" cy="37.5005" r="1.5" fill="#C8D1EF"/>
<circle cx="37.5005" cy="61.5005" r="1.5" fill="#C8D1EF"/>
<circle cx="37.5005" cy="85.5" r="1.5" fill="#C8D1EF"/>
<circle cx="37.5005" cy="109.5" r="1.5" fill="#C8D1EF"/>
<circle cx="37.5005" cy="133.5" r="1.5" fill="#C8D1EF"/>
<circle cx="49.5" cy="1.5" r="1.5" fill="#C8D1EF"/>
<circle cx="49.5" cy="25.5" r="1.5" fill="#C8D1EF"/>
<circle cx="49.5" cy="49.5" r="1.5" fill="#C8D1EF"/>
<circle cx="49.5" cy="73.5005" r="1.5" fill="#C8D1EF"/>
<circle cx="49.5" cy="97.5" r="1.5" fill="#C8D1EF"/>
<circle cx="49.5" cy="121.5" r="1.5" fill="#C8D1EF"/>
<circle cx="49.5" cy="13.5005" r="1.5" fill="#C8D1EF"/>
<circle cx="49.5" cy="37.5005" r="1.5" fill="#C8D1EF"/>
<circle cx="49.5" cy="61.5005" r="1.5" fill="#C8D1EF"/>
<circle cx="49.5" cy="85.5" r="1.5" fill="#C8D1EF"/>
<circle cx="49.5" cy="109.5" r="1.5" fill="#C8D1EF"/>
<circle cx="49.5" cy="133.5" r="1.5" fill="#C8D1EF"/>
<circle cx="61.5" cy="1.5" r="1.5" fill="#C8D1EF"/>
<circle cx="61.5" cy="25.5" r="1.5" fill="#C8D1EF"/>
<circle cx="61.5" cy="49.5" r="1.5" fill="#C8D1EF"/>
<circle cx="61.5" cy="73.5005" r="1.5" fill="#C8D1EF"/>
<circle cx="61.5" cy="97.5" r="1.5" fill="#C8D1EF"/>
<circle cx="61.5" cy="121.5" r="1.5" fill="#C8D1EF"/>
<circle cx="61.5" cy="13.5005" r="1.5" fill="#C8D1EF"/>
<circle cx="61.5" cy="37.5005" r="1.5" fill="#C8D1EF"/>
<circle cx="61.5" cy="61.5005" r="1.5" fill="#C8D1EF"/>
<circle cx="61.5" cy="85.5" r="1.5" fill="#C8D1EF"/>
<circle cx="61.5" cy="109.5" r="1.5" fill="#C8D1EF"/>
<circle cx="61.5" cy="133.5" r="1.5" fill="#C8D1EF"/>
<circle cx="73.4998" cy="1.5" r="1.5" fill="#C8D1EF"/>
<circle cx="73.4998" cy="25.5" r="1.5" fill="#C8D1EF"/>
<circle cx="73.4998" cy="49.5" r="1.5" fill="#C8D1EF"/>
<circle cx="73.4998" cy="73.5005" r="1.5" fill="#C8D1EF"/>
<circle cx="73.4998" cy="97.5" r="1.5" fill="#C8D1EF"/>
<circle cx="73.4998" cy="121.5" r="1.5" fill="#C8D1EF"/>
<circle cx="73.4998" cy="13.5005" r="1.5" fill="#C8D1EF"/>
<circle cx="73.4998" cy="37.5005" r="1.5" fill="#C8D1EF"/>
<circle cx="73.4998" cy="61.5005" r="1.5" fill="#C8D1EF"/>
<circle cx="73.4998" cy="85.5" r="1.5" fill="#C8D1EF"/>
<circle cx="73.4998" cy="109.5" r="1.5" fill="#C8D1EF"/>
<circle cx="73.4998" cy="133.5" r="1.5" fill="#C8D1EF"/>
<circle cx="85.4998" cy="1.5" r="1.5" fill="#C8D1EF"/>
<circle cx="85.4998" cy="25.5" r="1.5" fill="#C8D1EF"/>
<circle cx="85.4998" cy="49.5" r="1.5" fill="#C8D1EF"/>
<circle cx="85.4998" cy="73.5005" r="1.5" fill="#C8D1EF"/>
<circle cx="85.4998" cy="97.5" r="1.5" fill="#C8D1EF"/>
<circle cx="85.4998" cy="121.5" r="1.5" fill="#C8D1EF"/>
<circle cx="85.4998" cy="13.5005" r="1.5" fill="#C8D1EF"/>
<circle cx="85.4998" cy="37.5005" r="1.5" fill="#C8D1EF"/>
<circle cx="85.4998" cy="61.5005" r="1.5" fill="#C8D1EF"/>
<circle cx="85.4998" cy="85.5" r="1.5" fill="#C8D1EF"/>
<circle cx="85.4998" cy="109.5" r="1.5" fill="#C8D1EF"/>
<circle cx="85.4998" cy="133.5" r="1.5" fill="#C8D1EF"/>
<circle cx="97.4998" cy="1.5" r="1.5" fill="#C8D1EF"/>
<circle cx="97.4998" cy="25.5" r="1.5" fill="#C8D1EF"/>
<circle cx="97.4998" cy="49.5" r="1.5" fill="#C8D1EF"/>
<circle cx="97.4998" cy="73.5005" r="1.5" fill="#C8D1EF"/>
<circle cx="97.4998" cy="97.5" r="1.5" fill="#C8D1EF"/>
<circle cx="97.4998" cy="121.5" r="1.5" fill="#C8D1EF"/>
<circle cx="97.4998" cy="13.5005" r="1.5" fill="#C8D1EF"/>
<circle cx="97.4998" cy="37.5005" r="1.5" fill="#C8D1EF"/>
<circle cx="97.4998" cy="61.5005" r="1.5" fill="#C8D1EF"/>
<circle cx="97.4998" cy="85.5" r="1.5" fill="#C8D1EF"/>
<circle cx="97.4998" cy="109.5" r="1.5" fill="#C8D1EF"/>
<circle cx="97.4998" cy="133.5" r="1.5" fill="#C8D1EF"/>
<circle cx="109.5" cy="1.5" r="1.5" fill="#C8D1EF"/>
<circle cx="109.5" cy="25.5" r="1.5" fill="#C8D1EF"/>
<circle cx="109.5" cy="49.5" r="1.5" fill="#C8D1EF"/>
<circle cx="109.5" cy="73.5005" r="1.5" fill="#C8D1EF"/>
<circle cx="109.5" cy="97.5" r="1.5" fill="#C8D1EF"/>
<circle cx="109.5" cy="121.5" r="1.5" fill="#C8D1EF"/>
<circle cx="109.5" cy="13.5005" r="1.5" fill="#C8D1EF"/>
<circle cx="109.5" cy="37.5005" r="1.5" fill="#C8D1EF"/>
<circle cx="109.5" cy="61.5005" r="1.5" fill="#C8D1EF"/>
<circle cx="109.5" cy="85.5" r="1.5" fill="#C8D1EF"/>
<circle cx="109.5" cy="109.5" r="1.5" fill="#C8D1EF"/>
<circle cx="109.5" cy="133.5" r="1.5" fill="#C8D1EF"/>
<circle cx="121.5" cy="1.5" r="1.5" fill="#C8D1EF"/>
<circle cx="121.5" cy="25.5" r="1.5" fill="#C8D1EF"/>
<circle cx="121.5" cy="49.5" r="1.5" fill="#C8D1EF"/>
<circle cx="121.5" cy="73.5005" r="1.5" fill="#C8D1EF"/>
<circle cx="121.5" cy="97.5" r="1.5" fill="#C8D1EF"/>
<circle cx="121.5" cy="121.5" r="1.5" fill="#C8D1EF"/>
<circle cx="121.5" cy="13.5005" r="1.5" fill="#C8D1EF"/>
<circle cx="121.5" cy="37.5005" r="1.5" fill="#C8D1EF"/>
<circle cx="121.5" cy="61.5005" r="1.5" fill="#C8D1EF"/>
<circle cx="121.5" cy="85.5" r="1.5" fill="#C8D1EF"/>
<circle cx="121.5" cy="109.5" r="1.5" fill="#C8D1EF"/>
<circle cx="121.5" cy="133.5" r="1.5" fill="#C8D1EF"/>
<circle cx="133.5" cy="1.5" r="1.5" fill="#C8D1EF"/>
<circle cx="133.5" cy="25.5" r="1.5" fill="#C8D1EF"/>
<circle cx="133.5" cy="49.5" r="1.5" fill="#C8D1EF"/>
<circle cx="133.5" cy="73.5005" r="1.5" fill="#C8D1EF"/>
<circle cx="133.5" cy="97.5" r="1.5" fill="#C8D1EF"/>
<circle cx="133.5" cy="121.5" r="1.5" fill="#C8D1EF"/>
<circle cx="133.5" cy="13.5005" r="1.5" fill="#C8D1EF"/>
<circle cx="133.5" cy="37.5005" r="1.5" fill="#C8D1EF"/>
<circle cx="133.5" cy="61.5005" r="1.5" fill="#C8D1EF"/>
<circle cx="133.5" cy="85.5" r="1.5" fill="#C8D1EF"/>
<circle cx="133.5" cy="109.5" r="1.5" fill="#C8D1EF"/>
<circle cx="133.5" cy="133.5" r="1.5" fill="#C8D1EF"/>
</g>
</svg>
