<svg width="16" height="16" viewBox="0 0 16 16" fill="none" xmlns="http://www.w3.org/2000/svg">
<path d="M8 12.6667C10.5773 12.6667 12.6667 10.5773 12.6667 8C12.6667 5.42267 10.5773 3.33333 8 3.33333C5.42267 3.33333 3.33333 5.42267 3.33333 8C3.33333 10.5773 5.42267 12.6667 8 12.6667ZM8 14C4.68629 14 2 11.3137 2 8C2 4.68629 4.68629 2 8 2C11.3137 2 14 4.68629 14 8C14 11.3137 11.3137 14 8 14ZM5.33333 8C5.33333 8.37076 5.63092 8.66667 5.99802 8.66667H10.002C10.3646 8.66667 10.6667 8.36819 10.6667 8C10.6667 7.62924 10.3691 7.33333 10.002 7.33333H5.99802C5.63536 7.33333 5.33333 7.63181 5.33333 8Z" fill="#C8D1EF"/>
</svg>
