<svg width="136" height="102" viewBox="0 0 136 102" fill="none" xmlns="http://www.w3.org/2000/svg">
<g filter="url(#filter0_f)">
<path d="M13.668 25.6336C13.3049 18.7668 18.7749 13 25.6512 13H110.349C117.225 13 122.695 18.7668 122.332 25.6336L119.583 77.6336C119.246 84.0059 113.981 89 107.599 89H28.4006C22.0194 89 16.7542 84.0059 16.4173 77.6336L13.668 25.6336Z" fill="#40406F" fill-opacity="0.51"/>
</g>
<rect x="8" y="8" width="118" height="78" rx="6" fill="#22222B"/>
<path fill-rule="evenodd" clip-rule="evenodd" d="M32.8347 50.6309C32.8347 51.2424 32.3394 51.7398 31.7303 51.7398H20.2697C19.6606 51.7398 19.1651 51.2424 19.1651 50.6309V41.0581C19.1651 40.4465 19.6606 39.9491 20.2697 39.9491H31.7303C32.3394 39.9491 32.8347 40.4465 32.8347 41.0581V50.6309ZM32.4878 39H19.5122C18.6784 39 18 39.6811 18 40.5183V51.1708C18 52.0078 18.6784 52.6889 19.5122 52.6889H32.4878C33.3216 52.6889 34 52.0078 34 51.1708V40.5183C34 39.6811 33.3216 39 32.4878 39ZM28.3473 43.1453V45.5813H32.3464V42.365H29.1247C28.696 42.365 28.3473 42.715 28.3473 43.1453ZM31.7303 40.4395H26.3015V43.5658H27.8589V43.1453C27.8589 42.4446 28.4268 41.8747 29.1247 41.8747H32.3464V41.0581C32.3464 40.717 32.0701 40.4395 31.7303 40.4395ZM28.3473 48.3277C28.3473 48.758 28.696 49.1081 29.1247 49.1081H32.3464V46.0716H28.3473V48.3277ZM27.8589 44.0562H24.2776V48.3277C24.2776 49.0284 23.7097 49.5985 23.0118 49.5985H19.6535V50.6309C19.6535 50.9721 19.9299 51.2494 20.2697 51.2494H25.6865V47.4528H27.8589V44.0562ZM27.8589 48.3277V47.9431H26.1748V51.2494H31.7303C32.0701 51.2494 32.3464 50.9721 32.3464 50.6309V49.5985H29.1247C28.4268 49.5985 27.8589 49.0284 27.8589 48.3277ZM24.2776 43.1453V43.5658H25.8131V40.4395H20.2697C19.9299 40.4395 19.6535 40.717 19.6535 41.0581V41.8747H23.0118C23.7097 41.8747 24.2776 42.4446 24.2776 43.1453ZM23.7893 48.3277V46.0716H19.6535V49.1081H23.0118C23.4404 49.1081 23.7893 48.758 23.7893 48.3277ZM23.7893 43.1453C23.7893 42.715 23.4404 42.365 23.0118 42.365H19.6535V45.5813H23.7893V43.1453Z" fill="url(#paint0_linear)"/>
<path d="M18.76 25C18.7067 25 18.6587 24.9813 18.616 24.944C18.5787 24.9013 18.56 24.8533 18.56 24.8V19.6C18.56 19.5413 18.5787 19.4933 18.616 19.456C18.6587 19.4187 18.7067 19.4 18.76 19.4H21.2C21.872 19.4 22.3707 19.5387 22.696 19.816C23.0267 20.088 23.192 20.4773 23.192 20.984C23.192 21.2507 23.1227 21.4773 22.984 21.664C22.8507 21.8453 22.6987 21.9787 22.528 22.064C22.7467 22.1653 22.9307 22.328 23.08 22.552C23.2293 22.776 23.304 23.0267 23.304 23.304C23.304 23.8373 23.128 24.2533 22.776 24.552C22.424 24.8507 21.9227 25 21.272 25H18.76ZM21.04 21.624C21.2533 21.624 21.416 21.5707 21.528 21.464C21.64 21.352 21.696 21.2053 21.696 21.024C21.696 20.848 21.64 20.7067 21.528 20.6C21.416 20.4933 21.2533 20.44 21.04 20.44H20V21.624H21.04ZM21.112 23.96C21.3307 23.96 21.5013 23.896 21.624 23.768C21.7467 23.64 21.808 23.4853 21.808 23.304C21.808 23.112 21.7467 22.9547 21.624 22.832C21.5013 22.704 21.3307 22.64 21.112 22.64H20V23.96H21.112ZM25.3528 25.08C25.0701 25.08 24.8115 25.0267 24.5768 24.92C24.3475 24.808 24.1661 24.6587 24.0328 24.472C23.9048 24.28 23.8408 24.0693 23.8408 23.84C23.8408 23.472 23.9901 23.176 24.2888 22.952C24.5928 22.728 25.0088 22.5733 25.5368 22.488L26.5368 22.336V22.224C26.5368 22.0213 26.4941 21.872 26.4088 21.776C26.3235 21.68 26.1795 21.632 25.9768 21.632C25.8541 21.632 25.7528 21.6533 25.6728 21.696C25.5928 21.7387 25.5101 21.7973 25.4248 21.872C25.3501 21.936 25.2941 21.9787 25.2568 22C25.2408 22.0427 25.2115 22.064 25.1688 22.064H24.2968C24.2435 22.064 24.1981 22.048 24.1608 22.016C24.1288 21.9787 24.1155 21.936 24.1208 21.888C24.1261 21.744 24.1955 21.584 24.3288 21.408C24.4675 21.232 24.6755 21.08 24.9528 20.952C25.2355 20.824 25.5821 20.76 25.9928 20.76C26.6488 20.76 27.1341 20.9067 27.4488 21.2C27.7635 21.488 27.9208 21.8773 27.9208 22.368V24.8C27.9208 24.8533 27.9021 24.9013 27.8648 24.944C27.8275 24.9813 27.7795 25 27.7208 25H26.7928C26.7395 25 26.6915 24.9813 26.6488 24.944C26.6115 24.9013 26.5928 24.8533 26.5928 24.8V24.52C26.4755 24.6853 26.3101 24.8213 26.0968 24.928C25.8888 25.0293 25.6408 25.08 25.3528 25.08ZM25.7288 24.168C25.9741 24.168 26.1715 24.088 26.3208 23.928C26.4755 23.768 26.5528 23.5333 26.5528 23.224V23.112L25.8728 23.232C25.3928 23.3173 25.1528 23.4853 25.1528 23.736C25.1528 23.8693 25.2088 23.976 25.3208 24.056C25.4328 24.1307 25.5688 24.168 25.7288 24.168ZM29.0236 25C28.9649 25 28.9169 24.9813 28.8796 24.944C28.8422 24.9067 28.8236 24.8587 28.8236 24.8V21.04C28.8236 20.9813 28.8422 20.9333 28.8796 20.896C28.9169 20.8587 28.9649 20.84 29.0236 20.84H29.9436C30.0022 20.84 30.0502 20.8587 30.0876 20.896C30.1302 20.9333 30.1516 20.9813 30.1516 21.04V21.344C30.2956 21.168 30.4796 21.0267 30.7036 20.92C30.9329 20.8133 31.1916 20.76 31.4796 20.76C31.9489 20.76 32.3302 20.92 32.6236 21.24C32.9169 21.5547 33.0636 21.9973 33.0636 22.568V24.8C33.0636 24.8533 33.0449 24.9013 33.0076 24.944C32.9702 24.9813 32.9222 25 32.8636 25H31.8556C31.8022 25 31.7542 24.9813 31.7116 24.944C31.6742 24.9013 31.6556 24.8533 31.6556 24.8V22.616C31.6556 22.3653 31.5942 22.1733 31.4716 22.04C31.3489 21.9013 31.1729 21.832 30.9436 21.832C30.7196 21.832 30.5436 21.9013 30.4156 22.04C30.2876 22.1733 30.2236 22.3653 30.2236 22.616V24.8C30.2236 24.8533 30.2049 24.9013 30.1676 24.944C30.1302 24.9813 30.0822 25 30.0236 25H29.0236ZM34.1642 25C34.1109 25 34.0629 24.9813 34.0202 24.944C33.9829 24.9013 33.9642 24.8533 33.9642 24.8V19.52C33.9642 19.4613 33.9829 19.4133 34.0202 19.376C34.0629 19.3387 34.1109 19.32 34.1642 19.32H35.0922C35.1509 19.32 35.1989 19.3387 35.2362 19.376C35.2735 19.4133 35.2922 19.4613 35.2922 19.52V22.2L36.4042 20.976C36.4149 20.9653 36.4335 20.9467 36.4602 20.92C36.4922 20.8933 36.5242 20.8747 36.5562 20.864C36.5882 20.848 36.6255 20.84 36.6682 20.84H37.7402C37.7882 20.84 37.8282 20.8587 37.8602 20.896C37.8975 20.928 37.9162 20.968 37.9162 21.016C37.9162 21.0747 37.8949 21.12 37.8522 21.152L36.4122 22.704L38.0522 24.696C38.0949 24.7387 38.1162 24.7787 38.1162 24.816C38.1162 24.8693 38.0975 24.9147 38.0602 24.952C38.0282 24.984 37.9855 25 37.9322 25H36.8362C36.7669 25 36.7135 24.9893 36.6762 24.968C36.6442 24.9467 36.6042 24.912 36.5562 24.864L35.2922 23.344V24.8C35.2922 24.8533 35.2735 24.9013 35.2362 24.944C35.1989 24.9813 35.1509 25 35.0922 25H34.1642ZM42.6919 25.08C41.9293 25.08 41.3319 24.896 40.8999 24.528C40.4733 24.1547 40.2466 23.616 40.2199 22.912C40.2146 22.768 40.2119 22.5333 40.2119 22.208C40.2119 21.8773 40.2146 21.6373 40.2199 21.488C40.2466 20.7947 40.4786 20.2613 40.9159 19.888C41.3533 19.5093 41.9453 19.32 42.6919 19.32C43.1613 19.32 43.5826 19.4 43.9559 19.56C44.3293 19.7147 44.6226 19.9387 44.8359 20.232C45.0546 20.52 45.1666 20.8587 45.1719 21.248V21.264C45.1719 21.3067 45.1533 21.344 45.1159 21.376C45.0839 21.4027 45.0466 21.416 45.0039 21.416H43.9239C43.8546 21.416 43.8013 21.4027 43.7639 21.376C43.7266 21.344 43.6946 21.288 43.6679 21.208C43.5933 20.936 43.4759 20.7467 43.3159 20.64C43.1559 20.528 42.9453 20.472 42.6839 20.472C42.0546 20.472 41.7293 20.824 41.7079 21.528C41.7026 21.672 41.6999 21.8933 41.6999 22.192C41.6999 22.4907 41.7026 22.7173 41.7079 22.872C41.7293 23.576 42.0546 23.928 42.6839 23.928C42.9453 23.928 43.1586 23.872 43.3239 23.76C43.4893 23.6427 43.6039 23.4533 43.6679 23.192C43.6893 23.112 43.7186 23.0587 43.7559 23.032C43.7933 23 43.8493 22.984 43.9239 22.984H45.0039C45.0519 22.984 45.0919 23 45.1239 23.032C45.1613 23.064 45.1773 23.104 45.1719 23.152C45.1666 23.5413 45.0546 23.8827 44.8359 24.176C44.6226 24.464 44.3293 24.688 43.9559 24.848C43.5826 25.0027 43.1613 25.08 42.6919 25.08ZM47.1731 25.08C46.8905 25.08 46.6318 25.0267 46.3971 24.92C46.1678 24.808 45.9865 24.6587 45.8531 24.472C45.7251 24.28 45.6611 24.0693 45.6611 23.84C45.6611 23.472 45.8105 23.176 46.1091 22.952C46.4131 22.728 46.8291 22.5733 47.3571 22.488L48.3571 22.336V22.224C48.3571 22.0213 48.3145 21.872 48.2291 21.776C48.1438 21.68 47.9998 21.632 47.7971 21.632C47.6745 21.632 47.5731 21.6533 47.4931 21.696C47.4131 21.7387 47.3305 21.7973 47.2451 21.872C47.1705 21.936 47.1145 21.9787 47.0771 22C47.0611 22.0427 47.0318 22.064 46.9891 22.064H46.1171C46.0638 22.064 46.0185 22.048 45.9811 22.016C45.9491 21.9787 45.9358 21.936 45.9411 21.888C45.9465 21.744 46.0158 21.584 46.1491 21.408C46.2878 21.232 46.4958 21.08 46.7731 20.952C47.0558 20.824 47.4025 20.76 47.8131 20.76C48.4691 20.76 48.9545 20.9067 49.2691 21.2C49.5838 21.488 49.7411 21.8773 49.7411 22.368V24.8C49.7411 24.8533 49.7225 24.9013 49.6851 24.944C49.6478 24.9813 49.5998 25 49.5411 25H48.6131C48.5598 25 48.5118 24.9813 48.4691 24.944C48.4318 24.9013 48.4131 24.8533 48.4131 24.8V24.52C48.2958 24.6853 48.1305 24.8213 47.9171 24.928C47.7091 25.0293 47.4611 25.08 47.1731 25.08ZM47.5491 24.168C47.7945 24.168 47.9918 24.088 48.1411 23.928C48.2958 23.768 48.3731 23.5333 48.3731 23.224V23.112L47.6931 23.232C47.2131 23.3173 46.9731 23.4853 46.9731 23.736C46.9731 23.8693 47.0291 23.976 47.1411 24.056C47.2531 24.1307 47.3891 24.168 47.5491 24.168ZM50.8439 25C50.7852 25 50.7372 24.9813 50.6999 24.944C50.6625 24.9067 50.6439 24.8587 50.6439 24.8V21.04C50.6439 20.9813 50.6625 20.9333 50.6999 20.896C50.7372 20.8587 50.7852 20.84 50.8439 20.84H51.7639C51.8225 20.84 51.8705 20.8613 51.9079 20.904C51.9505 20.9413 51.9719 20.9867 51.9719 21.04V21.36C52.2652 21.0133 52.6599 20.84 53.1559 20.84H53.5079C53.5665 20.84 53.6145 20.8587 53.6519 20.896C53.6892 20.9333 53.7079 20.9813 53.7079 21.04V21.864C53.7079 21.9173 53.6892 21.9653 53.6519 22.008C53.6145 22.0453 53.5665 22.064 53.5079 22.064H52.7319C52.5132 22.064 52.3425 22.1253 52.2199 22.248C52.1025 22.3653 52.0439 22.5333 52.0439 22.752V24.8C52.0439 24.8587 52.0225 24.9067 51.9799 24.944C51.9425 24.9813 51.8945 25 51.8359 25H50.8439ZM55.7896 25.08C55.267 25.08 54.859 24.9173 54.5656 24.592C54.2776 24.2613 54.1203 23.7973 54.0936 23.2L54.0856 22.92L54.0936 22.632C54.115 22.056 54.2723 21.6 54.5656 21.264C54.8643 20.928 55.2723 20.76 55.7896 20.76C56.275 20.76 56.667 20.9173 56.9656 21.232V19.52C56.9656 19.4613 56.9843 19.4133 57.0216 19.376C57.059 19.3387 57.107 19.32 57.1656 19.32H58.1416C58.2003 19.32 58.2483 19.3387 58.2856 19.376C58.323 19.4133 58.3416 19.4613 58.3416 19.52V24.8C58.3416 24.8533 58.323 24.9013 58.2856 24.944C58.2483 24.9813 58.2003 25 58.1416 25H57.2376C57.1843 25 57.1363 24.9813 57.0936 24.944C57.0563 24.9013 57.0376 24.8533 57.0376 24.8V24.544C56.7443 24.9013 56.3283 25.08 55.7896 25.08ZM56.2296 24.008C56.4696 24.008 56.6483 23.9333 56.7656 23.784C56.883 23.6293 56.9496 23.432 56.9656 23.192C56.971 23.1227 56.9736 23.0213 56.9736 22.888C56.9736 22.76 56.971 22.6613 56.9656 22.592C56.955 22.3733 56.8883 22.192 56.7656 22.048C56.643 21.904 56.4643 21.832 56.2296 21.832C55.979 21.832 55.7976 21.9067 55.6856 22.056C55.579 22.2053 55.5176 22.4107 55.5016 22.672C55.4963 22.7253 55.4936 22.808 55.4936 22.92C55.4936 23.032 55.4963 23.1147 55.5016 23.168C55.5176 23.4293 55.579 23.6347 55.6856 23.784C55.7976 23.9333 55.979 24.008 56.2296 24.008Z" fill="white"/>
<path d="M18.819 68.022C18.765 67.986 18.738 67.932 18.738 67.86C18.738 67.824 18.75 67.788 18.774 67.752C18.774 67.746 18.792 67.725 18.828 67.689L19.44 67.149L18.621 67.068L18.549 67.05C18.501 67.038 18.465 67.005 18.441 66.951C18.423 66.921 18.414 66.888 18.414 66.852C18.414 66.834 18.417 66.816 18.423 66.798L18.63 66.177C18.642 66.129 18.675 66.093 18.729 66.069C18.759 66.051 18.792 66.042 18.828 66.042C18.84 66.042 18.855 66.045 18.873 66.051C18.891 66.051 18.915 66.063 18.945 66.087L19.656 66.501L19.476 65.7L19.467 65.628C19.467 65.58 19.485 65.535 19.521 65.493C19.563 65.451 19.611 65.43 19.665 65.43H20.322C20.376 65.43 20.421 65.451 20.457 65.493C20.499 65.535 20.52 65.58 20.52 65.628L20.511 65.7L20.322 66.51L21.042 66.087L21.114 66.051C21.126 66.045 21.141 66.042 21.159 66.042C21.207 66.042 21.249 66.054 21.285 66.078C21.327 66.102 21.351 66.135 21.357 66.177L21.564 66.798L21.573 66.852C21.573 66.894 21.558 66.936 21.528 66.978C21.504 67.014 21.474 67.038 21.438 67.05L21.366 67.068L20.538 67.149L21.159 67.689C21.195 67.725 21.213 67.746 21.213 67.752C21.237 67.788 21.249 67.824 21.249 67.86C21.249 67.932 21.222 67.986 21.168 68.022L20.646 68.409C20.61 68.427 20.571 68.436 20.529 68.436C20.451 68.436 20.397 68.412 20.367 68.364L20.331 68.301L19.998 67.536L19.665 68.301C19.653 68.325 19.638 68.346 19.62 68.364C19.59 68.412 19.536 68.436 19.458 68.436C19.416 68.436 19.377 68.427 19.341 68.409L18.819 68.022ZM22.8268 68.022C22.7728 67.986 22.7458 67.932 22.7458 67.86C22.7458 67.824 22.7578 67.788 22.7818 67.752C22.7818 67.746 22.7998 67.725 22.8358 67.689L23.4478 67.149L22.6288 67.068L22.5568 67.05C22.5088 67.038 22.4728 67.005 22.4488 66.951C22.4308 66.921 22.4218 66.888 22.4218 66.852C22.4218 66.834 22.4248 66.816 22.4308 66.798L22.6378 66.177C22.6498 66.129 22.6828 66.093 22.7368 66.069C22.7668 66.051 22.7998 66.042 22.8358 66.042C22.8478 66.042 22.8628 66.045 22.8808 66.051C22.8988 66.051 22.9228 66.063 22.9528 66.087L23.6638 66.501L23.4838 65.7L23.4748 65.628C23.4748 65.58 23.4928 65.535 23.5288 65.493C23.5708 65.451 23.6188 65.43 23.6728 65.43H24.3298C24.3838 65.43 24.4288 65.451 24.4648 65.493C24.5068 65.535 24.5278 65.58 24.5278 65.628L24.5188 65.7L24.3298 66.51L25.0498 66.087L25.1218 66.051C25.1338 66.045 25.1488 66.042 25.1668 66.042C25.2148 66.042 25.2568 66.054 25.2928 66.078C25.3348 66.102 25.3588 66.135 25.3648 66.177L25.5718 66.798L25.5808 66.852C25.5808 66.894 25.5658 66.936 25.5358 66.978C25.5118 67.014 25.4818 67.038 25.4458 67.05L25.3738 67.068L24.5458 67.149L25.1668 67.689C25.2028 67.725 25.2208 67.746 25.2208 67.752C25.2448 67.788 25.2568 67.824 25.2568 67.86C25.2568 67.932 25.2298 67.986 25.1758 68.022L24.6538 68.409C24.6178 68.427 24.5788 68.436 24.5368 68.436C24.4588 68.436 24.4048 68.412 24.3748 68.364L24.3388 68.301L24.0058 67.536L23.6728 68.301C23.6608 68.325 23.6458 68.346 23.6278 68.364C23.5978 68.412 23.5438 68.436 23.4658 68.436C23.4238 68.436 23.3848 68.427 23.3488 68.409L22.8268 68.022ZM26.8346 68.022C26.7806 67.986 26.7536 67.932 26.7536 67.86C26.7536 67.824 26.7656 67.788 26.7896 67.752C26.7896 67.746 26.8076 67.725 26.8436 67.689L27.4556 67.149L26.6366 67.068L26.5646 67.05C26.5166 67.038 26.4806 67.005 26.4566 66.951C26.4386 66.921 26.4296 66.888 26.4296 66.852C26.4296 66.834 26.4326 66.816 26.4386 66.798L26.6456 66.177C26.6576 66.129 26.6906 66.093 26.7446 66.069C26.7746 66.051 26.8076 66.042 26.8436 66.042C26.8556 66.042 26.8706 66.045 26.8886 66.051C26.9066 66.051 26.9306 66.063 26.9606 66.087L27.6716 66.501L27.4916 65.7L27.4826 65.628C27.4826 65.58 27.5006 65.535 27.5366 65.493C27.5786 65.451 27.6266 65.43 27.6806 65.43H28.3376C28.3916 65.43 28.4366 65.451 28.4726 65.493C28.5146 65.535 28.5356 65.58 28.5356 65.628L28.5266 65.7L28.3376 66.51L29.0576 66.087L29.1296 66.051C29.1416 66.045 29.1566 66.042 29.1746 66.042C29.2226 66.042 29.2646 66.054 29.3006 66.078C29.3426 66.102 29.3666 66.135 29.3726 66.177L29.5796 66.798L29.5886 66.852C29.5886 66.894 29.5736 66.936 29.5436 66.978C29.5196 67.014 29.4896 67.038 29.4536 67.05L29.3816 67.068L28.5536 67.149L29.1746 67.689C29.2106 67.725 29.2286 67.746 29.2286 67.752C29.2526 67.788 29.2646 67.824 29.2646 67.86C29.2646 67.932 29.2376 67.986 29.1836 68.022L28.6616 68.409C28.6256 68.427 28.5866 68.436 28.5446 68.436C28.4666 68.436 28.4126 68.412 28.3826 68.364L28.3466 68.301L28.0136 67.536L27.6806 68.301C27.6686 68.325 27.6536 68.346 27.6356 68.364C27.6056 68.412 27.5516 68.436 27.4736 68.436C27.4316 68.436 27.3926 68.427 27.3566 68.409L26.8346 68.022ZM30.8424 68.022C30.7884 67.986 30.7614 67.932 30.7614 67.86C30.7614 67.824 30.7734 67.788 30.7974 67.752C30.7974 67.746 30.8154 67.725 30.8514 67.689L31.4634 67.149L30.6444 67.068L30.5724 67.05C30.5244 67.038 30.4884 67.005 30.4644 66.951C30.4464 66.921 30.4374 66.888 30.4374 66.852C30.4374 66.834 30.4404 66.816 30.4464 66.798L30.6534 66.177C30.6654 66.129 30.6984 66.093 30.7524 66.069C30.7824 66.051 30.8154 66.042 30.8514 66.042C30.8634 66.042 30.8784 66.045 30.8964 66.051C30.9144 66.051 30.9384 66.063 30.9684 66.087L31.6794 66.501L31.4994 65.7L31.4904 65.628C31.4904 65.58 31.5084 65.535 31.5444 65.493C31.5864 65.451 31.6344 65.43 31.6884 65.43H32.3454C32.3994 65.43 32.4444 65.451 32.4804 65.493C32.5224 65.535 32.5434 65.58 32.5434 65.628L32.5344 65.7L32.3454 66.51L33.0654 66.087L33.1374 66.051C33.1494 66.045 33.1644 66.042 33.1824 66.042C33.2304 66.042 33.2724 66.054 33.3084 66.078C33.3504 66.102 33.3744 66.135 33.3804 66.177L33.5874 66.798L33.5964 66.852C33.5964 66.894 33.5814 66.936 33.5514 66.978C33.5274 67.014 33.4974 67.038 33.4614 67.05L33.3894 67.068L32.5614 67.149L33.1824 67.689C33.2184 67.725 33.2364 67.746 33.2364 67.752C33.2604 67.788 33.2724 67.824 33.2724 67.86C33.2724 67.932 33.2454 67.986 33.1914 68.022L32.6694 68.409C32.6334 68.427 32.5944 68.436 32.5524 68.436C32.4744 68.436 32.4204 68.412 32.3904 68.364L32.3544 68.301L32.0214 67.536L31.6884 68.301C31.6764 68.325 31.6614 68.346 31.6434 68.364C31.6134 68.412 31.5594 68.436 31.4814 68.436C31.4394 68.436 31.4004 68.427 31.3644 68.409L30.8424 68.022ZM38.8869 72.09C38.3589 72.09 37.9089 72.006 37.5369 71.838C37.1709 71.67 36.8949 71.46 36.7089 71.208C36.5289 70.95 36.4329 70.686 36.4209 70.416C36.4209 70.362 36.4389 70.32 36.4749 70.29C36.5169 70.254 36.5649 70.236 36.6189 70.236H37.4289C37.5609 70.236 37.6479 70.296 37.6899 70.416C37.8219 70.848 38.2239 71.064 38.8959 71.064C39.2619 71.064 39.5499 70.98 39.7599 70.812C39.9699 70.638 40.0749 70.392 40.0749 70.074C40.0749 69.474 39.6999 69.174 38.9499 69.174H38.0229C37.9569 69.174 37.9029 69.153 37.8609 69.111C37.8189 69.069 37.7979 69.018 37.7979 68.958V68.58C37.7979 68.484 37.8399 68.394 37.9239 68.31L39.5349 66.735H36.9609C36.9009 66.735 36.8499 66.714 36.8079 66.672C36.7659 66.63 36.7449 66.579 36.7449 66.519V65.925C36.7449 65.859 36.7629 65.805 36.7989 65.763C36.8409 65.721 36.8949 65.7 36.9609 65.7H40.8219C40.8879 65.7 40.9419 65.721 40.9839 65.763C41.0259 65.805 41.0469 65.859 41.0469 65.925V66.465C41.0469 66.555 41.0079 66.639 40.9299 66.717L39.3729 68.319L39.4809 68.328C40.0569 68.376 40.5129 68.55 40.8489 68.85C41.1909 69.15 41.3619 69.579 41.3619 70.137C41.3619 70.533 41.2539 70.878 41.0379 71.172C40.8279 71.466 40.5339 71.694 40.1559 71.856C39.7839 72.012 39.3609 72.09 38.8869 72.09ZM44.5558 72.09C44.0278 72.09 43.5778 72.006 43.2058 71.838C42.8398 71.67 42.5638 71.46 42.3778 71.208C42.1978 70.95 42.1018 70.686 42.0898 70.416C42.0898 70.362 42.1078 70.32 42.1438 70.29C42.1858 70.254 42.2338 70.236 42.2878 70.236H43.0978C43.2298 70.236 43.3168 70.296 43.3588 70.416C43.4908 70.848 43.8928 71.064 44.5648 71.064C44.9308 71.064 45.2188 70.98 45.4288 70.812C45.6388 70.638 45.7438 70.392 45.7438 70.074C45.7438 69.474 45.3688 69.174 44.6188 69.174H43.6918C43.6258 69.174 43.5718 69.153 43.5298 69.111C43.4878 69.069 43.4668 69.018 43.4668 68.958V68.58C43.4668 68.484 43.5088 68.394 43.5928 68.31L45.2038 66.735H42.6298C42.5698 66.735 42.5188 66.714 42.4768 66.672C42.4348 66.63 42.4138 66.579 42.4138 66.519V65.925C42.4138 65.859 42.4318 65.805 42.4678 65.763C42.5098 65.721 42.5638 65.7 42.6298 65.7H46.4908C46.5568 65.7 46.6108 65.721 46.6528 65.763C46.6948 65.805 46.7158 65.859 46.7158 65.925V66.465C46.7158 66.555 46.6768 66.639 46.5988 66.717L45.0418 68.319L45.1498 68.328C45.7258 68.376 46.1818 68.55 46.5178 68.85C46.8598 69.15 47.0308 69.579 47.0308 70.137C47.0308 70.533 46.9228 70.878 46.7068 71.172C46.4968 71.466 46.2028 71.694 45.8248 71.856C45.4528 72.012 45.0298 72.09 44.5558 72.09ZM48.0468 72C47.9868 72 47.9358 71.979 47.8938 71.937C47.8518 71.895 47.8308 71.844 47.8308 71.784V71.325C47.8308 71.163 47.9058 71.022 48.0558 70.902L49.4778 69.489C50.0958 69.003 50.5248 68.625 50.7648 68.355C51.0108 68.079 51.1338 67.809 51.1338 67.545C51.1338 67.263 51.0558 67.041 50.8998 66.879C50.7498 66.717 50.5218 66.636 50.2158 66.636C49.9158 66.636 49.6788 66.726 49.5048 66.906C49.3308 67.08 49.2228 67.308 49.1808 67.59C49.1628 67.662 49.1298 67.716 49.0818 67.752C49.0338 67.782 48.9798 67.797 48.9198 67.797H48.1188C48.0648 67.797 48.0198 67.779 47.9838 67.743C47.9478 67.707 47.9298 67.665 47.9298 67.617C47.9418 67.263 48.0378 66.933 48.2178 66.627C48.3978 66.315 48.6588 66.066 49.0008 65.88C49.3428 65.688 49.7448 65.592 50.2068 65.592C50.6868 65.592 51.0918 65.676 51.4218 65.844C51.7578 66.006 52.0098 66.231 52.1778 66.519C52.3458 66.807 52.4298 67.134 52.4298 67.5C52.4298 67.902 52.3158 68.265 52.0878 68.589C51.8658 68.913 51.5238 69.261 51.0618 69.633L49.7838 70.929H52.3488C52.4148 70.929 52.4658 70.95 52.5018 70.992C52.5438 71.028 52.5648 71.079 52.5648 71.145V71.784C52.5648 71.844 52.5438 71.895 52.5018 71.937C52.4658 71.979 52.4148 72 52.3488 72H48.0468ZM53.619 72C53.559 72 53.508 71.979 53.466 71.937C53.424 71.895 53.403 71.844 53.403 71.784V71.325C53.403 71.163 53.478 71.022 53.628 70.902L55.05 69.489C55.668 69.003 56.097 68.625 56.337 68.355C56.583 68.079 56.706 67.809 56.706 67.545C56.706 67.263 56.628 67.041 56.472 66.879C56.322 66.717 56.094 66.636 55.788 66.636C55.488 66.636 55.251 66.726 55.077 66.906C54.903 67.08 54.795 67.308 54.753 67.59C54.735 67.662 54.702 67.716 54.654 67.752C54.606 67.782 54.552 67.797 54.492 67.797H53.691C53.637 67.797 53.592 67.779 53.556 67.743C53.52 67.707 53.502 67.665 53.502 67.617C53.514 67.263 53.61 66.933 53.79 66.627C53.97 66.315 54.231 66.066 54.573 65.88C54.915 65.688 55.317 65.592 55.779 65.592C56.259 65.592 56.664 65.676 56.994 65.844C57.33 66.006 57.582 66.231 57.75 66.519C57.918 66.807 58.002 67.134 58.002 67.5C58.002 67.902 57.888 68.265 57.66 68.589C57.438 68.913 57.096 69.261 56.634 69.633L55.356 70.929H57.921C57.987 70.929 58.038 70.95 58.074 70.992C58.116 71.028 58.137 71.079 58.137 71.145V71.784C58.137 71.844 58.116 71.895 58.074 71.937C58.038 71.979 57.987 72 57.921 72H53.619Z" fill="white"/>
<path d="M104.412 68.2286C104.399 69.1998 105.374 69.7417 106.109 70.064C106.865 70.3946 107.118 70.6066 107.115 70.9022C107.11 71.3548 106.513 71.5545 105.954 71.5622C104.98 71.5758 104.414 71.3256 103.963 71.1363L103.612 72.6138C104.064 72.8012 104.901 72.9645 105.769 72.9717C107.805 72.9717 109.138 72.0673 109.145 70.665C109.153 68.8853 106.409 68.7868 106.427 67.9913C106.434 67.7501 106.69 67.4927 107.25 67.4272C107.528 67.3942 108.294 67.3689 109.162 67.7287L109.503 66.2992C109.036 66.1462 108.436 65.9996 107.688 65.9996C105.771 65.9996 104.423 66.9164 104.412 68.2286ZM112.779 66.1228C112.407 66.1228 112.093 66.318 111.953 66.6175L109.044 72.8667H111.079L111.484 71.8598H113.971L114.206 72.8667H116L114.435 66.1228H112.779ZM113.063 67.9446L113.651 70.4769H112.042L113.063 67.9446ZM101.945 66.1228L100.34 72.8667H102.28L103.883 66.1228H101.945ZM99.0756 66.1228L97.057 70.7129L96.2405 66.81C96.1446 66.3744 95.7663 66.1228 95.3461 66.1228H92.0461L92 66.3186C92.6774 66.4509 93.4471 66.6642 93.9134 66.8924C94.1988 67.0318 94.2802 67.1537 94.3739 67.4849L95.9205 72.8667H97.9701L101.112 66.1228H99.0756Z" fill="white"/>
<defs>
<filter id="filter0_f" x="0.650879" y="0" width="134.698" height="102" filterUnits="userSpaceOnUse" color-interpolation-filters="sRGB">
<feFlood flood-opacity="0" result="BackgroundImageFix"/>
<feBlend mode="normal" in="SourceGraphic" in2="BackgroundImageFix" result="shape"/>
<feGaussianBlur stdDeviation="6.5" result="effect1_foregroundBlur"/>
</filter>
<linearGradient id="paint0_linear" x1="18" y1="39" x2="35.8245" y2="49.6295" gradientUnits="userSpaceOnUse">
<stop stop-color="#6A7E9C"/>
<stop offset="1" stop-color="#BACCE6"/>
</linearGradient>
</defs>
</svg>
