<svg width="16" height="14" viewBox="0 0 16 14" fill="none" xmlns="http://www.w3.org/2000/svg">
<path fill-rule="evenodd" clip-rule="evenodd" d="M14.8347 11.6309C14.8347 12.2424 14.3394 12.7398 13.7303 12.7398H2.26966C1.66065 12.7398 1.1651 12.2424 1.1651 11.6309V2.05812C1.1651 1.4465 1.66065 0.949132 2.26966 0.949132H13.7303C14.3394 0.949132 14.8347 1.4465 14.8347 2.05812V11.6309ZM14.4878 0H1.5122C0.678369 0 0 0.681083 0 1.51825V12.1708C0 13.0078 0.678369 13.6889 1.5122 13.6889H14.4878C15.3216 13.6889 16 13.0078 16 12.1708V1.51825C16 0.681083 15.3216 0 14.4878 0ZM10.3473 4.14531V6.58129H14.3464V3.36502H11.1247C10.696 3.36502 10.3473 3.71496 10.3473 4.14531ZM13.7303 1.43947H8.30148V4.56584H9.85894V4.14531C9.85894 3.44462 10.4268 2.87467 11.1247 2.87467H14.3464V2.05812C14.3464 1.71701 14.0701 1.43947 13.7303 1.43947ZM10.3473 9.32767C10.3473 9.75802 10.696 10.1081 11.1247 10.1081H14.3464V7.07164H10.3473V9.32767ZM9.85894 5.05618H6.27765V9.32767C6.27765 10.0284 5.70966 10.5985 5.01176 10.5985H1.65347V11.6309C1.65347 11.9721 1.92991 12.2494 2.26966 12.2494H7.68646V8.45276H9.85894V5.05618ZM9.85894 9.32767V8.94308H8.17483V12.2494H13.7303C14.0701 12.2494 14.3464 11.9721 14.3464 11.6309V10.5985H11.1247C10.4268 10.5985 9.85894 10.0284 9.85894 9.32767ZM6.27765 4.14531V4.56584H7.81311V1.43947H2.26966C1.92991 1.43947 1.65347 1.71701 1.65347 2.05812V2.87467H5.01176C5.70966 2.87467 6.27765 3.44462 6.27765 4.14531ZM5.78928 9.32767V7.07164H1.65347V10.1081H5.01176C5.4404 10.1081 5.78928 9.75802 5.78928 9.32767ZM5.78928 4.14531C5.78928 3.71496 5.4404 3.36502 5.01176 3.36502H1.65347V6.58129H5.78928V4.14531Z" fill="url(#paint0_linear)"/>
<defs>
<linearGradient id="paint0_linear" x1="0" y1="0" x2="17.8245" y2="10.6295" gradientUnits="userSpaceOnUse">
<stop stop-color="#6A7E9C"/>
<stop offset="1" stop-color="#BACCE6"/>
</linearGradient>
</defs>
</svg>
