<svg width="16" height="16" viewBox="0 0 16 16" fill="none" xmlns="http://www.w3.org/2000/svg">
<path d="M3.70135 6.32618H10.613L9.61753 7.25246C9.34604 7.50508 9.34604 7.91559 9.61753 8.16821C9.75327 8.29452 9.93427 8.35768 10.1153 8.35768C10.2963 8.35768 10.4659 8.29452 10.613 8.16821L12.7962 6.13672C13.0677 5.88409 13.0677 5.47358 12.7962 5.22096L10.6017 3.18947C10.3302 2.93684 9.88902 2.93684 9.61753 3.18947C9.34604 3.44209 9.34604 3.8526 9.61753 4.10522L10.613 5.0315H3.70135C3.31674 5.0315 3 5.32622 3 5.6841C3 6.04198 3.31674 6.32618 3.70135 6.32618Z" fill="#C8D1EF"/>
<path d="M12.2986 9.67383H5.387L6.38246 8.74755C6.65394 8.49493 6.65394 8.08442 6.38246 7.8318C6.11097 7.57918 5.6698 7.57918 5.39831 7.8318L3.21509 9.8633C3.07935 9.98961 3.01147 10.1475 3.01147 10.3264C3.01147 10.4949 3.07935 10.6633 3.21509 10.7896L5.39831 12.8105C5.53405 12.9369 5.71505 13 5.89604 13C6.07703 13 6.24671 12.9369 6.39377 12.8105C6.66526 12.5579 6.66526 12.1474 6.39377 11.8948L5.39831 10.9685H12.2986C12.6832 10.9685 13 10.6738 13 10.3159C12.9887 9.96856 12.6832 9.67383 12.2986 9.67383Z" fill="#C8D1EF"/>
</svg>
