<svg width="22" height="20" viewBox="0 0 22 20" fill="none" xmlns="http://www.w3.org/2000/svg">
<path fill-rule="evenodd" clip-rule="evenodd" d="M1.71 2.54002C1.32 2.15002 1.32 1.52002 1.71 1.13002C2.1 0.740024 2.74 0.740024 3.13 1.13002L19.44 17.46C19.83 17.85 19.83 18.48 19.44 18.87C19.05 19.26 18.42 19.26 18.03 18.87L15.31 16.15C13.97 16.67 12.52 16.97 11 16.97C6 16.97 1.73 13.86 0 9.47002C0.77 7.50002 2.06 5.80002 3.68 4.51002L1.71 2.54002ZM16 9.47002C16 6.71002 13.76 4.47002 11 4.47002C10.49 4.47002 10 4.57002 9.53 4.71002L7.36 2.54002C8.51 2.17002 9.73 1.97002 11 1.97002C16 1.97002 20.27 5.08002 22 9.46002C21.31 11.22 20.21 12.76 18.82 13.99L15.76 10.93C15.9 10.47 16 9.98002 16 9.47002ZM11 14.47C8.24 14.47 6 12.23 6 9.47002C6 8.70002 6.18 7.97002 6.49 7.33002L8.06 8.90002C8.03 9.08002 8 9.27002 8 9.47002C8 11.13 9.34 12.47 11 12.47C11.2 12.47 11.38 12.44 11.57 12.4L13.14 13.97C12.49 14.29 11.77 14.47 11 14.47ZM13.97 9.14002C13.82 7.74002 12.72 6.65002 11.33 6.50002L13.97 9.14002Z" fill="#C8D1EF"/>
</svg>
