<svg width="24" height="16" viewBox="0 0 24 16" fill="none" xmlns="http://www.w3.org/2000/svg">
<path d="M15.2446 1.61548H8.75537V13.4904H15.2446V1.61548Z" fill="#8E90AF"/>
<path d="M9.16737 7.55291C9.16737 5.14017 10.2798 3.00017 11.9897 1.61546C10.733 0.608401 9.14676 -3.05176e-05 7.4163 -3.05176e-05C3.31673 -3.05176e-05 0 3.37781 0 7.55291C0 11.728 3.31673 15.1059 7.4163 15.1059C9.14676 15.1059 10.733 14.4974 11.9897 13.4904C10.2798 12.1266 9.16737 9.96566 9.16737 7.55291Z" fill="#565772"/>
<path d="M23.9999 7.55294C23.9999 11.728 20.6832 15.1059 16.5836 15.1059C14.8532 15.1059 13.2669 14.4975 12.0103 13.4904C13.7407 12.1057 14.8326 9.96569 14.8326 7.55294C14.8326 5.1402 13.7201 3.0002 12.0103 1.61549C13.2669 0.608432 14.8532 0 16.5836 0C20.6832 0 23.9999 3.39883 23.9999 7.55294Z" fill="#7B7D9E"/>
</svg>
