<svg width="16" height="16" viewBox="0 0 16 16" fill="none" xmlns="http://www.w3.org/2000/svg">
<path fill-rule="evenodd" clip-rule="evenodd" d="M5.33333 3.99992V3.33325C5.33333 2.22868 6.22876 1.33325 7.33333 1.33325H8.66667C9.77124 1.33325 10.6667 2.22868 10.6667 3.33325V3.99992H13.3333C13.7015 3.99992 14 4.2984 14 4.66658C14 5.03477 13.7015 5.33325 13.3333 5.33325H12.6667V12.6666C12.6667 13.7712 11.7712 14.6666 10.6667 14.6666H5.33333C4.22876 14.6666 3.33333 13.7712 3.33333 12.6666V5.33325H2.66667C2.29848 5.33325 2 5.03477 2 4.66658C2 4.2984 2.29848 3.99992 2.66667 3.99992H5.33333ZM6.66667 3.33325C6.66667 2.96506 6.96514 2.66659 7.33333 2.66659H8.66667C9.03486 2.66659 9.33333 2.96506 9.33333 3.33325V3.99992H6.66667V3.33325ZM4.66667 5.33325V12.6666C4.66667 13.0348 4.96514 13.3333 5.33333 13.3333H10.6667C11.0349 13.3333 11.3333 13.0348 11.3333 12.6666V5.33325H4.66667Z" fill="#C8D1EF"/>
</svg>
