<svg width="24" height="24" viewBox="0 0 24 24" fill="none" xmlns="http://www.w3.org/2000/svg">
<path fill-rule="evenodd" clip-rule="evenodd" d="M0 1C0 0.447716 0.447715 0 1 0H23C23.5523 0 24 0.447715 24 1V23C24 23.5523 23.5523 24 23 24H1C0.447716 24 0 23.5523 0 23V1Z" fill="white"/>
<path fill-rule="evenodd" clip-rule="evenodd" d="M2.04656 9.30083H1.05882V12.7387H2.03373C2.55979 12.7387 2.9317 12.6231 3.26526 12.341C3.65012 12.0204 3.89379 11.5328 3.89379 11.0197C3.89379 10.0064 3.13689 9.30083 2.04656 9.30083ZM2.8291 11.892C2.61109 12.0717 2.34152 12.1614 1.90549 12.1614H1.72595V9.89088H1.90549C2.34152 9.89088 2.59814 9.96782 2.8291 10.1602C3.05994 10.3654 3.20114 10.6862 3.20114 11.0197C3.20101 11.3532 3.05994 11.6868 2.8291 11.892ZM4.2017 12.7388H4.8687V9.30083H4.2017V12.7388ZM6.51061 10.6221C6.1001 10.4682 5.98468 10.3785 5.98468 10.186C5.98468 9.96795 6.2027 9.81405 6.48496 9.81405C6.69015 9.81405 6.85699 9.891 7.02371 10.0834L7.38292 9.63451C7.08784 9.3779 6.74157 9.24965 6.36954 9.24965C5.75384 9.24965 5.29203 9.67299 5.29203 10.2374C5.29203 10.712 5.51005 10.943 6.1387 11.1738C6.40814 11.2636 6.53638 11.3277 6.6005 11.3662C6.74157 11.4561 6.8057 11.5842 6.8057 11.7254C6.8057 12.0077 6.58768 12.2129 6.27977 12.2129C5.97185 12.2129 5.70254 12.0461 5.54852 11.751L5.12531 12.1744C5.43323 12.6232 5.80514 12.8286 6.31824 12.8286C7.01089 12.8286 7.49847 12.3668 7.49847 11.6998C7.49834 11.1481 7.2675 10.9043 6.51061 10.6221ZM7.70366 11.0197C7.70366 12.0331 8.49903 12.8156 9.52511 12.8156C9.80738 12.8156 10.0639 12.7642 10.359 12.6231V11.8277C10.0895 12.0971 9.85868 12.2126 9.55076 12.2126C8.88376 12.2126 8.39631 11.7123 8.39631 11.0196C8.39631 10.3654 8.89659 9.83945 9.52511 9.83945C9.84585 9.83945 10.0895 9.95487 10.359 10.2243V9.44177C10.0767 9.28775 9.83303 9.22375 9.53794 9.22375C8.52455 9.22388 7.70366 10.0321 7.70366 11.0197Z" fill="black"/>
<path fill-rule="evenodd" clip-rule="evenodd" d="M12.45 9.22388C11.4365 9.22388 10.6154 10.0192 10.6154 10.994C10.6154 12.046 11.398 12.8156 12.45 12.8156C13.4759 12.8156 14.2843 12.0331 14.2843 11.0197C14.2844 10.0192 13.4889 9.22388 12.45 9.22388Z" fill="#DB8135"/>
<path fill-rule="evenodd" clip-rule="evenodd" d="M12.45 9.22388C11.4365 9.22388 10.6154 10.0192 10.6154 10.994C10.6154 12.046 11.398 12.8156 12.45 12.8156C13.4759 12.8156 14.2843 12.0331 14.2843 11.0197C14.2844 10.0192 13.4889 9.22388 12.45 9.22388ZM12.45 11.0197H14.2843H12.45Z" fill="#DB8135"/>
<path fill-rule="evenodd" clip-rule="evenodd" d="M12.45 11.0197H14.2843C14.2843 10.0191 13.4888 9.22388 12.45 9.22388C11.4365 9.22388 10.6154 10.0192 10.6154 10.994C10.6154 12.046 11.398 12.8156 12.45 12.8156C13.4759 12.8156 14.2843 12.0331 14.2843 11.0197H12.45Z" fill="#DB8135"/>
<path fill-rule="evenodd" clip-rule="evenodd" d="M12.45 11.0197H14.2843C14.2843 10.0191 13.4888 9.22388 12.45 9.22388C11.4365 9.22388 10.6154 10.0192 10.6154 10.994C10.6154 12.046 11.398 12.8156 12.45 12.8156C13.4759 12.8156 14.2843 12.0331 14.2843 11.0197H12.45Z" fill="#DB8137"/>
<path fill-rule="evenodd" clip-rule="evenodd" d="M12.45 11.0197H14.2843C14.2843 10.0191 13.4888 9.22388 12.45 9.22388C11.4365 9.22388 10.6154 10.0192 10.6154 10.994C10.6154 12.046 11.398 12.8156 12.45 12.8156C13.4759 12.8156 14.2843 12.0331 14.2843 11.0197H12.45Z" fill="#DC8337"/>
<path fill-rule="evenodd" clip-rule="evenodd" d="M12.45 11.0197H14.2843C14.2843 10.0191 13.4888 9.22388 12.45 9.22388C11.4365 9.22388 10.6154 10.0192 10.6154 10.994C10.6154 12.046 11.398 12.8156 12.45 12.8156C13.4759 12.8156 14.2843 12.0331 14.2843 11.0197H12.45Z" fill="#DC8539"/>
<path fill-rule="evenodd" clip-rule="evenodd" d="M12.45 11.0197H14.2843C14.2843 10.0191 13.4888 9.22388 12.45 9.22388C11.4365 9.22388 10.6154 10.0192 10.6154 10.994C10.6154 12.046 11.398 12.8156 12.45 12.8156C13.4759 12.8156 14.2843 12.0331 14.2843 11.0197H12.45Z" fill="#DC853A"/>
<path fill-rule="evenodd" clip-rule="evenodd" d="M12.45 11.0197H14.2843C14.2843 10.0191 13.4888 9.22388 12.45 9.22388C11.4365 9.22388 10.6154 10.0192 10.6154 10.994C10.6154 12.046 11.398 12.8156 12.45 12.8156C13.4759 12.8156 14.2843 12.0331 14.2843 11.0197H12.45Z" fill="#DC853C"/>
<path fill-rule="evenodd" clip-rule="evenodd" d="M12.45 11.0197H14.2843C14.2843 10.0191 13.4888 9.22388 12.45 9.22388C11.4365 9.22388 10.6154 10.0192 10.6154 10.994C10.6154 12.046 11.398 12.8156 12.45 12.8156C13.4759 12.8156 14.2843 12.0331 14.2843 11.0197H12.45Z" fill="#DD873E"/>
<path fill-rule="evenodd" clip-rule="evenodd" d="M12.45 11.0197H14.2843C14.2843 10.0191 13.4888 9.22388 12.45 9.22388C11.4365 9.22388 10.6154 10.0192 10.6154 10.994C10.6154 12.046 11.398 12.8156 12.45 12.8156C13.4759 12.8156 14.2843 12.0331 14.2843 11.0197H12.45Z" fill="#DD873E"/>
<path fill-rule="evenodd" clip-rule="evenodd" d="M12.45 11.0197H14.2843C14.2843 10.0191 13.4888 9.22388 12.45 9.22388C11.4365 9.22388 10.6154 10.0192 10.6154 10.994C10.6154 12.046 11.398 12.8156 12.45 12.8156C13.4759 12.8156 14.2843 12.0331 14.2843 11.0197H12.45Z" fill="#DD883F"/>
<path fill-rule="evenodd" clip-rule="evenodd" d="M12.45 11.0197H14.2843C14.2843 10.0191 13.4888 9.22388 12.45 9.22388C11.4365 9.22388 10.6154 10.0192 10.6154 10.994C10.6154 12.046 11.398 12.8156 12.45 12.8156C13.4759 12.8156 14.2843 12.0331 14.2843 11.0197H12.45Z" fill="#DD8841"/>
<path fill-rule="evenodd" clip-rule="evenodd" d="M12.45 11.0197H14.2843C14.2843 10.0191 13.4888 9.22388 12.45 9.22388C11.4365 9.22388 10.6154 10.0192 10.6154 10.994C10.6154 12.046 11.398 12.8156 12.45 12.8156C13.4759 12.8156 14.2843 12.0331 14.2843 11.0197H12.45Z" fill="#DE8A41"/>
<path fill-rule="evenodd" clip-rule="evenodd" d="M12.45 11.0197H14.2843C14.2843 10.0191 13.4888 9.22388 12.45 9.22388C11.4365 9.22388 10.6154 10.0192 10.6154 10.994C10.6154 12.046 11.398 12.8156 12.45 12.8156C13.4759 12.8156 14.2843 12.0331 14.2843 11.0197H12.45Z" fill="#DE8A43"/>
<path fill-rule="evenodd" clip-rule="evenodd" d="M12.45 11.0197H14.2843C14.2843 10.0191 13.4888 9.22388 12.45 9.22388C11.4365 9.22388 10.6154 10.0192 10.6154 10.994C10.6154 12.046 11.398 12.8156 12.45 12.8156C13.4759 12.8156 14.2843 12.0331 14.2843 11.0197H12.45Z" fill="#DE8A44"/>
<path fill-rule="evenodd" clip-rule="evenodd" d="M12.45 11.0197H14.2843C14.2843 10.0191 13.4888 9.22388 12.45 9.22388C11.4365 9.22388 10.6154 10.0192 10.6154 10.994C10.6154 12.046 11.398 12.8156 12.45 12.8156C13.4759 12.8156 14.2843 12.0331 14.2843 11.0197H12.45Z" fill="#DE8C46"/>
<path fill-rule="evenodd" clip-rule="evenodd" d="M12.45 11.0197H14.2842H12.45ZM14.2844 11.0197C14.2844 11.0041 14.2841 10.9886 14.2836 10.973V10.9724C14.2833 10.9571 14.2827 10.9418 14.2819 10.9266V10.9253C14.2811 10.9104 14.2802 10.8954 14.279 10.8805C14.279 10.8799 14.279 10.8792 14.2788 10.8786C14.2778 10.864 14.2766 10.8493 14.2752 10.8347C14.2749 10.8338 14.2749 10.833 14.2749 10.8322C14.2734 10.8178 14.2717 10.8035 14.2698 10.7892V10.7888C14.2681 10.7752 14.2662 10.7616 14.2642 10.748C14.264 10.7466 14.2637 10.7453 14.2637 10.7439C14.2615 10.7304 14.2593 10.7171 14.2569 10.7037L14.2561 10.6992L14.2522 10.6774L14.2471 10.6516L14.2445 10.6393C14.2423 10.6288 14.2402 10.6184 14.2377 10.6081C14.2367 10.6032 14.2352 10.5985 14.2343 10.5936L14.227 10.5645L14.2196 10.5371L14.216 10.5236C14.2134 10.5141 14.2104 10.5046 14.2078 10.4951L14.2034 10.4803C13.9763 9.74782 13.2934 9.22375 12.4501 9.22375C11.7078 9.22375 11.0689 9.65057 10.78 10.2619C10.6731 10.4958 10.617 10.7498 10.6157 11.007C10.6171 11.2292 10.6535 11.4388 10.7199 11.6309L10.7256 11.647L10.7281 11.6537C10.7989 11.8457 10.9014 12.0245 11.0313 12.1826C11.3613 12.5763 11.8638 12.8155 12.4501 12.8155C13.2837 12.8155 13.9733 12.299 14.2029 11.5617L14.2146 11.5221V11.522C14.2481 11.4041 14.2696 11.2832 14.2789 11.161L14.2791 11.1608C14.2801 11.1453 14.2814 11.1298 14.282 11.1142V11.1141C14.2835 11.0826 14.2843 11.0512 14.2844 11.0197Z" fill="#DF8E47"/>
<path fill-rule="evenodd" clip-rule="evenodd" d="M12.45 11.0197H14.2714C14.2714 10.3219 13.8719 9.71793 13.2909 9.41612C13.0409 9.2931 12.7561 9.22388 12.45 9.22388C12.0559 9.22388 11.6915 9.34428 11.3925 9.54822C10.9309 9.87606 10.6283 10.4123 10.6283 11.0197C10.6283 11.6878 10.9946 12.2759 11.5357 12.5929C11.8013 12.7359 12.1114 12.8156 12.45 12.8156C12.8768 12.8156 13.2656 12.6801 13.5744 12.4493C13.9977 12.1146 14.2714 11.597 14.2714 11.0197H12.45Z" fill="#DF8E48"/>
<path fill-rule="evenodd" clip-rule="evenodd" d="M12.45 11.0197H14.2457C14.2457 10.0319 13.4376 9.22388 12.45 9.22388C12.4344 9.22388 12.4191 9.22413 12.4038 9.2245H12.4025C11.4366 9.24977 10.6539 10.0479 10.6539 11.0197C10.6535 11.3957 10.7702 11.7626 10.9878 12.0693C11.2054 12.3759 11.5132 12.6072 11.8683 12.7309C12.0493 12.7861 12.2444 12.8157 12.4499 12.8157C12.7006 12.8157 12.9382 12.7688 13.1543 12.6835C13.4788 12.543 13.755 12.3106 13.949 12.015C14.1429 11.7193 14.246 11.3734 14.2455 11.0198H12.45V11.0197Z" fill="#DF8E4A"/>
<path fill-rule="evenodd" clip-rule="evenodd" d="M12.45 11.0198H14.233C14.233 10.0449 13.4375 9.23669 12.45 9.23669C11.4621 9.23669 10.6668 10.0449 10.6668 11.0198C10.6662 11.2541 10.712 11.4862 10.8015 11.7028C10.8909 11.9194 11.0222 12.1161 11.1879 12.2818C11.3536 12.4475 11.5504 12.5788 11.767 12.6682C11.9836 12.7577 12.2157 12.8034 12.45 12.8029C12.6843 12.8034 12.9164 12.7576 13.1329 12.6682C13.3495 12.5787 13.5462 12.4474 13.7119 12.2817C13.8775 12.1161 14.0089 11.9193 14.0983 11.7027C14.1877 11.4862 14.2335 11.2541 14.233 11.0198H12.45Z" fill="#DF904A"/>
<path fill-rule="evenodd" clip-rule="evenodd" d="M12.45 11.0198H14.2201C14.2201 10.0449 13.4246 9.26233 12.45 9.26233C11.4749 9.26233 10.6796 10.0449 10.6796 11.0198C10.6796 11.9948 11.4749 12.7901 12.45 12.7901C13.4246 12.7901 14.2201 11.9947 14.2201 11.0198H12.45Z" fill="#E0914C"/>
<path fill-rule="evenodd" clip-rule="evenodd" d="M12.45 11.0198H14.2072C14.2072 10.0577 13.4119 9.27527 12.45 9.27527C11.4878 9.27527 10.6924 10.0577 10.6924 11.0198C10.6924 11.9948 11.4878 12.7772 12.45 12.7772C13.4121 12.7772 14.2072 11.9948 14.2072 11.0198H12.45Z" fill="#E0914E"/>
<path fill-rule="evenodd" clip-rule="evenodd" d="M12.45 11.0197H14.1817C14.1817 10.0704 13.4119 9.28784 12.45 9.28784C11.4878 9.28784 10.718 10.0704 10.718 11.0197C10.718 11.9817 11.4878 12.7642 12.45 12.7642C13.4121 12.7642 14.1817 11.9817 14.1817 11.0197H12.45Z" fill="#DF924F"/>
<path fill-rule="evenodd" clip-rule="evenodd" d="M12.45 11.0198H14.1688C14.1688 10.0705 13.3991 9.3009 12.45 9.3009C11.5006 9.3009 10.7309 10.0706 10.7309 11.0198C10.7309 11.9689 11.5006 12.7387 12.45 12.7387C13.3991 12.7387 14.1688 11.9689 14.1688 11.0198H12.45Z" fill="#E09351"/>
<path fill-rule="evenodd" clip-rule="evenodd" d="M12.45 11.0197H14.1559C14.1559 10.0833 13.3862 9.32654 12.45 9.32654C11.5134 9.32654 10.7437 10.0833 10.7437 11.0197C10.7437 11.969 11.5134 12.7259 12.45 12.7259C13.3863 12.7259 14.1559 11.969 14.1559 11.0197H12.45Z" fill="#E09552"/>
<path fill-rule="evenodd" clip-rule="evenodd" d="M12.45 11.0197H14.1304C14.1304 10.0963 13.3862 9.33936 12.45 9.33936C11.5134 9.33936 10.7565 10.0963 10.7565 11.0197C10.7565 11.9562 11.5134 12.7129 12.45 12.7129C13.3863 12.7129 14.1304 11.9562 14.1304 11.0197H12.45Z" fill="#E09554"/>
<path fill-rule="evenodd" clip-rule="evenodd" d="M12.45 11.0197H14.1175C14.1179 10.8006 14.0751 10.5836 13.9914 10.3811C13.9078 10.1786 13.785 9.99461 13.63 9.83968C13.4751 9.68475 13.2911 9.56193 13.0886 9.47828C12.8861 9.39462 12.6691 9.35177 12.45 9.35218C12.2309 9.35173 12.0138 9.39456 11.8113 9.47821C11.6088 9.56185 11.4247 9.68466 11.2698 9.8396C11.1149 9.99453 10.992 10.1785 10.9084 10.3811C10.8247 10.5836 10.7819 10.8006 10.7823 11.0197C10.7823 11.9433 11.5262 12.7002 12.45 12.7002C13.3733 12.7002 14.1175 11.9433 14.1175 11.0197H12.45Z" fill="#E09555"/>
<path fill-rule="evenodd" clip-rule="evenodd" d="M12.45 11.0197H14.1046C14.1046 10.1089 13.3606 9.36499 12.45 9.36499C11.5391 9.36499 10.795 10.1089 10.795 11.0197C10.795 11.9433 11.5391 12.6746 12.45 12.6746C12.6674 12.6751 12.8828 12.6327 13.0838 12.5497C13.2848 12.4667 13.4675 12.3448 13.6212 12.191C13.775 12.0373 13.8968 11.8546 13.9798 11.6536C14.0627 11.4526 14.1051 11.2372 14.1046 11.0197H12.45Z" fill="#E19756"/>
<path fill-rule="evenodd" clip-rule="evenodd" d="M12.45 11.0197H14.0918C14.0918 10.1219 13.3608 9.39062 12.45 9.39062C11.5391 9.39062 10.8079 10.1219 10.8079 11.0197C10.8073 11.2355 10.8493 11.4494 10.9316 11.6489C11.0138 11.8484 11.1348 12.0297 11.2874 12.1823C11.44 12.3349 11.6213 12.4558 11.8208 12.538C12.0203 12.6203 12.2342 12.6623 12.45 12.6616C12.6658 12.6623 12.8796 12.6203 13.0791 12.538C13.2786 12.4557 13.4598 12.3348 13.6124 12.1822C13.765 12.0296 13.8859 11.8483 13.9682 11.6488C14.0504 11.4493 14.0924 11.2355 14.0918 11.0197H12.45Z" fill="#E19757"/>
<path fill-rule="evenodd" clip-rule="evenodd" d="M12.45 11.0197H14.0661C14.0661 10.1219 13.3477 9.40344 12.45 9.40344C11.5519 9.40344 10.8208 10.1219 10.8208 11.0197C10.8208 11.9177 11.552 12.6488 12.45 12.6488C13.3478 12.6488 14.0661 11.9175 14.0661 11.0197H12.45Z" fill="#E29959"/>
<path fill-rule="evenodd" clip-rule="evenodd" d="M12.45 11.0197H14.0533C14.0533 10.1346 13.3349 9.41626 12.45 9.41626C11.5647 9.41626 10.8464 10.1346 10.8464 11.0197C10.8464 11.9048 11.5648 12.636 12.45 12.636C13.3349 12.636 14.0533 11.9048 14.0533 11.0197H12.45Z" fill="#E2995B"/>
<path fill-rule="evenodd" clip-rule="evenodd" d="M12.45 11.0198H14.0403C14.0403 10.1476 13.3219 9.4292 12.45 9.4292C11.5775 9.4292 10.8592 10.1476 10.8592 11.0198C10.8592 11.9049 11.5777 12.6104 12.45 12.6104C13.322 12.6104 14.0403 11.9049 14.0403 11.0198H12.45Z" fill="#E29B5B"/>
<path fill-rule="evenodd" clip-rule="evenodd" d="M12.45 11.0198H14.0278C14.0278 10.1603 13.3221 9.45483 12.45 9.45483C11.5775 9.45483 10.8721 10.1603 10.8721 11.0198C10.8721 11.8921 11.5777 12.5976 12.45 12.5976C13.3221 12.5976 14.0278 11.892 14.0278 11.0198H12.45Z" fill="#E29B5D"/>
<path fill-rule="evenodd" clip-rule="evenodd" d="M12.45 11.0197H14.002C14.0024 10.8157 13.9625 10.6137 13.8847 10.4253C13.8068 10.2368 13.6925 10.0655 13.5483 9.92131C13.4041 9.7771 13.2329 9.66279 13.0444 9.58492C12.8559 9.50705 12.6539 9.46715 12.45 9.46753C11.5904 9.46753 10.8977 10.1602 10.8977 11.0197C10.8977 11.8792 11.5904 12.5848 12.45 12.5848C13.3093 12.5848 14.002 11.8792 14.002 11.0197H12.45Z" fill="#E39D5F"/>
<path fill-rule="evenodd" clip-rule="evenodd" d="M12.45 11.0197H13.989C13.989 10.173 13.2965 9.48035 12.45 9.48035C11.6032 9.48035 10.9105 10.173 10.9105 11.0197C10.9105 11.8792 11.6032 12.5718 12.45 12.5718C13.2965 12.5718 13.989 11.8792 13.989 11.0197H12.45Z" fill="#E39D61"/>
<path fill-rule="evenodd" clip-rule="evenodd" d="M12.45 11.0198H13.9765C13.9765 10.1859 13.2965 9.49329 12.45 9.49329C11.6032 9.49329 10.9234 10.1859 10.9234 11.0198C10.9234 11.8664 11.6032 12.5463 12.45 12.5463C13.2965 12.5463 13.9765 11.8664 13.9765 11.0198H12.45Z" fill="#E39F63"/>
<path fill-rule="evenodd" clip-rule="evenodd" d="M12.45 11.0198H13.9635C13.9635 10.1859 13.2836 9.51892 12.45 9.51892C11.616 9.51892 10.9362 10.1859 10.9362 11.0198C10.9362 11.8536 11.616 12.5336 12.45 12.5336C13.2836 12.5336 13.9635 11.8536 13.9635 11.0198H12.45Z" fill="#E39F63"/>
<path fill-rule="evenodd" clip-rule="evenodd" d="M12.45 11.0198H13.9377C13.9377 10.1989 13.271 9.53174 12.45 9.53174C11.6288 9.53174 10.9618 10.1987 10.9618 11.0198C10.9618 11.8536 11.6288 12.5206 12.45 12.5206C13.271 12.5206 13.9377 11.8536 13.9377 11.0198H12.45Z" fill="#E39F64"/>
<path fill-rule="evenodd" clip-rule="evenodd" d="M12.45 11.0197H13.9252C13.9252 10.2117 13.271 9.54456 12.45 9.54456C11.6288 9.54456 10.9747 10.2117 10.9747 11.0197C10.9747 11.8408 11.6288 12.5079 12.45 12.5079C13.271 12.5079 13.9252 11.8408 13.9252 11.0197H12.45Z" fill="#E4A166"/>
<path fill-rule="evenodd" clip-rule="evenodd" d="M12.45 11.0197H13.9122C13.9122 10.2117 13.258 9.55737 12.45 9.55737C11.6417 9.55737 10.9875 10.2115 10.9875 11.0197C10.9875 11.8279 11.6417 12.4822 12.45 12.4822C13.258 12.4822 13.9122 11.8279 13.9122 11.0197H12.45Z" fill="#E4A367"/>
<path fill-rule="evenodd" clip-rule="evenodd" d="M12.45 11.0197H13.8994C13.8994 10.2245 13.2452 9.58301 12.45 9.58301C11.6545 9.58301 11.0003 10.2244 11.0003 11.0197C11.0003 11.8279 11.6545 12.4693 12.45 12.4693C13.2452 12.4693 13.8994 11.8279 13.8994 11.0197H12.45Z" fill="#E4A369"/>
<path fill-rule="evenodd" clip-rule="evenodd" d="M12.45 11.0197H13.8739C13.8739 10.2373 13.2452 9.59583 12.45 9.59583C11.6545 9.59583 11.026 10.2373 11.026 11.0197C11.026 11.8151 11.6545 12.4564 12.45 12.4564C13.2452 12.4564 13.8739 11.8151 13.8739 11.0197H12.45Z" fill="#E4A36A"/>
<path fill-rule="evenodd" clip-rule="evenodd" d="M12.45 11.0197H13.8609C13.8615 10.8343 13.8253 10.6506 13.7546 10.4791C13.6839 10.3077 13.58 10.1519 13.4489 10.0208C13.3177 9.88968 13.162 9.78576 12.9906 9.71503C12.8191 9.64429 12.6354 9.60814 12.45 9.60865C12.2645 9.60809 12.0808 9.64421 11.9093 9.71492C11.7379 9.78563 11.5821 9.88955 11.4509 10.0207C11.3198 10.1518 11.2158 10.3076 11.1451 10.4791C11.0744 10.6505 11.0383 10.8343 11.0388 11.0197C11.0388 11.8023 11.6673 12.4436 12.45 12.4436C13.2323 12.4436 13.8609 11.8023 13.8609 11.0197H12.45Z" fill="#E5A56C"/>
<path fill-rule="evenodd" clip-rule="evenodd" d="M12.45 11.0197H13.8481C13.8481 10.2501 13.2194 9.62158 12.45 9.62158C11.6801 9.62158 11.0516 10.2501 11.0516 11.0197C11.0516 11.7894 11.6801 12.4179 12.45 12.4179C13.2194 12.4179 13.8481 11.7894 13.8481 11.0197H12.45Z" fill="#E5A56C"/>
<path fill-rule="evenodd" clip-rule="evenodd" d="M12.45 11.0197H13.8352C13.8352 10.2629 13.2068 9.64722 12.45 9.64722C11.693 9.64722 11.0644 10.2629 11.0644 11.0197C11.0644 11.7894 11.693 12.405 12.45 12.405C13.2068 12.405 13.8352 11.7894 13.8352 11.0197H12.45Z" fill="#E5A76E"/>
<path fill-rule="evenodd" clip-rule="evenodd" d="M12.45 11.0198H13.8096C13.8096 10.2759 13.2067 9.66016 12.45 9.66016C11.693 9.66016 11.0902 10.2759 11.0902 11.0198C11.0902 11.7767 11.6931 12.3924 12.45 12.3924C13.2067 12.3924 13.8096 11.7767 13.8096 11.0198H12.45Z" fill="#E5A770"/>
<path fill-rule="evenodd" clip-rule="evenodd" d="M12.45 11.0198H13.7967C13.7967 10.2758 13.1938 9.67297 12.45 9.67297C11.7058 9.67297 11.1029 10.2758 11.1029 11.0198C11.1029 11.7639 11.7058 12.3667 12.45 12.3667C13.1939 12.3667 13.7967 11.7639 13.7967 11.0198H12.45Z" fill="#E6A970"/>
<path fill-rule="evenodd" clip-rule="evenodd" d="M12.45 11.0198H13.7838C13.7838 10.2887 13.181 9.68579 12.45 9.68579C11.7186 9.68579 11.1157 10.2887 11.1157 11.0198C11.1157 11.7639 11.7186 12.3538 12.45 12.3538C13.181 12.3538 13.7838 11.7639 13.7838 11.0198H12.45Z" fill="#E6A972"/>
<path fill-rule="evenodd" clip-rule="evenodd" d="M12.45 11.0198H13.7712C13.7712 10.3015 13.181 9.71143 12.45 9.71143C11.7186 9.71143 11.1286 10.3015 11.1286 11.0198C11.1283 11.1934 11.1623 11.3653 11.2286 11.5257C11.295 11.6862 11.3923 11.8319 11.5151 11.9547C11.6378 12.0774 11.7836 12.1747 11.944 12.241C12.1044 12.3073 12.2764 12.3413 12.45 12.3411C12.6236 12.3413 12.7955 12.3073 12.9559 12.241C13.1163 12.1746 13.262 12.0773 13.3847 11.9546C13.5075 11.8318 13.6048 11.6861 13.6711 11.5257C13.7374 11.3653 13.7714 11.1933 13.7712 11.0198H12.45Z" fill="#E6AB74"/>
<path fill-rule="evenodd" clip-rule="evenodd" d="M12.45 11.0198H13.7454C13.7458 10.8495 13.7127 10.6809 13.6477 10.5235C13.5828 10.3661 13.4874 10.2231 13.367 10.1027C13.2466 9.98233 13.1036 9.88691 12.9463 9.82196C12.7889 9.75701 12.6202 9.7238 12.45 9.72425C12.2797 9.72376 12.111 9.75693 11.9536 9.82186C11.7962 9.88679 11.6531 9.98219 11.5327 10.1026C11.4123 10.223 11.3169 10.366 11.2519 10.5234C11.187 10.6808 11.1537 10.8495 11.1542 11.0198C11.1542 11.7382 11.7314 12.3283 12.45 12.3283C13.1682 12.3283 13.7454 11.7382 13.7454 11.0198H12.45Z" fill="#E6AB75"/>
<path fill-rule="evenodd" clip-rule="evenodd" d="M12.45 11.0198H13.7326C13.7326 10.3142 13.1555 9.73706 12.45 9.73706C11.7444 9.73706 11.167 10.3143 11.167 11.0198C11.167 11.7382 11.7443 12.3026 12.45 12.3026C12.6186 12.3032 12.7857 12.2704 12.9415 12.2061C13.0974 12.1418 13.2391 12.0474 13.3583 11.9281C13.4775 11.8089 13.5719 11.6672 13.6362 11.5113C13.7004 11.3554 13.7332 11.1884 13.7326 11.0198H12.45Z" fill="#E7AD77"/>
<path fill-rule="evenodd" clip-rule="evenodd" d="M12.45 11.0198H13.7199C13.7199 10.3271 13.1555 9.74988 12.45 9.74988C11.7444 9.74988 11.1799 10.3271 11.1799 11.0198C11.1799 11.7253 11.7443 12.2897 12.45 12.2897C12.6169 12.2904 12.7824 12.2581 12.9368 12.1945C13.0912 12.1309 13.2314 12.0374 13.3495 11.9193C13.4676 11.8012 13.5611 11.661 13.6246 11.5066C13.6882 11.3522 13.7206 11.1867 13.7199 11.0198H12.45Z" fill="#E7AD77"/>
<path fill-rule="evenodd" clip-rule="evenodd" d="M12.45 11.0197H13.707C13.707 10.3271 13.1426 9.77539 12.45 9.77539C11.7572 9.77539 11.1927 10.3271 11.1927 11.0197C11.1927 11.7125 11.7571 12.2769 12.45 12.2769C13.1425 12.2769 13.707 11.7125 13.707 11.0197H12.45Z" fill="#E8AF79"/>
<path fill-rule="evenodd" clip-rule="evenodd" d="M12.45 11.0197H13.6813C13.6813 10.3399 13.1297 9.78833 12.45 9.78833C11.77 9.78833 11.2183 10.3399 11.2183 11.0197C11.2183 11.7125 11.7699 12.2641 12.45 12.2641C13.1297 12.2641 13.6813 11.7125 13.6813 11.0197H12.45Z" fill="#E8AF7B"/>
<path fill-rule="evenodd" clip-rule="evenodd" d="M12.45 11.0197H13.6686C13.6686 10.3527 13.1297 9.80103 12.45 9.80103C11.77 9.80103 11.2312 10.3527 11.2312 11.0197C11.2312 11.6995 11.7699 12.2384 12.45 12.2384C13.1297 12.2384 13.6686 11.6997 13.6686 11.0197H12.45Z" fill="#E8B17B"/>
<path fill-rule="evenodd" clip-rule="evenodd" d="M12.45 11.0197H13.6557C13.6559 10.8613 13.6248 10.7045 13.5643 10.5581C13.5037 10.4117 13.4149 10.2788 13.3029 10.1668C13.1909 10.0548 13.058 9.96595 12.9116 9.90541C12.7652 9.84488 12.6084 9.8138 12.45 9.81397C12.2916 9.81377 12.1347 9.84482 11.9883 9.90534C11.8419 9.96586 11.7089 10.0547 11.5969 10.1667C11.4848 10.2787 11.396 10.4117 11.3354 10.558C11.2749 10.7044 11.2438 10.8613 11.244 11.0197C11.2438 11.1781 11.2749 11.335 11.3354 11.4814C11.396 11.6278 11.4848 11.7608 11.5968 11.8728C11.7088 11.9849 11.8419 12.0737 11.9883 12.1342C12.1347 12.1947 12.2916 12.2258 12.45 12.2256C12.6084 12.2257 12.7652 12.1946 12.9116 12.1341C13.058 12.0735 13.1909 11.9847 13.3029 11.8727C13.4149 11.7607 13.5037 11.6277 13.5643 11.4813C13.6248 11.335 13.6559 11.1781 13.6557 11.0197H12.45Z" fill="#E8B17D"/>
<path fill-rule="evenodd" clip-rule="evenodd" d="M12.45 11.0197H13.6428C13.6428 10.3655 13.1042 9.8396 12.45 9.8396C11.7957 9.8396 11.2568 10.3655 11.2568 11.0197C11.2568 11.6739 11.7956 12.2128 12.45 12.2128C13.1042 12.2128 13.6428 11.674 13.6428 11.0197H12.45Z" fill="#E8B17E"/>
<path fill-rule="evenodd" clip-rule="evenodd" d="M12.45 11.0197H13.6173C13.6173 10.3784 13.0912 9.85242 12.45 9.85242C12.2965 9.8519 12.1445 9.88173 12.0026 9.9402C11.8608 9.99868 11.7319 10.0846 11.6234 10.1931C11.5149 10.3016 11.4289 10.4305 11.3704 10.5724C11.3119 10.7142 11.2821 10.8663 11.2826 11.0197C11.2826 11.6739 11.7957 12.1998 12.45 12.1998C13.0912 12.1998 13.6173 11.6739 13.6173 11.0197H12.45Z" fill="#E9B381"/>
<path fill-rule="evenodd" clip-rule="evenodd" d="M12.45 11.0197H13.6043C13.6049 10.8679 13.5755 10.7175 13.5177 10.5772C13.46 10.4368 13.375 10.3093 13.2676 10.202C13.1603 10.0947 13.0328 10.0096 12.8925 9.95185C12.7521 9.89405 12.6017 9.86462 12.45 9.86524C12.2982 9.8646 12.1478 9.89402 12.0074 9.95181C11.867 10.0096 11.7395 10.0946 11.6322 10.2019C11.5248 10.3093 11.4398 10.4368 11.382 10.5771C11.3242 10.7175 11.2948 10.8679 11.2954 11.0197C11.2948 11.1715 11.3242 11.3219 11.382 11.4623C11.4398 11.6026 11.5248 11.7302 11.6322 11.8375C11.7395 11.9448 11.867 12.0299 12.0074 12.0877C12.1478 12.1455 12.2982 12.1749 12.45 12.1743C12.6017 12.1749 12.7521 12.1454 12.8925 12.0876C13.0328 12.0298 13.1603 11.9448 13.2676 11.8374C13.375 11.7301 13.46 11.6026 13.5177 11.4622C13.5755 11.3219 13.6049 11.1715 13.6043 11.0197H12.45Z" fill="#E9B381"/>
<path fill-rule="evenodd" clip-rule="evenodd" d="M12.45 11.0197H13.5915C13.5915 10.3912 13.0784 9.87805 12.45 9.87805C11.8213 9.87805 11.3082 10.3912 11.3082 11.0197C11.3082 11.6482 11.8213 12.1613 12.45 12.1613C13.0784 12.1613 13.5915 11.6482 13.5915 11.0197H12.45Z" fill="#E9B583"/>
<path fill-rule="evenodd" clip-rule="evenodd" d="M12.45 11.0197H13.5788C13.5788 10.404 13.0654 9.90369 12.45 9.90369C11.8341 9.90369 11.321 10.404 11.321 11.0197C11.321 11.6482 11.8341 12.1485 12.45 12.1485C13.0654 12.1485 13.5788 11.6482 13.5788 11.0197H12.45Z" fill="#E9B584"/>
<path fill-rule="evenodd" clip-rule="evenodd" d="M12.45 11.0198H13.553C13.553 10.4169 13.0654 9.91663 12.45 9.91663C11.8342 9.91663 11.3467 10.4169 11.3467 11.0198C11.3467 11.6355 11.8342 12.1358 12.45 12.1358C13.0654 12.1358 13.553 11.6355 13.553 11.0198H12.45Z" fill="#EAB786"/>
<path fill-rule="evenodd" clip-rule="evenodd" d="M12.45 11.0198H13.5402C13.5403 10.8766 13.5122 10.7347 13.4575 10.6024C13.4027 10.4701 13.3224 10.3498 13.2212 10.2485C13.1199 10.1473 12.9997 10.067 12.8674 10.0122C12.735 9.95745 12.5932 9.92933 12.45 9.92944C11.847 9.92944 11.3595 10.4169 11.3595 11.0198C11.3595 11.6226 11.847 12.1101 12.45 12.1101C12.5932 12.1102 12.735 12.0821 12.8674 12.0273C12.9997 11.9726 13.1199 11.8923 13.2212 11.791C13.3224 11.6897 13.4027 11.5695 13.4575 11.4372C13.5122 11.3048 13.5403 11.163 13.5402 11.0198H12.45Z" fill="#EAB788"/>
<path fill-rule="evenodd" clip-rule="evenodd" d="M12.45 11.0198H13.5272C13.5272 10.4297 13.0399 9.94226 12.45 9.94226C11.8598 9.94226 11.3723 10.4297 11.3723 11.0198C11.3723 11.6226 11.8598 12.0973 12.45 12.0973C13.0399 12.0973 13.5272 11.6226 13.5272 11.0198H12.45Z" fill="#EBB989"/>
<path fill-rule="evenodd" clip-rule="evenodd" d="M12.45 11.0196H13.5147C13.5147 10.4424 13.04 9.96777 12.45 9.96777C11.8598 9.96777 11.3852 10.4424 11.3852 11.0196C11.3848 11.1596 11.4121 11.2982 11.4655 11.4275C11.5189 11.5568 11.5973 11.6744 11.6963 11.7733C11.7952 11.8722 11.9127 11.9506 12.0421 12.004C12.1714 12.0574 12.31 12.0847 12.45 12.0843C12.5899 12.0847 12.7285 12.0574 12.8578 12.004C12.9871 11.9506 13.1047 11.8722 13.2036 11.7732C13.3025 11.6743 13.3809 11.5568 13.4343 11.4275C13.4877 11.2981 13.515 11.1595 13.5147 11.0196H12.45Z" fill="#EBB98A"/>
<path fill-rule="evenodd" clip-rule="evenodd" d="M12.45 11.0198H13.4889C13.4895 10.8832 13.463 10.7478 13.411 10.6215C13.359 10.4952 13.2825 10.3804 13.1859 10.2838C13.0893 10.1872 12.9745 10.1107 12.8482 10.0587C12.7219 10.0067 12.5866 9.98016 12.45 9.98072C11.8726 9.98072 11.4108 10.4424 11.4108 11.0198C11.4108 11.5971 11.8726 12.0717 12.45 12.0717C13.0271 12.0717 13.4889 11.5971 13.4889 11.0198H12.45Z" fill="#EBBB8C"/>
<path fill-rule="evenodd" clip-rule="evenodd" d="M12.45 11.0197H13.4759C13.4759 10.4553 13.0144 9.99353 12.45 9.99353C11.8855 9.99353 11.4236 10.4552 11.4236 11.0197C11.4236 11.597 11.8855 12.0461 12.45 12.0461C13.0144 12.0461 13.4759 11.5971 13.4759 11.0197H12.45Z" fill="#EBBB8C"/>
<path fill-rule="evenodd" clip-rule="evenodd" d="M12.45 11.0197H13.4634C13.4634 10.4682 13.0145 10.0063 12.45 10.0063C11.8854 10.0063 11.4365 10.468 11.4365 11.0197C11.4357 11.153 11.4613 11.2852 11.512 11.4085C11.5627 11.5318 11.6373 11.6439 11.7316 11.7381C11.8258 11.8324 11.9379 11.907 12.0612 11.9576C12.1845 12.0083 12.3167 12.0339 12.45 12.0331C12.5833 12.0339 12.7154 12.0083 12.8387 11.9576C12.9621 11.907 13.0741 11.8324 13.1684 11.7381C13.2626 11.6438 13.3372 11.5318 13.3879 11.4085C13.4385 11.2852 13.4642 11.153 13.4634 11.0197H12.45Z" fill="#ECBD8F"/>
<path fill-rule="evenodd" clip-rule="evenodd" d="M12.45 11.0197H13.4504C13.4504 10.4681 13.0016 10.032 12.45 10.032C11.8983 10.032 11.4493 10.468 11.4493 11.0197C11.4493 11.5714 11.8983 12.0204 12.45 12.0204C13.0016 12.0204 13.4504 11.5714 13.4504 11.0197H12.45Z" fill="#ECBD90"/>
<path fill-rule="evenodd" clip-rule="evenodd" d="M12.45 11.0198H13.4246C13.4247 10.8918 13.3995 10.765 13.3506 10.6467C13.3016 10.5284 13.2298 10.4209 13.1393 10.3304C13.0488 10.2399 12.9413 10.1681 12.8231 10.1191C12.7048 10.0701 12.578 10.0449 12.45 10.0449C12.3219 10.0449 12.1951 10.07 12.0768 10.119C11.9585 10.168 11.851 10.2398 11.7604 10.3303C11.6699 10.4209 11.5981 10.5283 11.5491 10.6467C11.5001 10.765 11.4749 10.8918 11.4749 11.0198C11.4749 11.5586 11.9111 12.0076 12.45 12.0076C12.9886 12.0076 13.4246 11.5586 13.4246 11.0198H12.45Z" fill="#ECBF93"/>
<path fill-rule="evenodd" clip-rule="evenodd" d="M12.45 11.0197H13.4121C13.4121 10.4938 12.9758 10.0576 12.45 10.0576C11.9111 10.0576 11.4878 10.4938 11.4878 11.0197C11.4878 11.5585 11.9111 11.9818 12.45 11.9818C12.9758 11.9818 13.4121 11.5585 13.4121 11.0197H12.45Z" fill="#ECBF93"/>
<path fill-rule="evenodd" clip-rule="evenodd" d="M12.45 11.0197H13.3991C13.3991 10.4938 12.9758 10.0704 12.45 10.0704C11.9239 10.0704 11.5006 10.4936 11.5006 11.0197C11.5006 11.5457 11.9239 11.969 12.45 11.969C12.5747 11.9692 12.6983 11.9449 12.8135 11.8973C12.9288 11.8497 13.0336 11.7797 13.1218 11.6915C13.21 11.6033 13.2799 11.4986 13.3275 11.3833C13.3751 11.268 13.3994 11.1444 13.3991 11.0197H12.45Z" fill="#EDC195"/>
<path fill-rule="evenodd" clip-rule="evenodd" d="M12.45 11.0198H13.3863C13.3863 10.5067 12.9632 10.0963 12.45 10.0963C11.9367 10.0963 11.5134 10.5068 11.5134 11.0198C11.5134 11.5329 11.9367 11.9562 12.45 11.9562C12.9631 11.9562 13.3863 11.5329 13.3863 11.0198H12.45Z" fill="#EDC196"/>
<path fill-rule="evenodd" clip-rule="evenodd" d="M12.45 11.0198H13.3606C13.3606 10.5195 12.9501 10.109 12.45 10.109C11.9496 10.109 11.5391 10.5195 11.5391 11.0198C11.5391 11.5329 11.9496 11.9434 12.45 11.9434C12.9503 11.9434 13.3606 11.5329 13.3606 11.0198H12.45Z" fill="#EEC397"/>
<path fill-rule="evenodd" clip-rule="evenodd" d="M12.45 11.0197H13.3478C13.3478 10.5322 12.9503 10.1218 12.45 10.1218C11.9496 10.1218 11.5519 10.5323 11.5519 11.0197C11.5512 11.1378 11.5739 11.2549 11.6188 11.3642C11.6636 11.4735 11.7298 11.5728 11.8133 11.6563C11.8969 11.7398 11.9961 11.8059 12.1054 11.8508C12.2147 11.8957 12.3318 11.9184 12.45 11.9176C12.5681 11.9184 12.6852 11.8956 12.7944 11.8508C12.9037 11.8059 13.003 11.7398 13.0865 11.6562C13.17 11.5727 13.2361 11.4734 13.281 11.3642C13.3258 11.2549 13.3486 11.1378 13.3478 11.0197H12.45Z" fill="#EEC399"/>
<path fill-rule="evenodd" clip-rule="evenodd" d="M12.45 11.0198H13.3349C13.3349 10.5323 12.9373 10.1346 12.45 10.1346C11.9624 10.1346 11.5647 10.5323 11.5647 11.0198C11.5647 11.5074 11.9624 11.9049 12.45 11.9049C12.9373 11.9049 13.3349 11.5074 13.3349 11.0198H12.45Z" fill="#EEC59B"/>
<path fill-rule="evenodd" clip-rule="evenodd" d="M12.45 11.0198H13.3221C13.3221 10.5451 12.9245 10.1603 12.45 10.1603C11.9752 10.1603 11.5775 10.5451 11.5775 11.0198C11.5775 11.5073 11.9752 11.8921 12.45 11.8921C12.9245 11.8921 13.3221 11.5073 13.3221 11.0198H12.45Z" fill="#EEC69D"/>
<path fill-rule="evenodd" clip-rule="evenodd" d="M12.45 11.0198H13.2965C13.2965 10.5581 12.9245 10.1731 12.45 10.1731C11.9752 10.1731 11.6032 10.558 11.6032 11.0198C11.6032 11.4944 11.9752 11.8793 12.45 11.8793C12.9245 11.8793 13.2965 11.4944 13.2965 11.0198H12.45Z" fill="#EEC69F"/>
<path fill-rule="evenodd" clip-rule="evenodd" d="M12.45 11.0198H13.2836C13.2838 10.9102 13.2624 10.8017 13.2206 10.7005C13.1787 10.5992 13.1174 10.5072 13.0399 10.4298C12.9625 10.3523 12.8705 10.2909 12.7693 10.249C12.668 10.2072 12.5595 10.1857 12.45 10.1859C12.3404 10.1857 12.2319 10.2071 12.1306 10.2489C12.0293 10.2907 11.9373 10.3521 11.8598 10.4296C11.7823 10.5071 11.7209 10.5991 11.6791 10.7004C11.6372 10.8016 11.6158 10.9102 11.616 11.0198C11.6158 11.1293 11.6372 11.2379 11.6791 11.3391C11.7209 11.4404 11.7823 11.5324 11.8598 11.6099C11.9373 11.6874 12.0293 11.7488 12.1306 11.7906C12.2319 11.8324 12.3404 11.8538 12.45 11.8536C12.5595 11.8538 12.668 11.8324 12.7693 11.7905C12.8705 11.7487 12.9625 11.6873 13.0399 11.6098C13.1174 11.5323 13.1788 11.4403 13.2206 11.3391C13.2624 11.2378 13.2838 11.1293 13.2836 11.0198H12.45Z" fill="#EFC89F"/>
<path fill-rule="evenodd" clip-rule="evenodd" d="M12.45 11.0197H13.271C13.271 10.5709 12.899 10.1989 12.45 10.1989C12.0009 10.1989 11.6288 10.5709 11.6288 11.0197C11.6285 11.1277 11.6495 11.2346 11.6907 11.3344C11.7318 11.4341 11.7923 11.5248 11.8686 11.6011C11.9449 11.6774 12.0356 11.7378 12.1354 11.779C12.2351 11.8201 12.3421 11.8411 12.45 11.8408C12.5579 11.8411 12.6648 11.8201 12.7646 11.7789C12.8643 11.7378 12.955 11.6773 13.0313 11.601C13.1076 11.5247 13.168 11.4341 13.2092 11.3343C13.2503 11.2346 13.2713 11.1277 13.271 11.0197H12.45Z" fill="#EFC8A1"/>
<path fill-rule="evenodd" clip-rule="evenodd" d="M12.45 11.0197H13.2581C13.2581 10.5837 12.8988 10.2245 12.45 10.2245C12.0009 10.2245 11.6417 10.5837 11.6417 11.0197C11.6412 11.126 11.6618 11.2313 11.7023 11.3296C11.7428 11.4278 11.8023 11.5171 11.8774 11.5922C11.9526 11.6674 12.0419 11.7269 12.1401 11.7673C12.2384 11.8078 12.3437 11.8284 12.45 11.8279C12.5562 11.8283 12.6615 11.8077 12.7598 11.7673C12.858 11.7268 12.9473 11.6673 13.0224 11.5922C13.0975 11.517 13.157 11.4278 13.1975 11.3295C13.2379 11.2313 13.2585 11.126 13.2581 11.0197H12.45Z" fill="#EFCAA3"/>
<path fill-rule="evenodd" clip-rule="evenodd" d="M12.45 11.0197H13.2323C13.233 10.9168 13.2132 10.8148 13.1741 10.7195C13.135 10.6243 13.0774 10.5378 13.0047 10.465C12.9319 10.3922 12.8454 10.3346 12.7502 10.2955C12.6549 10.2564 12.5529 10.2367 12.45 10.2373C12.347 10.2366 12.245 10.2564 12.1497 10.2955C12.0545 10.3346 11.9679 10.3922 11.8951 10.465C11.8223 10.5377 11.7647 10.6243 11.7256 10.7195C11.6865 10.8147 11.6667 10.9168 11.6673 11.0197C11.6673 11.4559 12.0137 11.8151 12.45 11.8151C12.886 11.8151 13.2323 11.456 13.2323 11.0197H12.45Z" fill="#EFCAA3"/>
<path fill-rule="evenodd" clip-rule="evenodd" d="M12.45 11.0197H13.2195C13.2195 10.5964 12.8732 10.2501 12.45 10.2501C12.0265 10.2501 11.6801 10.5964 11.6801 11.0197C11.6801 11.4431 12.0265 11.7894 12.45 11.7894C12.8731 11.7894 13.2195 11.4431 13.2195 11.0197H12.45Z" fill="#F0CCA6"/>
<path fill-rule="evenodd" clip-rule="evenodd" d="M12.45 11.0197H13.2068C13.2068 10.6093 12.8602 10.2629 12.45 10.2629C12.0265 10.2629 11.693 10.6093 11.693 11.0197C11.693 11.443 12.0265 11.7766 12.45 11.7766C12.8602 11.7766 13.2068 11.443 13.2068 11.0197H12.45Z" fill="#F0CCA8"/>
<path fill-rule="evenodd" clip-rule="evenodd" d="M12.45 11.0197H13.1939C13.1939 10.6093 12.8602 10.2886 12.45 10.2886C12.0395 10.2886 11.7058 10.6093 11.7058 11.0197C11.7059 11.217 11.7844 11.4062 11.9239 11.5457C12.0635 11.6852 12.2527 11.7637 12.45 11.7638C12.6473 11.7636 12.8364 11.6852 12.9759 11.5456C13.1154 11.4061 13.1938 11.217 13.1939 11.0197H12.45Z" fill="#F1CEAA"/>
<path fill-rule="evenodd" clip-rule="evenodd" d="M12.45 11.0197H13.1682C13.1683 10.9253 13.1499 10.8318 13.1139 10.7446C13.0778 10.6574 13.0249 10.5782 12.9582 10.5114C12.8915 10.4447 12.8123 10.3918 12.725 10.3557C12.6378 10.3197 12.5444 10.3012 12.45 10.3014C12.0522 10.3014 11.7314 10.622 11.7314 11.0197C11.7314 11.4174 12.0522 11.7509 12.45 11.7509C12.8475 11.7509 13.1682 11.4174 13.1682 11.0197H12.45Z" fill="#F1CEAA"/>
<path fill-rule="evenodd" clip-rule="evenodd" d="M12.45 11.0198H13.1555C13.1555 10.6351 12.8347 10.3142 12.45 10.3142C12.065 10.3142 11.7444 10.6349 11.7444 11.0198C11.7441 11.1125 11.7622 11.2044 11.7975 11.2902C11.8329 11.3759 11.8849 11.4538 11.9504 11.5194C12.016 11.5849 12.0939 11.6369 12.1796 11.6723C12.2654 11.7076 12.3572 11.7257 12.45 11.7254C12.5427 11.7257 12.6346 11.7076 12.7203 11.6722C12.806 11.6369 12.8839 11.5849 12.9495 11.5193C13.015 11.4537 13.067 11.3759 13.1023 11.2901C13.1377 11.2044 13.1557 11.1125 13.1555 11.0198H12.45Z" fill="#F1D0AD"/>
<path fill-rule="evenodd" clip-rule="evenodd" d="M12.45 11.0198H13.1425C13.1425 10.6478 12.8346 10.3271 12.45 10.3271C12.065 10.3271 11.7572 10.6478 11.7572 11.0198C11.7568 11.1109 11.7745 11.2011 11.8091 11.2854C11.8438 11.3696 11.8948 11.4461 11.9592 11.5105C12.0236 11.575 12.1002 11.626 12.1844 11.6606C12.2686 11.6953 12.3589 11.713 12.45 11.7126C12.541 11.7129 12.6313 11.6953 12.7155 11.6606C12.7997 11.6259 12.8762 11.5749 12.9406 11.5105C13.0049 11.446 13.0559 11.3695 13.0906 11.2853C13.1253 11.2011 13.1429 11.1109 13.1425 11.0198H12.45Z" fill="#F1D0AE"/>
<path fill-rule="evenodd" clip-rule="evenodd" d="M12.45 11.0198H13.1297C13.1297 10.6477 12.8218 10.3528 12.45 10.3528C12.0779 10.3528 11.77 10.6477 11.77 11.0198C11.77 11.3918 12.0779 11.6996 12.45 11.6996C12.8218 11.6996 13.1297 11.3917 13.1297 11.0198H12.45Z" fill="#F2D2B1"/>
<path fill-rule="evenodd" clip-rule="evenodd" d="M12.45 11.0198H13.1041C13.1041 10.6607 12.8089 10.3656 12.45 10.3656C12.0908 10.3656 11.7957 10.6607 11.7957 11.0198C11.7957 11.3918 12.0909 11.6868 12.45 11.6868C12.8089 11.6868 13.1041 11.3917 13.1041 11.0198H12.45Z" fill="#F2D2B3"/>
<path fill-rule="evenodd" clip-rule="evenodd" d="M12.45 11.0198H13.0912C13.0912 10.6734 12.8088 10.3784 12.45 10.3784C12.0908 10.3784 11.8085 10.6734 11.8085 11.0198C11.8085 11.379 12.0909 11.6611 12.45 11.6611C12.8089 11.6611 13.0912 11.3789 13.0912 11.0198H12.45Z" fill="#F3D4B4"/>
<path fill-rule="evenodd" clip-rule="evenodd" d="M12.45 11.0196H13.0784C13.0781 10.853 13.0119 10.6933 12.8941 10.5755C12.7763 10.4577 12.6166 10.3914 12.45 10.3911C12.1035 10.3911 11.8213 10.6734 11.8213 11.0196C11.8213 11.3659 12.1035 11.6482 12.45 11.6482C12.6166 11.6479 12.7762 11.5815 12.894 11.4637C13.0118 11.3459 13.0781 11.1862 13.0784 11.0196H12.45Z" fill="#F3D4B5"/>
<path fill-rule="evenodd" clip-rule="evenodd" d="M12.45 11.0197H13.0654C13.0654 10.6863 12.7833 10.4169 12.45 10.4169C12.1163 10.4169 11.8342 10.6863 11.8342 11.0197C11.8342 11.3661 12.1164 11.6355 12.45 11.6355C12.7834 11.6355 13.0654 11.366 13.0654 11.0197H12.45Z" fill="#F3D4B7"/>
<path fill-rule="evenodd" clip-rule="evenodd" d="M12.45 11.0197H13.0399C13.0401 10.9422 13.025 10.8654 12.9954 10.7937C12.9659 10.722 12.9224 10.6569 12.8676 10.6021C12.8128 10.5472 12.7477 10.5038 12.676 10.4742C12.6043 10.4446 12.5275 10.4295 12.45 10.4297C12.3724 10.4295 12.2956 10.4446 12.2239 10.4741C12.1522 10.5037 12.087 10.5472 12.0322 10.602C11.9773 10.6568 11.9339 10.722 11.9043 10.7937C11.8747 10.8654 11.8596 10.9422 11.8598 11.0197C11.8598 11.3533 12.1164 11.6226 12.45 11.6226C12.7834 11.6226 13.0399 11.3532 13.0399 11.0197H12.45Z" fill="#F3D6B8"/>
<path fill-rule="evenodd" clip-rule="evenodd" d="M12.45 11.0197H13.0271C13.0274 10.9439 13.0127 10.8687 12.9838 10.7985C12.9549 10.7283 12.9124 10.6646 12.8588 10.6109C12.8051 10.5573 12.7414 10.5148 12.6712 10.4858C12.601 10.4569 12.5259 10.4422 12.45 10.4425C12.1292 10.4425 11.8726 10.6991 11.8726 11.0197C11.8726 11.3403 12.1292 11.597 12.45 11.597C12.5259 11.5973 12.601 11.5825 12.6712 11.5536C12.7414 11.5247 12.8051 11.4822 12.8588 11.4286C12.9124 11.3749 12.9549 11.3111 12.9838 11.241C13.0127 11.1708 13.0274 11.0956 13.0271 11.0197H12.45Z" fill="#F4D8BA"/>
<path fill-rule="evenodd" clip-rule="evenodd" d="M12.45 11.0197H13.0144C13.0144 10.7118 12.7578 10.4553 12.45 10.4553C12.1422 10.4553 11.8855 10.7119 11.8855 11.0197C11.8855 11.3405 12.1422 11.5841 12.45 11.5841C12.7578 11.5841 13.0144 11.3403 13.0144 11.0197H12.45Z" fill="#F4D9BC"/>
<path fill-rule="evenodd" clip-rule="evenodd" d="M12.45 11.0197H13.0016C13.0016 10.7246 12.7579 10.481 12.45 10.481C12.1421 10.481 11.8983 10.7246 11.8983 11.0197C11.8983 11.3276 12.1421 11.5713 12.45 11.5713C12.7579 11.5713 13.0016 11.3275 13.0016 11.0197H12.45Z" fill="#F4D9BE"/>
<path fill-rule="evenodd" clip-rule="evenodd" d="M12.45 11.0197H12.9758C12.9758 10.7246 12.7449 10.4938 12.45 10.4938C12.1548 10.4938 11.9239 10.7246 11.9239 11.0197C11.9239 11.3148 12.1548 11.5585 12.45 11.5585C12.7449 11.5585 12.9758 11.3147 12.9758 11.0197H12.45Z" fill="#F4DBBF"/>
<path fill-rule="evenodd" clip-rule="evenodd" d="M12.45 11.0197H12.9631C12.9627 10.8837 12.9085 10.7535 12.8124 10.6573C12.7162 10.5612 12.5859 10.507 12.45 10.5066C12.1676 10.5066 11.9367 10.7374 11.9367 11.0197C11.9367 11.302 12.1676 11.5328 12.45 11.5328C12.5859 11.5324 12.7162 11.4782 12.8124 11.3821C12.9085 11.2859 12.9627 11.1557 12.9631 11.0197H12.45Z" fill="#F4DBC0"/>
<path fill-rule="evenodd" clip-rule="evenodd" d="M12.45 11.0198H12.9503C12.9503 10.7504 12.7193 10.5195 12.45 10.5195C12.1805 10.5195 11.9496 10.7504 11.9496 11.0198C11.9496 11.3021 12.1805 11.5201 12.45 11.5201C12.7192 11.5201 12.9503 11.3021 12.9503 11.0198H12.45Z" fill="#F5DDC3"/>
<path fill-rule="evenodd" clip-rule="evenodd" d="M12.45 11.0197H12.9373C12.9373 10.7631 12.7192 10.545 12.45 10.545C12.1805 10.545 11.9624 10.7631 11.9624 11.0197C11.9624 11.149 12.0138 11.2729 12.1052 11.3644C12.1966 11.4558 12.3206 11.5071 12.4499 11.5071C12.5791 11.5071 12.7031 11.4558 12.7945 11.3644C12.886 11.2729 12.9373 11.149 12.9373 11.0197H12.45Z" fill="#F5DDC3"/>
<path fill-rule="evenodd" clip-rule="evenodd" d="M12.45 11.0198H12.9115C12.9115 10.7632 12.7066 10.5581 12.45 10.5581C12.1934 10.5581 11.988 10.7633 11.988 11.0198C11.988 11.2763 12.1934 11.4944 12.45 11.4944C12.7066 11.4944 12.9115 11.2764 12.9115 11.0198H12.45Z" fill="#F6DFC6"/>
<path fill-rule="evenodd" clip-rule="evenodd" d="M12.45 11.0198H12.8988C12.8988 10.776 12.6936 10.5709 12.45 10.5709C12.2061 10.5709 12.0009 10.7761 12.0009 11.0198C12.0009 11.2764 12.2061 11.4688 12.45 11.4688C12.6936 11.4688 12.8988 11.2764 12.8988 11.0198H12.45Z" fill="#F6DFC7"/>
<path fill-rule="evenodd" clip-rule="evenodd" d="M12.45 11.0198H12.886C12.886 10.7889 12.6936 10.5837 12.45 10.5837C12.2061 10.5837 12.0137 10.7889 12.0137 11.0198C12.0132 11.0772 12.0242 11.1341 12.0459 11.1873C12.0677 11.2404 12.0998 11.2887 12.1404 11.3293C12.181 11.3699 12.2293 11.402 12.2825 11.4237C12.3356 11.4455 12.3925 11.4564 12.45 11.4559C12.5074 11.4564 12.5643 11.4454 12.6174 11.4237C12.6705 11.4019 12.7188 11.3698 12.7594 11.3292C12.8 11.2886 12.8321 11.2403 12.8538 11.1872C12.8755 11.1341 12.8865 11.0772 12.886 11.0198H12.45Z" fill="#F6E1CA"/>
<path fill-rule="evenodd" clip-rule="evenodd" d="M12.45 11.0198H12.8731C12.8731 10.7889 12.6807 10.6094 12.45 10.6094C12.219 10.6094 12.0265 10.7889 12.0265 11.0198C12.0265 11.2507 12.2189 11.4431 12.45 11.4431C12.6808 11.4431 12.8731 11.2507 12.8731 11.0198H12.45Z" fill="#F6E1CC"/>
<path fill-rule="evenodd" clip-rule="evenodd" d="M12.45 11.0198H12.8475C12.847 10.9145 12.805 10.8136 12.7305 10.7392C12.6561 10.6647 12.5553 10.6226 12.45 10.6221C12.3446 10.6226 12.2438 10.6646 12.1693 10.7391C12.0948 10.8136 12.0527 10.9144 12.0522 11.0198C12.0522 11.2507 12.2318 11.4303 12.45 11.4303C12.6679 11.4303 12.8475 11.2507 12.8475 11.0198H12.45Z" fill="#F7E3CD"/>
<path fill-rule="evenodd" clip-rule="evenodd" d="M12.45 11.0197H12.8347C12.8347 10.8146 12.6679 10.635 12.45 10.635C12.2318 10.635 12.065 10.8146 12.065 11.0197C12.065 11.2378 12.2318 11.4046 12.45 11.4046C12.6679 11.4046 12.8347 11.2378 12.8347 11.0197H12.45Z" fill="#F7E3CF"/>
<path fill-rule="evenodd" clip-rule="evenodd" d="M12.45 11.0197H12.8218C12.8217 10.9211 12.7825 10.8266 12.7128 10.7568C12.6431 10.6871 12.5486 10.6478 12.45 10.6477C12.353 10.6502 12.2608 10.6905 12.1931 10.76C12.1253 10.8295 12.0874 10.9227 12.0874 11.0197C12.0874 11.1168 12.1253 11.21 12.1931 11.2795C12.2608 11.349 12.353 11.3893 12.45 11.3918C12.5486 11.3917 12.6431 11.3524 12.7129 11.2827C12.7826 11.2129 12.8217 11.1184 12.8218 11.0197H12.45Z" fill="#F7E3D0"/>
<path fill-rule="evenodd" clip-rule="evenodd" d="M12.45 11.0197H12.8089C12.8089 10.8274 12.6424 10.6733 12.45 10.6733C12.2574 10.6733 12.0908 10.8274 12.0908 11.0197C12.0907 11.0669 12.0999 11.1137 12.1179 11.1573C12.1359 11.2009 12.1624 11.2406 12.1958 11.2739C12.2291 11.3073 12.2688 11.3338 12.3124 11.3518C12.356 11.3698 12.4028 11.379 12.45 11.3789C12.4972 11.379 12.5439 11.3698 12.5875 11.3518C12.6311 11.3337 12.6707 11.3073 12.7041 11.2739C12.7374 11.2405 12.7639 11.2009 12.7819 11.1573C12.7999 11.1137 12.8091 11.0669 12.8089 11.0197H12.45Z" fill="#F8E5D1"/>
<path fill-rule="evenodd" clip-rule="evenodd" d="M12.45 11.0197H12.7834C12.7834 10.8402 12.6423 10.6863 12.45 10.6863C12.4061 10.686 12.3626 10.6944 12.3219 10.711C12.2813 10.7276 12.2444 10.7522 12.2134 10.7832C12.1823 10.8142 12.1577 10.8511 12.1411 10.8917C12.1244 10.9323 12.116 10.9758 12.1163 11.0197C12.1163 11.2121 12.2573 11.3661 12.45 11.3661C12.6423 11.3661 12.7834 11.2122 12.7834 11.0197H12.45Z" fill="#F8E8D4"/>
<path fill-rule="evenodd" clip-rule="evenodd" d="M12.45 11.0197H12.7705C12.7709 10.9775 12.7629 10.9356 12.747 10.8965C12.731 10.8574 12.7074 10.8219 12.6776 10.7921C12.6477 10.7622 12.6122 10.7386 12.5732 10.7226C12.5341 10.7066 12.4922 10.6986 12.45 10.699C12.4077 10.6986 12.3659 10.7066 12.3267 10.7226C12.2876 10.7385 12.2521 10.7621 12.2223 10.792C12.1924 10.8219 12.1688 10.8574 12.1528 10.8965C12.1368 10.9356 12.1288 10.9775 12.1292 11.0197C12.1288 11.062 12.1368 11.1039 12.1528 11.143C12.1687 11.1821 12.1924 11.2176 12.2222 11.2475C12.2521 11.2774 12.2876 11.301 12.3267 11.3169C12.3658 11.3329 12.4077 11.3409 12.45 11.3405C12.4922 11.3409 12.5341 11.3328 12.5732 11.3169C12.6122 11.3009 12.6477 11.2773 12.6776 11.2474C12.7074 11.2175 12.731 11.182 12.747 11.1429C12.7629 11.1038 12.7709 11.0619 12.7705 11.0197H12.45Z" fill="#F8E8D6"/>
<path fill-rule="evenodd" clip-rule="evenodd" d="M12.45 11.0198H12.7579C12.7579 10.8531 12.6166 10.7247 12.45 10.7247C12.2831 10.7247 12.1421 10.853 12.1421 11.0198C12.1421 11.1867 12.2831 11.3277 12.45 11.3277C12.6166 11.3277 12.7579 11.1867 12.7579 11.0198H12.45Z" fill="#F8E8D8"/>
<path fill-rule="evenodd" clip-rule="evenodd" d="M12.45 11.0197H12.7449C12.7449 10.8658 12.6036 10.7374 12.45 10.7374C12.2958 10.7374 12.1548 10.8658 12.1548 11.0197C12.1548 11.1864 12.2958 11.3148 12.45 11.3148C12.6036 11.3148 12.7449 11.1865 12.7449 11.0197H12.45Z" fill="#F9EAD9"/>
<path fill-rule="evenodd" clip-rule="evenodd" d="M12.45 11.0197H12.7192C12.7192 10.8786 12.6036 10.7502 12.45 10.7502C12.2958 10.7502 12.1805 10.8785 12.1805 11.0197C12.1805 11.1737 12.2958 11.3019 12.45 11.3019C12.6036 11.3019 12.7192 11.1737 12.7192 11.0197H12.45Z" fill="#FAECDC"/>
<path fill-rule="evenodd" clip-rule="evenodd" d="M12.45 11.0198H12.7066C12.7064 10.9518 12.6793 10.8867 12.6312 10.8386C12.5831 10.7905 12.518 10.7634 12.45 10.7632C12.3087 10.7632 12.1934 10.8786 12.1934 11.0198C12.1934 11.161 12.3087 11.2764 12.45 11.2764C12.518 11.2762 12.5831 11.2491 12.6312 11.201C12.6793 11.1529 12.7064 11.0878 12.7066 11.0198H12.45Z" fill="#FAECDD"/>
<path fill-rule="evenodd" clip-rule="evenodd" d="M12.45 11.0198H12.6937C12.6937 10.8915 12.5781 10.7889 12.45 10.7889C12.3216 10.7889 12.2061 10.8915 12.2061 11.0198C12.2061 11.1608 12.3216 11.2636 12.45 11.2636C12.482 11.2636 12.5137 11.2573 12.5433 11.245C12.5728 11.2328 12.5997 11.2148 12.6223 11.1922C12.645 11.1695 12.6629 11.1426 12.6751 11.1131C12.6874 11.0835 12.6937 11.0518 12.6937 11.0198H12.45Z" fill="#FAECDF"/>
<path fill-rule="evenodd" clip-rule="evenodd" d="M12.45 11.0198H12.6808C12.6808 10.9044 12.5782 10.8018 12.45 10.8018C12.3216 10.8018 12.219 10.9044 12.219 11.0198C12.219 11.1481 12.3216 11.2507 12.45 11.2507C12.4803 11.2509 12.5104 11.245 12.5385 11.2334C12.5665 11.2218 12.592 11.2048 12.6135 11.1833C12.635 11.1619 12.652 11.1364 12.6635 11.1083C12.6751 11.0802 12.6809 11.0501 12.6808 11.0198H12.45Z" fill="#FAEEE0"/>
<path fill-rule="evenodd" clip-rule="evenodd" d="M12.45 11.0198H12.6552C12.6552 10.9043 12.5651 10.8146 12.45 10.8146C12.3344 10.8146 12.2445 10.9043 12.2445 11.0198C12.2445 11.1352 12.3346 11.2378 12.45 11.2378C12.5653 11.2378 12.6552 11.1352 12.6552 11.0198H12.45Z" fill="#FBF0E3"/>
<path fill-rule="evenodd" clip-rule="evenodd" d="M12.45 11.0198H12.6424C12.6424 10.9172 12.5523 10.8274 12.45 10.8274C12.3474 10.8274 12.2574 10.9172 12.2574 11.0198C12.2574 11.1352 12.3474 11.2121 12.45 11.2121C12.5523 11.2121 12.6424 11.1352 12.6424 11.0198H12.45Z" fill="#FBF1E5"/>
<path fill-rule="evenodd" clip-rule="evenodd" d="M12.45 11.0197H12.6294C12.6294 10.93 12.5523 10.853 12.45 10.853C12.3474 10.853 12.2703 10.93 12.2703 11.0197C12.2703 11.1225 12.3474 11.1994 12.45 11.1994C12.5523 11.1994 12.6294 11.1225 12.6294 11.0197H12.45Z" fill="#FBF1E7"/>
<path fill-rule="evenodd" clip-rule="evenodd" d="M12.45 11.0197H12.6166C12.6166 10.93 12.5397 10.8658 12.45 10.8658C12.3599 10.8658 12.2831 10.93 12.2831 11.0197C12.2831 11.1096 12.3599 11.1865 12.45 11.1865C12.5397 11.1865 12.6166 11.1095 12.6166 11.0197H12.45Z" fill="#FCF3E8"/>
<path fill-rule="evenodd" clip-rule="evenodd" d="M12.45 11.0197H12.591C12.591 10.9428 12.5268 10.8787 12.45 10.8787C12.3729 10.8787 12.3087 10.9429 12.3087 11.0197C12.3087 11.1096 12.3729 11.1738 12.45 11.1738C12.5268 11.1738 12.591 11.1096 12.591 11.0197H12.45Z" fill="#FCF3EA"/>
<path fill-rule="evenodd" clip-rule="evenodd" d="M12.45 11.0197H12.5781C12.5781 10.9556 12.5268 10.8915 12.45 10.8915C12.3729 10.8915 12.3216 10.9556 12.3216 11.0197C12.3216 11.0968 12.3729 11.1481 12.45 11.1481C12.5268 11.1481 12.5781 11.0968 12.5781 11.0197H12.45Z" fill="#FCF5ED"/>
<path fill-rule="evenodd" clip-rule="evenodd" d="M12.45 11.0197H12.5653C12.5653 10.9556 12.514 10.9171 12.45 10.9171C12.3857 10.9171 12.3344 10.9556 12.3344 11.0197C12.3344 11.0838 12.3857 11.1351 12.45 11.1351C12.4652 11.1352 12.4802 11.1322 12.4942 11.1264C12.5082 11.1207 12.5209 11.1122 12.5317 11.1014C12.5424 11.0907 12.5509 11.078 12.5566 11.0639C12.5624 11.0499 12.5653 11.0349 12.5653 11.0197H12.45Z" fill="#FCF5EF"/>
<path fill-rule="evenodd" clip-rule="evenodd" d="M12.45 11.0197H12.5523C12.5523 10.9684 12.501 10.9299 12.45 10.9299C12.3987 10.9299 12.3474 10.9685 12.3474 11.0197C12.3474 11.071 12.3987 11.1224 12.45 11.1224C12.501 11.1224 12.5523 11.071 12.5523 11.0197H12.45Z" fill="#FDF8F1"/>
<path fill-rule="evenodd" clip-rule="evenodd" d="M12.45 11.0198H12.5268C12.5268 10.9813 12.4883 10.9429 12.45 10.9429C12.4113 10.9429 12.3729 10.9813 12.3729 11.0198C12.3729 11.0711 12.4114 11.1097 12.45 11.1097C12.4885 11.1097 12.5268 11.0711 12.5268 11.0198H12.45Z" fill="#FDF8F3"/>
<path fill-rule="evenodd" clip-rule="evenodd" d="M12.45 11.0197H12.514C12.514 10.994 12.4885 10.9556 12.45 10.9556C12.4113 10.9556 12.3857 10.994 12.3857 11.0197C12.3857 11.0582 12.4113 11.0838 12.45 11.0838C12.4885 11.0838 12.514 11.0582 12.514 11.0197H12.45Z" fill="#FDF8F5"/>
<path fill-rule="evenodd" clip-rule="evenodd" d="M12.45 11.0198H12.501C12.501 10.9941 12.4755 10.9813 12.45 10.9813C12.4242 10.9813 12.3987 10.9941 12.3987 11.0198C12.3987 11.0454 12.4242 11.0711 12.45 11.0711C12.4755 11.0711 12.501 11.0454 12.501 11.0198H12.45Z" fill="#FEFBF6"/>
<path fill-rule="evenodd" clip-rule="evenodd" d="M12.45 11.0197H12.4755C12.4755 11.0068 12.4626 10.994 12.45 10.994C12.437 10.994 12.4113 11.0068 12.4113 11.0197C12.4113 11.0453 12.437 11.0581 12.45 11.0581C12.4627 11.0581 12.4755 11.0453 12.4755 11.0197H12.45Z" fill="#FFFFFB"/>
<path fill-rule="evenodd" clip-rule="evenodd" d="M12.45 11.0197H12.4627C12.4627 11.0197 12.4627 11.0068 12.45 11.0068C12.437 11.0068 12.437 11.0197 12.437 11.0197C12.437 11.0325 12.437 11.0453 12.45 11.0453C12.4627 11.0453 12.4627 11.0325 12.4627 11.0197H12.45Z" fill="white"/>
<path fill-rule="evenodd" clip-rule="evenodd" d="M15.7979 11.6099L14.8871 9.3009H14.1431L15.6055 12.8285H15.9648L17.4528 9.3009H16.7215L15.7979 11.6099ZM17.7607 12.7389H19.6592V12.1615H18.4277V11.2379H19.6078V10.6478H18.4277V9.89096H19.6592V9.3009H17.7607V12.7389ZM22.3145 10.3143C22.3145 9.67294 21.8782 9.3009 21.0959 9.3009H20.1081V12.7387H20.7751V11.3661H20.8648L21.7885 12.7387H22.6095L21.532 11.2891C22.0321 11.1866 22.3145 10.8402 22.3145 10.3143ZM20.9674 10.8916H20.7751V9.83978H20.9803C21.4036 9.83978 21.6215 10.0193 21.6215 10.3529C21.6216 10.6991 21.4037 10.8916 20.9674 10.8916ZM1.2116 13.7483V14.0563H1.59198V14.1809H1.2116V14.7176H1.07489V13.6235H1.60443V13.7483H1.2116ZM2.22885 13.6235H2.36568V14.7176H2.22885V13.6235ZM3.02621 13.571L3.84673 14.4319V13.6235H3.98344V14.7626L3.16205 13.9022V14.7176H3.02621V13.571ZM5.24833 14.3188H4.85862L5.05335 13.8758L5.24833 14.3188ZM5.30436 14.4435L5.42912 14.7176H5.57629L5.05347 13.5771L4.53091 14.7176H4.67746L4.80259 14.4435H5.30436ZM6.12351 13.571L6.9449 14.4319V13.6235H7.08174V14.7626L6.25935 13.9022V14.7176H6.12351V13.571ZM8.54099 13.8327C8.46317 13.7627 8.35535 13.7252 8.25213 13.7252C8.00747 13.7252 7.82021 13.9298 7.82021 14.1722C7.82021 14.4117 8.0056 14.6161 8.24964 14.6161C8.35722 14.6161 8.45981 14.5758 8.54087 14.5029V14.6643C8.45327 14.7139 8.35442 14.7403 8.25375 14.7409C7.9411 14.7409 7.68312 14.4928 7.68312 14.1763C7.68312 13.8526 7.94285 13.5998 8.2657 13.5998C8.3617 13.5998 8.45869 13.6235 8.54074 13.6742V13.8327H8.54099ZM9.16889 13.6235H9.30486V14.7176H9.16889V13.6235ZM10.5795 14.3188H10.1899L10.3856 13.8758L10.5795 14.3188ZM10.6356 14.4435L10.7608 14.7176H10.9073L10.3856 13.5771L9.86279 14.7176H10.009L10.1337 14.4435H10.6356ZM11.6041 14.5934H11.9366V14.7176H11.4681V13.6235H11.6041V14.5934ZM13.8698 13.8312C13.8302 13.7626 13.7776 13.7278 13.6942 13.7278C13.6069 13.7278 13.5108 13.7872 13.5108 13.8834C13.5108 13.9686 13.5962 14.014 13.6639 14.04L13.7418 14.0707C13.8976 14.1314 14.0137 14.2173 14.0137 14.3999C14.0137 14.599 13.8595 14.7409 13.6639 14.7409C13.4866 14.7409 13.3488 14.6105 13.3261 14.4348L13.4637 14.406C13.462 14.5262 13.5579 14.6134 13.6748 14.6134C13.7927 14.6134 13.8766 14.515 13.8766 14.3999C13.8766 14.2827 13.7825 14.2316 13.6883 14.1921L13.6131 14.1606C13.4879 14.1069 13.3748 14.0359 13.3748 13.8834C13.3748 13.7061 13.5315 13.5998 13.6973 13.5998C13.8187 13.5998 13.9191 13.6597 13.9782 13.7654L13.8698 13.8312ZM14.6314 13.6235H15.2196V13.7483H14.7682V14.0549H15.2072V14.1796H14.7682V14.5934H15.2196V14.7176H14.6314V13.6235ZM15.9941 13.7454H16.0291C16.1653 13.7454 16.3275 13.7701 16.3275 13.9416C16.3275 14.1156 16.1757 14.1415 16.0366 14.1415H15.994V13.7454H15.9941ZM16.1926 14.2419C16.3507 14.2228 16.4552 14.0925 16.4552 13.9355C16.4552 13.8312 16.4027 13.7278 16.311 13.6741C16.2242 13.6249 16.1197 13.6235 16.0229 13.6235H15.8576V14.7176H15.9943V14.2553H16.0504L16.3727 14.7176H16.5378L16.1926 14.2419ZM17.4752 14.4333L17.8003 13.6235H17.9501L17.4752 14.7762L16.9994 13.6235H17.149L17.4752 14.4333ZM18.5072 13.6235H18.6438V14.7176H18.5072V13.6235ZM20.1152 13.8327C20.0364 13.7627 19.9284 13.7252 19.8248 13.7252C19.5804 13.7252 19.3931 13.9298 19.3931 14.1722C19.3931 14.4117 19.5784 14.6161 19.8223 14.6161C19.93 14.6161 20.0336 14.5758 20.1152 14.5029V14.6643C20.0273 14.7138 19.9282 14.7402 19.8273 14.7409C19.5155 14.7409 19.2563 14.4928 19.2563 14.1763C19.2563 13.8526 19.5173 13.5998 19.8388 13.5998C19.9348 13.5998 20.0319 13.6235 20.1153 13.6742V13.8327H20.1152ZM20.7454 13.6235H21.3335V13.7483H20.8824V14.0549H21.3205V14.1796H20.8824V14.5934H21.3335V14.7176H20.7454V13.6235ZM22.4564 13.8312C22.4166 13.7626 22.3643 13.7278 22.2816 13.7278C22.1949 13.7278 22.0987 13.7872 22.0987 13.8834C22.0987 13.9686 22.1834 14.014 22.251 14.04L22.3301 14.0707C22.4847 14.1314 22.6008 14.2173 22.6008 14.3999C22.6008 14.599 22.4469 14.7409 22.251 14.7409C22.0745 14.7409 21.9356 14.6105 21.9135 14.4348L22.0507 14.406C22.0489 14.5262 22.1455 14.6134 22.2627 14.6134C22.3804 14.6134 22.4648 14.515 22.4648 14.3999C22.4648 14.2827 22.3697 14.2316 22.2758 14.1921L22.2005 14.1606C22.0752 14.1069 21.9621 14.0359 21.9621 13.8834C21.9621 13.7061 22.119 13.5998 22.2846 13.5998C22.406 13.5998 22.5066 13.6597 22.5665 13.7654L22.4564 13.8312ZM22.7065 9.60583C22.7065 9.63222 22.6884 9.64617 22.6518 9.64617H22.6394V9.56735H22.6527C22.689 9.56748 22.7065 9.57993 22.7065 9.60583ZM22.8138 9.81413L22.7141 9.68888C22.7566 9.67792 22.7812 9.64679 22.7812 9.60396C22.7812 9.54469 22.7396 9.5112 22.6656 9.5112H22.5691V9.81413H22.6406V9.69684L22.7255 9.81413H22.8138ZM22.9412 9.66211C22.9412 9.51743 22.8235 9.39815 22.6807 9.39815C22.6459 9.39792 22.6115 9.40458 22.5793 9.41776C22.5471 9.43093 22.5179 9.45036 22.4933 9.47491C22.4687 9.49945 22.4492 9.52864 22.436 9.56077C22.4227 9.59291 22.416 9.62735 22.4161 9.66211C22.4161 9.80915 22.5343 9.92644 22.6807 9.92644C22.8235 9.92632 22.9412 9.80716 22.9412 9.66211ZM22.8879 9.66285C22.8879 9.78164 22.7945 9.879 22.6794 9.879C22.5637 9.879 22.4684 9.78213 22.4684 9.66285C22.4684 9.5422 22.5628 9.44633 22.6794 9.44633C22.7945 9.44633 22.8879 9.5437 22.8879 9.66285Z" fill="black"/>
</svg>
