<svg width="20" height="20" viewBox="0 0 20 20" fill="none" xmlns="http://www.w3.org/2000/svg">
<path d="M10.8332 9.99992C10.8332 9.53968 10.4601 9.16659 9.99984 9.16659C9.5396 9.16659 9.1665 9.53968 9.1665 9.99992C9.1665 10.4602 9.5396 10.8333 9.99984 10.8333C10.4601 10.8333 10.8332 10.4602 10.8332 9.99992Z" stroke="#C8D1EF" stroke-width="2" stroke-linecap="round" stroke-linejoin="round"/>
<path d="M5.00016 9.99992C5.00016 9.53968 4.62707 9.16659 4.16683 9.16659C3.70659 9.16659 3.3335 9.53968 3.3335 9.99992C3.3335 10.4602 3.70659 10.8333 4.16683 10.8333C4.62707 10.8333 5.00016 10.4602 5.00016 9.99992Z" stroke="#C8D1EF" stroke-width="2" stroke-linecap="round" stroke-linejoin="round"/>
<path d="M16.6667 9.99992C16.6667 9.53968 16.2936 9.16659 15.8333 9.16659C15.3731 9.16659 15 9.53968 15 9.99992C15 10.4602 15.3731 10.8333 15.8333 10.8333C16.2936 10.8333 16.6667 10.4602 16.6667 9.99992Z" stroke="#C8D1EF" stroke-width="2" stroke-linecap="round" stroke-linejoin="round"/>
</svg>
