<svg width="32" height="32" viewBox="0 0 32 32" fill="none" xmlns="http://www.w3.org/2000/svg">
<path d="M16 18C14.8971 18 14 17.1029 14 16C14 14.8971 14.8971 14 16 14C17.1029 14 18 14.8971 18 16C18 17.1029 17.1029 18 16 18Z" fill="#C8D1EF"/>
<path d="M9 18C7.89711 18 7 17.1029 7 16C7 14.8971 7.89711 14 9 14C10.1029 14 11 14.8971 11 16C11 17.1029 10.1029 18 9 18Z" fill="#C8D1EF"/>
<path d="M23 18C21.8971 18 21 17.1029 21 16C21 14.8971 21.8971 14 23 14C24.1029 14 25 14.8971 25 16C25 17.1029 24.1029 18 23 18Z" fill="#C8D1EF"/>
</svg>
