<svg width="16" height="16" viewBox="0 0 16 16" fill="none" xmlns="http://www.w3.org/2000/svg">
<path fill-rule="evenodd" clip-rule="evenodd" d="M8.19534 2.19526C8.45569 1.93491 8.8778 1.93491 9.13815 2.19526L11.1382 4.19526C11.3985 4.45561 11.3985 4.87772 11.1382 5.13807L5.80482 10.4714C5.67979 10.5964 5.51023 10.6667 5.33341 10.6667H3.33341C2.96522 10.6667 2.66675 10.3682 2.66675 10V8C2.66675 7.82319 2.73699 7.65362 2.86201 7.5286L8.19534 2.19526ZM4.00008 8.27614V9.33333H5.05727L9.72394 4.66667L8.66675 3.60948L4.00008 8.27614Z" fill="#C8D1EF"/>
<path fill-rule="evenodd" clip-rule="evenodd" d="M2.66675 13.3334C2.66675 12.9652 3.03886 12.6667 3.33341 12.6667H12.6667C12.9613 12.6667 13.3334 12.9652 13.3334 13.3334C13.3334 13.7016 12.9613 14.0001 12.6667 14.0001H3.33341C3.03886 14.0001 2.66675 13.7016 2.66675 13.3334Z" fill="#C8D1EF"/>
</svg>
