<svg width="28" height="32" viewBox="0 0 28 32" fill="none" xmlns="http://www.w3.org/2000/svg">
<path d="M25.9486 0H13.2589C12.7148 0 12.1931 0.223933 11.8083 0.622537C11.4236 1.02114 11.2075 1.56176 11.2075 2.12547V8.48883C10.1019 8.73906 9.02392 9.10554 7.99018 9.58259C7.09984 9.98698 6.23099 10.4404 5.38733 10.9408C4.54764 11.4333 3.82437 12.1135 3.27004 12.9318C2.71571 13.7501 2.34424 14.6861 2.18261 15.6717L0.011464 28.6335C-0.0240549 28.8469 0.0237178 29.0663 0.144273 29.2432C0.264828 29.4202 0.44829 29.5402 0.654299 29.577C0.860308 29.6138 1.07199 29.5644 1.24278 29.4394C1.41356 29.3145 1.52946 29.1245 1.56498 28.911L3.73613 15.9361C3.86126 15.1905 4.1447 14.483 4.56595 13.8647C4.98721 13.2465 5.53576 12.7329 6.17197 12.361C6.96491 11.8963 7.78116 11.4756 8.61726 11.1008C9.45317 10.7181 10.3199 10.4121 11.2075 10.1866V15.6292C11.0211 15.5528 10.8307 15.4874 10.6372 15.4333C10.5372 15.4048 10.4328 15.397 10.33 15.4103C10.2271 15.4236 10.1278 15.4577 10.0377 15.5108C9.85565 15.6179 9.72217 15.7956 9.6666 16.0047C9.63908 16.1083 9.63151 16.2164 9.64433 16.323C9.65715 16.4296 9.69011 16.5325 9.74131 16.6258C9.84473 16.8144 10.0162 16.9527 10.218 17.0103C10.6314 17.1186 11.0187 17.3142 11.3556 17.5849C10.8733 18.3587 10.2466 19.0248 9.51219 19.5439C9.33919 19.6677 9.22075 19.8577 9.18293 20.072C9.14511 20.2863 9.191 20.5074 9.31051 20.6866C9.43003 20.8659 9.61336 20.9886 9.8202 21.0278C10.027 21.067 10.2404 21.0194 10.4134 20.8956C11.3474 20.2311 12.139 19.3741 12.739 18.3783L15.304 14.1861C15.5004 13.8627 15.8128 13.6334 16.1724 13.5486C16.532 13.4638 16.9093 13.5305 17.2215 13.7339C17.5336 13.9374 17.755 14.2611 17.8368 14.6337C17.9187 15.0062 17.8543 15.3972 17.6579 15.7207L15.742 18.9366C14.9727 20.2153 14.5857 21.7011 14.6297 23.2072C14.6607 24.2152 14.4459 25.2151 14.0053 26.1145C13.5647 27.0138 12.9124 27.7836 12.1087 28.3527L11.9008 28.5029C11.0659 29.0942 10.3578 29.8579 9.821 30.7459C9.76596 30.8372 9.72883 30.9389 9.71171 31.0451C9.69459 31.1513 9.69783 31.2599 9.72124 31.3648C9.74465 31.4697 9.78777 31.5688 9.84814 31.6565C9.90851 31.7441 9.98495 31.8185 10.0731 31.8756C10.1612 31.9326 10.2594 31.9711 10.3619 31.9888C10.4643 32.0065 10.5692 32.0032 10.6705 31.9789C10.7717 31.9547 10.8673 31.91 10.9519 31.8474C11.0365 31.7849 11.1084 31.7057 11.1634 31.6144C11.5854 30.9153 12.1422 30.3139 12.7988 29.848L13.0068 29.6979C14.1838 28.859 15.1001 27.6839 15.6443 26.3154L15.8366 26.5178C16.1389 26.8351 16.5155 27.0658 16.9296 27.1873C17.3437 27.3088 17.7812 27.317 18.1992 27.2111C18.6173 27.1052 19.0017 26.8888 19.315 26.583C19.6283 26.2773 19.8597 25.8926 19.9866 25.4665C20.4067 25.5642 20.8444 25.5438 21.2543 25.4073C21.6641 25.2708 22.0313 25.0231 22.3177 24.6901C22.6042 24.357 22.7994 23.9506 22.8832 23.5131C22.967 23.0755 22.9363 22.6227 22.7943 22.2016L22.7565 22.0873H25.9486C26.218 22.0873 26.4847 22.0323 26.7336 21.9255C26.9825 21.8187 27.2087 21.6621 27.3992 21.4648C27.5896 21.2674 27.7408 21.0331 27.8438 20.7752C27.9469 20.5173 28 20.2409 28 19.9618V2.12547C28 1.84635 27.9469 1.56996 27.8438 1.31209C27.7408 1.05422 27.5896 0.819905 27.3992 0.622537C27.2087 0.425168 26.9825 0.268607 26.7336 0.161792C26.4847 0.054977 26.218 0 25.9486 0ZM19.0161 16.5859C19.4059 15.8974 19.5217 15.0787 19.3392 14.3033C19.1566 13.5278 18.6899 12.8564 18.0379 12.4312C17.3859 12.006 16.5998 11.8604 15.846 12.0253C15.0922 12.1901 14.43 12.6525 13.9994 13.3144L12.7957 15.2734V2.12547C12.7956 1.99695 12.844 1.87349 12.9306 1.7814C13.0171 1.68931 13.1349 1.63587 13.2589 1.63247H22.5233V20.4483H16.7441C16.8435 20.2237 16.9561 20.0056 17.0813 19.7953L19.0161 16.5859ZM18.1936 25.4404C18.0167 25.5901 17.7921 25.6658 17.5641 25.6525C17.336 25.6392 17.1211 25.5379 16.9615 25.3685L16.1265 24.487C16.1896 24.0472 16.216 23.6027 16.2052 23.1582C16.1962 22.7977 16.2183 22.4371 16.2714 22.0808H17.1506C17.1506 22.0808 17.1506 22.1134 17.1726 22.1297L18.4016 24.1997C18.5184 24.3974 18.5617 24.6323 18.5234 24.8607C18.4852 25.089 18.3679 25.2951 18.1936 25.4404ZM21.3133 22.737C21.3795 22.938 21.3724 23.1573 21.2932 23.3532C21.214 23.5492 21.0682 23.7082 20.8834 23.8003C20.6987 23.8924 20.4877 23.9112 20.2905 23.853C20.0933 23.7948 19.9235 23.6638 19.8133 23.4847C19.7881 23.439 19.766 23.3933 19.7408 23.3476L18.994 22.0873H21.0895L21.3133 22.737ZM26.4213 19.9553C26.4213 20.086 26.3711 20.2114 26.2819 20.3039C26.1927 20.3963 26.0716 20.4483 25.9454 20.4483H24.0989V1.63247H25.9486C26.0748 1.63247 26.1958 1.68441 26.2851 1.77687C26.3743 1.86932 26.4244 1.99472 26.4244 2.12547L26.4213 19.9553Z" fill="#C8D1EF"/>
</svg>
