<svg width="24" height="24" viewBox="0 0 24 24" fill="none" xmlns="http://www.w3.org/2000/svg">
<path d="M12 0C5.37253 0 0 5.37253 0 12C0 18.6275 5.37253 24 12 24C18.6275 24 24 18.6275 24 12C24 5.37253 18.6275 0 12 0ZM12 4.41653C13.1781 4.41653 14.1333 5.37173 14.1333 6.54987C14.1333 7.728 13.1781 8.6832 12 8.6832C10.8219 8.6832 9.86667 7.728 9.86667 6.54987C9.86667 5.37173 10.8219 4.41653 12 4.41653ZM15.2 19.0501C15.2 19.3445 14.9611 19.4667 14.6667 19.4667H9.33333C9.03893 19.4667 8.8 19.3445 8.8 19.0501V18.7835C8.8 18.4888 9.03893 18.1333 9.33333 18.1333H9.86667V11.4667H9.33333C9.03893 11.4667 8.8 11.3445 8.8 11.0501V10.7835C8.8 10.4888 9.03893 10.1333 9.33333 10.1333H13.6C13.8944 10.1333 14.1333 10.4888 14.1333 10.7835V11.0501V18.1333H14.6667C14.9611 18.1333 15.2 18.4888 15.2 18.7835V19.0501Z" fill="#C8D9F8"/>
</svg>
