<svg width="24" height="24" viewBox="0 0 24 24" fill="none" xmlns="http://www.w3.org/2000/svg">
<path d="M17.8735 11.9974C17.8735 12.3089 17.8523 12.6204 17.8116 12.9301C17.824 12.8363 17.8364 12.7425 17.8488 12.6469C17.7656 13.254 17.6045 13.8486 17.3656 14.4132C17.401 14.3282 17.4364 14.2433 17.4718 14.1601C17.2382 14.7123 16.9338 15.2308 16.5674 15.7051C16.6223 15.6343 16.6789 15.5618 16.7338 15.491C16.3727 15.9547 15.9551 16.3723 15.4914 16.7334C15.5622 16.6785 15.6347 16.6219 15.7055 16.567C15.2312 16.9334 14.7127 17.2378 14.1605 17.4714C14.2454 17.436 14.3304 17.4006 14.4136 17.3652C13.849 17.6023 13.2544 17.7652 12.6473 17.8483C12.7411 17.836 12.8349 17.8236 12.9305 17.8112C12.3111 17.8926 11.6828 17.8926 11.0634 17.8112C11.1572 17.8236 11.2509 17.836 11.3465 17.8483C10.7395 17.7652 10.1448 17.6041 9.58026 17.3652C9.66521 17.4006 9.75016 17.436 9.83334 17.4714C9.28117 17.2378 8.76261 16.9334 8.28831 16.567C8.3591 16.6219 8.43166 16.6785 8.50245 16.7334C8.03877 16.3723 7.6211 15.9547 7.26006 15.491C7.31492 15.5618 7.37155 15.6343 7.42642 15.7051C7.06007 15.2308 6.75566 14.7123 6.52205 14.1601C6.55745 14.245 6.59284 14.33 6.62824 14.4132C6.39109 13.8486 6.22827 13.254 6.14508 12.6469C6.15747 12.7407 6.16986 12.8345 6.18225 12.9301C6.10084 12.3107 6.10084 11.6824 6.18225 11.0629C6.16986 11.1567 6.15747 11.2505 6.14508 11.3461C6.22827 10.7391 6.38932 10.1444 6.62824 9.57986C6.59284 9.66481 6.55745 9.74976 6.52205 9.83294C6.75566 9.28076 7.06007 8.76221 7.42642 8.28791C7.37155 8.3587 7.31492 8.43126 7.26006 8.50205C7.6211 8.03836 8.03877 7.62069 8.50245 7.25965C8.43166 7.31452 8.3591 7.37115 8.28831 7.42601C8.76261 7.05967 9.28117 6.75526 9.83334 6.52165C9.74839 6.55704 9.66344 6.59244 9.58026 6.62784C10.1448 6.39068 10.7395 6.22786 11.3465 6.14468C11.2527 6.15707 11.1589 6.16946 11.0634 6.18185C11.6828 6.10044 12.3111 6.10044 12.9305 6.18185C12.8367 6.16946 12.7429 6.15707 12.6473 6.14468C13.2544 6.22786 13.849 6.38891 14.4136 6.62784C14.3286 6.59244 14.2437 6.55704 14.1605 6.52165C14.7127 6.75526 15.2312 7.05967 15.7055 7.42601C15.6347 7.37115 15.5622 7.31452 15.4914 7.25965C15.9551 7.62069 16.3727 8.03836 16.7338 8.50205C16.6789 8.43126 16.6223 8.3587 16.5674 8.28791C16.9338 8.76221 17.2382 9.28076 17.4718 9.83294C17.4364 9.74799 17.401 9.66304 17.3656 9.57986C17.6028 10.1444 17.7656 10.7391 17.8488 11.3461C17.8364 11.2523 17.824 11.1585 17.8116 11.0629C17.8523 11.3744 17.8735 11.6859 17.8735 11.9974C17.8735 12.2699 17.9921 12.5549 18.185 12.7478C18.3691 12.9319 18.6717 13.0699 18.9354 13.0593C19.2097 13.0469 19.4947 12.9566 19.6858 12.7478C19.8769 12.5407 19.9973 12.2841 19.9973 11.9974C19.9955 11.1798 19.8734 10.3462 19.6203 9.56747C19.3761 8.81531 19.0274 8.08438 18.5673 7.44017C18.3142 7.08444 18.0381 6.73933 17.7355 6.42431C17.4346 6.11283 17.1037 5.84205 16.7603 5.58012C16.1285 5.09519 15.4188 4.73592 14.6737 4.4616C13.9092 4.18021 13.0845 4.03685 12.2721 4.005C11.8934 3.99084 11.5129 4.00677 11.1377 4.05278C10.6917 4.10765 10.251 4.17844 9.81918 4.30055C9.05817 4.51647 8.31309 4.84919 7.65295 5.28456C6.99813 5.71639 6.39109 6.23494 5.892 6.84021C5.61238 7.17824 5.34868 7.5322 5.12391 7.90917C4.89915 8.28437 4.72217 8.67903 4.55581 9.08254C4.24609 9.83825 4.08327 10.6435 4.02133 11.4558C3.95762 12.2788 4.03903 13.1248 4.2337 13.9265C4.32042 14.2804 4.43369 14.6255 4.57351 14.9618C4.74164 15.3653 4.92039 15.7582 5.14692 16.1316C5.5522 16.7989 6.06013 17.4236 6.64594 17.9439C7.23528 18.466 7.89364 18.9208 8.61218 19.2447C9.0157 19.427 9.42629 19.5916 9.85281 19.7102C10.2899 19.8323 10.7359 19.9013 11.1855 19.9544C12.012 20.05 12.8526 19.9898 13.6667 19.8252C14.4472 19.6677 15.2118 19.3704 15.9073 18.9828C16.5904 18.6023 17.2276 18.1085 17.7673 17.5422C18.3089 16.9758 18.7814 16.3246 19.1301 15.6219C19.4894 14.8963 19.7584 14.13 19.8805 13.3336C19.9477 12.8894 19.9973 12.4469 19.9973 11.9974C19.9973 11.7249 19.8787 11.4381 19.6858 11.247C19.5017 11.0629 19.1991 10.9249 18.9354 10.9355C18.6611 10.9479 18.3762 11.0382 18.185 11.247C17.9939 11.4541 17.8735 11.7089 17.8735 11.9974Z" fill="#C8D1EF"/>
<path d="M13.042 15.0326C13.042 14.2221 13.042 13.4097 13.042 12.5992C13.042 12.4841 13.042 12.3691 13.042 12.254C13.042 11.9815 12.9234 11.6966 12.7305 11.5036C12.5464 11.3196 12.2438 11.1815 11.9801 11.1922C11.7058 11.2046 11.4208 11.2948 11.2297 11.5036C11.0386 11.7107 10.9182 11.9673 10.9182 12.254C10.9182 13.0646 10.9182 13.8769 10.9182 14.6875C10.9182 14.8025 10.9182 14.9176 10.9182 15.0326C10.9182 15.3052 11.0368 15.5901 11.2297 15.783C11.4138 15.9671 11.7164 16.1051 11.9801 16.0945C12.2544 16.0821 12.5393 15.9919 12.7305 15.783C12.9216 15.576 13.042 15.3211 13.042 15.0326Z" fill="#C8D1EF"/>
<path d="M13.042 9.05069C13.042 9.0383 13.042 9.02591 13.042 9.01529C13.0473 8.8684 13.0172 8.73213 12.9499 8.60647C12.9075 8.47551 12.8331 8.36047 12.7305 8.2649C12.6349 8.16048 12.5199 8.08792 12.3889 8.04545C12.2615 7.97819 12.1252 7.94811 11.9801 7.95342C11.8863 7.9658 11.7925 7.97819 11.6969 7.99058C11.5164 8.04191 11.3607 8.13217 11.2279 8.26313C11.1731 8.33392 11.1164 8.40648 11.0616 8.47728C10.966 8.64364 10.9164 8.82239 10.9164 9.01352C10.9164 9.02591 10.9164 9.0383 10.9164 9.04892C10.9111 9.19581 10.9412 9.33209 11.0085 9.45774C11.0509 9.58871 11.1253 9.70375 11.2279 9.79931C11.3235 9.90373 11.4385 9.97629 11.5695 10.0188C11.6969 10.086 11.8332 10.1161 11.9783 10.1108C12.0721 10.0984 12.1659 10.086 12.2615 10.0736C12.442 10.0223 12.5978 9.93205 12.7305 9.80108C12.7854 9.73029 12.842 9.65773 12.8968 9.58694C12.9924 9.42058 13.042 9.24183 13.042 9.05069Z" fill="#C8D1EF"/>
</svg>
