<svg width="28" height="28" viewBox="0 0 28 28" fill="none" xmlns="http://www.w3.org/2000/svg">
<path d="M7.11031 4.67214C7.6521 0.242406 10.6526 0.00295086 11.3822 0.00292969C12.1118 0.00290852 13.0845 0.246102 13.6682 1.0243C14.2518 1.8025 14.1545 3.11572 14.1545 3.11572L12.8413 2.82389C12.8413 2.82389 12.9989 1.57083 11.674 1.55932C10.3491 1.54781 10.1812 3.23494 10.3204 4.47758C10.4523 5.65534 11.2052 6.19479 12.1118 6.95809C13.1268 7.81269 14.2518 7.54174 15.2246 8.31994C16.1973 9.09814 16.3919 10.1195 16.3919 10.1195C16.3919 10.1195 22.2592 11.53 22.2592 15.0806C22.2592 18.6311 19.8451 19.2147 18.2401 19.2147C16.6351 19.2147 14.8355 17.4638 14.8355 17.4638C14.8355 17.4638 16.4974 20.2283 18.2401 20.2283C19.9828 20.2283 20.7692 19.5552 20.7692 19.5552C20.7692 19.5552 21.7418 20.7712 21.7418 22.9599C21.7418 25.1485 20.1854 26.5104 20.1854 26.5104C20.1854 26.5104 20.3803 27.0091 20.7692 27.1427C21.1582 27.2763 22.1309 27.4345 22.1309 27.4345C22.1309 27.4345 21.1095 27.775 20.3087 27.6833C19.5079 27.5915 19.7477 27.2886 19.2252 27.2763C18.7027 27.264 17.8508 27.9209 15.3217 27.9209C12.7925 27.9209 10.7499 25.8295 10.7499 25.8295V27.9209C10.7499 27.9209 6.46963 27.9209 5.88599 27.9209C5.172 27.9209 6.29288 26.9507 6.51844 26.3158C7.00232 24.954 7.20759 22.2604 7.68574 21.6953C8.22076 21.063 10.8958 22.133 10.8958 22.133C10.8958 22.133 9.69632 20.6739 8.03442 20.4307C7.93715 19.993 8.02128 17.6287 7.92893 16.4424C7.83658 15.2561 7.06167 14.4483 6.91576 13.3783C6.76985 12.3082 6.42117 10.4114 6.71299 10.2655C7.00482 10.1195 8.41531 10.9464 8.41531 10.9464C8.41531 10.9464 6.56853 9.10186 7.11031 4.67214Z" fill="white"/>
<path d="M12.2995 9.5218C12.1734 9.518 12.1202 9.36519 12.2327 9.30806C12.5406 9.15167 12.9896 9.02395 13.3359 9.34139C13.6757 9.65281 13.6199 10.0302 13.5139 10.2912C13.4687 10.4027 13.3186 10.3639 13.2929 10.2463C13.2545 10.0707 13.1817 9.8682 13.0441 9.73057C12.8883 9.57473 12.566 9.52982 12.2995 9.5218Z" fill="#33C6D9"/>
</svg>
