<svg width="16" height="16" viewBox="0 0 16 16" fill="none" xmlns="http://www.w3.org/2000/svg">
<path d="M13.9378 8.48334C13.946 8.46835 13.9542 8.45473 13.9596 8.43974C13.9672 8.42015 13.9735 8.40013 13.9787 8.37979C13.9787 8.36617 13.9869 8.3539 13.9896 8.33892C14.0032 8.26964 14.0032 8.19838 13.9896 8.1291C13.9896 8.11547 13.9814 8.10321 13.9787 8.08958C13.9735 8.06924 13.9672 8.04923 13.9596 8.02963C13.9596 8.01465 13.946 8.00102 13.9378 7.9874C13.9296 7.97058 13.9205 7.95421 13.9106 7.93835C13.901 7.92336 13.8888 7.90974 13.8779 7.89611C13.867 7.88249 13.8615 7.87295 13.852 7.86205L11.4813 5.34009C11.3823 5.23476 11.2455 5.17307 11.101 5.1686C10.9565 5.16412 10.8161 5.21724 10.7108 5.31625C10.6055 5.41526 10.5438 5.55206 10.5393 5.69655C10.5348 5.84105 10.5879 5.9814 10.6869 6.08673L12.1952 7.69038H6.5C6.35546 7.69038 6.21684 7.74779 6.11463 7.85C6.01243 7.95221 5.95501 8.09083 5.95501 8.23537C5.95501 8.37991 6.01243 8.51853 6.11463 8.62074C6.21684 8.72294 6.35546 8.78036 6.5 8.78036H12.1952L10.6869 10.3826C10.6379 10.4348 10.5996 10.4961 10.5743 10.563C10.549 10.63 10.5371 10.7013 10.5393 10.7728C10.5415 10.8444 10.5578 10.9148 10.5872 10.98C10.6166 11.0453 10.6586 11.1041 10.7108 11.1531C10.7629 11.2022 10.8242 11.2404 10.8912 11.2658C10.9581 11.2911 11.0294 11.303 11.101 11.3008C11.1725 11.2986 11.2429 11.2823 11.3082 11.2529C11.3734 11.2234 11.4323 11.1814 11.4813 11.1293L13.8534 8.60869C13.8629 8.59779 13.8697 8.58689 13.8792 8.57599C13.8913 8.56204 13.9027 8.54749 13.9133 8.53239C13.9223 8.51647 13.9305 8.5001 13.9378 8.48334Z" fill="#C8D1EF"/>
<path d="M4.90748 13.6472H7.11061C7.61651 13.6472 8.10168 13.4462 8.4594 13.0885C8.81713 12.7308 9.01809 12.2456 9.01809 11.7397V10.8241C9.01809 10.6796 8.96067 10.541 8.85847 10.4387C8.75626 10.3365 8.61764 10.2791 8.4731 10.2791C8.32856 10.2791 8.18994 10.3365 8.08773 10.4387C7.98552 10.541 7.9281 10.6796 7.9281 10.8241V11.7438C7.9281 11.9606 7.84198 12.1685 7.68867 12.3218C7.53536 12.4752 7.32743 12.5613 7.11061 12.5613H4.90748C4.69067 12.5613 4.48273 12.4752 4.32942 12.3218C4.17612 12.1685 4.08999 11.9606 4.08999 11.7438V4.73109C4.08999 4.51427 4.17612 4.30634 4.32942 4.15303C4.48273 3.99972 4.69067 3.9136 4.90748 3.9136H7.11061C7.32743 3.9136 7.53536 3.99972 7.68867 4.15303C7.84198 4.30634 7.9281 4.51427 7.9281 4.73109V5.64668C7.9281 5.79122 7.98552 5.92984 8.08773 6.03204C8.18994 6.13425 8.32856 6.19167 8.4731 6.19167C8.61764 6.19167 8.75626 6.13425 8.85847 6.03204C8.96067 5.92984 9.01809 5.79122 9.01809 5.64668V4.73109C9.01809 4.22519 8.81713 3.74002 8.4594 3.3823C8.10168 3.02457 7.61651 2.82361 7.11061 2.82361H4.90748C4.40158 2.82361 3.91641 3.02457 3.55869 3.3823C3.20097 3.74002 3 4.22519 3 4.73109V11.7397C3 12.2456 3.20097 12.7308 3.55869 13.0885C3.91641 13.4462 4.40158 13.6472 4.90748 13.6472Z" fill="#C8D1EF"/>
</svg>
