<svg width="24" height="24" viewBox="0 0 24 24" fill="none" xmlns="http://www.w3.org/2000/svg">
<path d="M6.5 12.5V18.5C6.5 19.0523 6.94771 19.5 7.5 19.5H16.5C17.0523 19.5 17.5 19.0523 17.5 18.5V12.5" stroke="white" stroke-width="1.5"/>
<path fill-rule="evenodd" clip-rule="evenodd" d="M7.11005 5.5L5.02102 11.3984C5.0431 11.5458 5.08273 11.7141 5.14612 11.8633C5.21235 12.0191 5.2791 12.0953 5.32219 12.1291L5.32247 12.1293C5.34388 12.1461 5.41258 12.2 5.625 12.2C5.83742 12.2 5.90612 12.1461 5.92753 12.1293L5.92781 12.1291C5.9709 12.0953 6.03765 12.0191 6.10388 11.8633C6.16989 11.708 6.21014 11.5319 6.23163 11.3802C6.24182 11.3083 6.24652 11.2509 6.24861 11.2165C6.24964 11.1995 6.24999 11.1889 6.25008 11.1856C6.25013 11.184 6.25011 11.1843 6.25008 11.1866L6.25003 11.1917L6.25001 11.1954L6.25 11.1976L6.25 11.1988C6.25 11.1994 6.25 11.2 7.75 11.2C7.75 11.2 7.74999 12.6738 6.78815 13.3582C6.49727 13.5652 6.11842 13.7 5.625 13.7C3.5 13.7 3.5 11.2 3.5 11.2L5.81407 4.66615C5.95548 4.26687 6.33312 4 6.7567 4H17.2433C17.6669 4 18.0445 4.26687 18.1859 4.66615L20.5 11.2C20.5 11.2 20.5 13.7 18.375 13.7C17.8816 13.7 17.5027 13.5652 17.2118 13.3582C16.25 12.6738 16.25 11.2 16.25 11.2C17.75 11.2 17.75 11.1994 17.75 11.1988L17.75 11.1976L17.75 11.1954L17.75 11.1917L17.7499 11.1866C17.7499 11.1843 17.7499 11.184 17.7499 11.1856C17.75 11.1889 17.7504 11.1995 17.7514 11.2165C17.7535 11.2509 17.7582 11.3083 17.7684 11.3802C17.7899 11.5319 17.8301 11.708 17.8961 11.8633C17.9624 12.0191 18.0291 12.0953 18.0722 12.1291L18.0725 12.1293C18.0939 12.1461 18.1626 12.2 18.375 12.2C18.5874 12.2 18.6561 12.1461 18.6775 12.1293L18.6778 12.1291C18.7209 12.0953 18.7876 12.0191 18.8539 11.8633C18.9173 11.7141 18.9569 11.5458 18.979 11.3984L16.89 5.5H7.11005ZM16.7723 5.16771L16.772 5.16692L17.2433 5L16.772 5.16692C16.7721 5.16719 16.7722 5.16745 16.7723 5.16771ZM15.2882 13.3582C16.25 12.6738 16.25 11.2 16.25 11.2C14.75 11.2 14.75 11.1994 14.75 11.1988L14.75 11.1976L14.75 11.1954L14.75 11.1917L14.7501 11.1866C14.7501 11.1843 14.7501 11.184 14.7501 11.1856C14.75 11.1889 14.7496 11.1995 14.7486 11.2165C14.7465 11.2509 14.7418 11.3083 14.7316 11.3802C14.7101 11.5319 14.6699 11.708 14.6039 11.8633C14.5376 12.0191 14.4709 12.0953 14.4278 12.1291L14.4275 12.1293C14.4061 12.1461 14.3374 12.2 14.125 12.2C13.9126 12.2 13.8439 12.1461 13.8225 12.1293L13.8222 12.1291C13.7791 12.0953 13.7124 12.0191 13.6461 11.8633C13.5801 11.708 13.5399 11.5319 13.5184 11.3802C13.5082 11.3083 13.5035 11.2509 13.5014 11.2165C13.5004 11.1995 13.5 11.1889 13.4999 11.1856C13.4999 11.184 13.4999 11.1843 13.4999 11.1866L13.5 11.1917L13.5 11.1954L13.5 11.1976L13.5 11.1988C13.5 11.1994 13.5 11.2 12 11.2C10.5 11.2 10.5 11.1994 10.5 11.1988L10.5 11.1976L10.5 11.1954L10.5 11.1917L10.5001 11.1866C10.5001 11.1843 10.5001 11.184 10.5001 11.1856C10.5 11.1889 10.4996 11.1995 10.4986 11.2165C10.4965 11.2509 10.4918 11.3083 10.4816 11.3802C10.4601 11.5319 10.4199 11.708 10.3539 11.8633C10.2876 12.0191 10.2209 12.0953 10.1778 12.1291L10.1775 12.1293C10.1561 12.1461 10.0874 12.2 9.875 12.2C9.66258 12.2 9.59388 12.1461 9.57247 12.1293L9.57219 12.1291C9.5291 12.0953 9.46235 12.0191 9.39612 11.8633C9.33011 11.708 9.28986 11.5319 9.26837 11.3802C9.25818 11.3083 9.25348 11.2509 9.25139 11.2165C9.25036 11.1995 9.25001 11.1889 9.24992 11.1856C9.24987 11.184 9.24989 11.1843 9.24992 11.1866L9.24997 11.1917L9.24999 11.1954L9.25 11.1976L9.25 11.1988C9.25 11.1994 9.25 11.2 7.75 11.2C7.75 11.2 7.75001 12.6738 8.71185 13.3582C9.00273 13.5652 9.38158 13.7 9.875 13.7C10.3684 13.7 10.7473 13.5652 11.0382 13.3582C12 12.6738 12 11.2 12 11.2C12 11.2 12 12.6738 12.9618 13.3582C13.2527 13.5652 13.6316 13.7 14.125 13.7C14.6184 13.7 14.9973 13.5652 15.2882 13.3582Z" fill="white"/>
</svg>
