<svg width="24" height="19" viewBox="0 0 24 19" fill="none" xmlns="http://www.w3.org/2000/svg">
<path d="M4.36316 18.9058V17.6482C4.36316 17.1661 4.07504 16.8517 3.58111 16.8517C3.33414 16.8517 3.0666 16.9356 2.88137 17.208C2.73731 16.9775 2.5315 16.8517 2.2228 16.8517C2.01699 16.8517 1.81119 16.9146 1.64654 17.1451V16.8936H1.21436V18.9058H1.64654V17.7949C1.64654 17.4386 1.83177 17.2709 2.1199 17.2709C2.40802 17.2709 2.55208 17.4595 2.55208 17.7949V18.9058H2.98427V17.7949C2.98427 17.4386 3.19008 17.2709 3.45762 17.2709C3.74575 17.2709 3.88981 17.4595 3.88981 17.7949V18.9058H4.36316ZM10.7637 16.8936H10.0639V16.2858H9.63176V16.8936H9.24073V17.2919H9.63176V18.2141C9.63176 18.6752 9.81698 18.9477 10.3109 18.9477C10.4961 18.9477 10.7019 18.8848 10.846 18.801L10.7225 18.4237C10.599 18.5075 10.455 18.5285 10.3521 18.5285C10.1463 18.5285 10.0639 18.4027 10.0639 18.1931V17.2919H10.7637V16.8936ZM14.427 16.8517C14.18 16.8517 14.0154 16.9775 13.9125 17.1451V16.8936H13.4803V18.9058H13.9125V17.7739C13.9125 17.4386 14.0566 17.2499 14.3241 17.2499C14.4064 17.2499 14.5093 17.2709 14.5916 17.2919L14.7151 16.8727C14.6328 16.8517 14.5093 16.8517 14.427 16.8517ZM8.89086 17.0613C8.68506 16.9146 8.39693 16.8517 8.08822 16.8517C7.59429 16.8517 7.26501 17.1032 7.26501 17.5015C7.26501 17.8368 7.51197 18.0255 7.94416 18.0883L8.14997 18.1093C8.37635 18.1512 8.49983 18.2141 8.49983 18.3189C8.49983 18.4656 8.33519 18.5704 8.04706 18.5704C7.75894 18.5704 7.53255 18.4656 7.38849 18.3608L7.18268 18.6962C7.40907 18.8638 7.71778 18.9477 8.02648 18.9477C8.60274 18.9477 8.93202 18.6752 8.93202 18.2979C8.93202 17.9416 8.66448 17.753 8.25287 17.6901L8.04706 17.6691C7.86184 17.6482 7.71778 17.6063 7.71778 17.4805C7.71778 17.3338 7.86184 17.2499 8.08822 17.2499C8.33519 17.2499 8.58215 17.3547 8.70564 17.4176L8.89086 17.0613ZM20.3748 16.8517C20.1278 16.8517 19.9631 16.9775 19.8602 17.1451V16.8936H19.428V18.9058H19.8602V17.7739C19.8602 17.4386 20.0043 17.2499 20.2718 17.2499C20.3542 17.2499 20.4571 17.2709 20.5394 17.2919L20.6629 16.8727C20.5806 16.8517 20.4571 16.8517 20.3748 16.8517ZM14.8592 17.8997C14.8592 18.5075 15.2708 18.9477 15.9088 18.9477C16.1969 18.9477 16.4027 18.8848 16.6085 18.7171L16.4027 18.3608C16.2381 18.4866 16.0734 18.5494 15.8882 18.5494C15.5383 18.5494 15.2914 18.2979 15.2914 17.8997C15.2914 17.5224 15.5383 17.2709 15.8882 17.2499C16.0734 17.2499 16.2381 17.3128 16.4027 17.4386L16.6085 17.0823C16.4027 16.9146 16.1969 16.8517 15.9088 16.8517C15.2708 16.8517 14.8592 17.2919 14.8592 17.8997ZM18.8518 17.8997V16.8936H18.4196V17.1451C18.2755 16.9565 18.0697 16.8517 17.8022 16.8517C17.2465 16.8517 16.8143 17.2919 16.8143 17.8997C16.8143 18.5075 17.2465 18.9477 17.8022 18.9477C18.0903 18.9477 18.2961 18.8429 18.4196 18.6542V18.9058H18.8518V17.8997ZM17.2671 17.8997C17.2671 17.5434 17.4935 17.2499 17.8639 17.2499C18.2138 17.2499 18.4608 17.5224 18.4608 17.8997C18.4608 18.256 18.2138 18.5494 17.8639 18.5494C17.4935 18.5285 17.2671 18.256 17.2671 17.8997ZM12.1014 16.8517C11.5252 16.8517 11.1136 17.2709 11.1136 17.8997C11.1136 18.5285 11.5252 18.9477 12.122 18.9477C12.4101 18.9477 12.6982 18.8638 12.9246 18.6752L12.7188 18.3608C12.5542 18.4866 12.3484 18.5704 12.1426 18.5704C11.875 18.5704 11.6075 18.4446 11.5457 18.0883H13.007V17.9207C13.0275 17.2709 12.6571 16.8517 12.1014 16.8517ZM12.1014 17.229C12.369 17.229 12.5542 17.3967 12.5953 17.7111H11.5663C11.6075 17.4386 11.7927 17.229 12.1014 17.229ZM22.8238 17.8997V16.0972H22.3916V17.1451C22.2476 16.9565 22.0418 16.8517 21.7742 16.8517C21.2185 16.8517 20.7864 17.2919 20.7864 17.8997C20.7864 18.5075 21.2185 18.9477 21.7742 18.9477C22.0623 18.9477 22.2682 18.8429 22.3916 18.6542V18.9058H22.8238V17.8997ZM21.2391 17.8997C21.2391 17.5434 21.4655 17.2499 21.836 17.2499C22.1858 17.2499 22.4328 17.5224 22.4328 17.8997C22.4328 18.256 22.1858 18.5494 21.836 18.5494C21.4655 18.5285 21.2391 18.256 21.2391 17.8997ZM6.79166 17.8997V16.8936H6.35947V17.1451C6.2154 16.9565 6.0096 16.8517 5.74205 16.8517C5.18638 16.8517 4.75419 17.2919 4.75419 17.8997C4.75419 18.5075 5.18638 18.9477 5.74205 18.9477C6.03018 18.9477 6.23598 18.8429 6.35947 18.6542V18.9058H6.79166V17.8997ZM5.18638 17.8997C5.18638 17.5434 5.41277 17.2499 5.78321 17.2499C6.13308 17.2499 6.38005 17.5224 6.38005 17.8997C6.38005 18.256 6.13308 18.5494 5.78321 18.5494C5.41277 18.5285 5.18638 18.256 5.18638 17.8997Z" fill="white"/>
<path d="M15.2294 1.61377H8.74658V13.4769H15.2294V1.61377Z" fill="#FF5F00"/>
<path d="M9.1583 7.54547C9.1583 5.13511 10.2696 2.99723 11.9778 1.61389C10.7224 0.60783 9.13772 0 7.40896 0C3.31345 0 0 3.3745 0 7.54547C0 11.7164 3.31345 15.0909 7.40896 15.0909C9.13772 15.0909 10.7224 14.4831 11.9778 13.4771C10.2696 12.1147 9.1583 9.95583 9.1583 7.54547Z" fill="#EB001B"/>
<path d="M23.9764 7.54547C23.9764 11.7164 20.6629 15.0909 16.5674 15.0909C14.8386 15.0909 13.2539 14.4831 11.9985 13.4771C13.7273 12.0937 14.8181 9.95583 14.8181 7.54547C14.8181 5.13511 13.7067 2.99723 11.9985 1.61389C13.2539 0.60783 14.8386 0 16.5674 0C20.6629 0 23.9764 3.39546 23.9764 7.54547Z" fill="#F79E1B"/>
</svg>
