<svg width="16" height="16" viewBox="0 0 16 16" fill="none" xmlns="http://www.w3.org/2000/svg">
<path d="M11.7583 14.6249C11.7583 14.9702 11.479 15.25 11.1345 15.25H2.49512C1.11926 15.25 0 14.1284 0 12.7499V5.56246C0 5.03519 0.161987 4.53079 0.468628 4.10369C0.6698 3.82348 1.05957 3.75988 1.33923 3.96132C1.6189 4.16288 1.6825 4.55354 1.48132 4.83375C1.32837 5.04681 1.24756 5.29876 1.24756 5.56246V12.7499C1.24756 13.4392 1.80725 13.9999 2.49512 13.9999H11.1345C11.479 13.9999 11.7583 14.2797 11.7583 14.6249ZM4.8949 7.6653C4.55505 7.60647 4.23267 7.8347 4.17395 8.17484C4.13611 8.39426 4.11694 8.61931 4.11694 8.84374C4.11694 10.9976 5.86584 12.7499 8.01562 12.7499C8.27136 12.7499 8.52722 12.725 8.77612 12.6755C9.11401 12.6085 9.33374 12.2796 9.26685 11.9411C9.19995 11.6024 8.8717 11.3823 8.53381 11.4494C8.3645 11.4829 8.19019 11.4999 8.01562 11.4999C6.55383 11.4999 5.3645 10.3084 5.3645 8.84374C5.3645 8.69049 5.37756 8.53712 5.40332 8.38766C5.46204 8.04752 5.23438 7.72413 4.8949 7.6653ZM15.8174 15.8169C15.6956 15.939 15.5359 16 15.3762 16C15.2166 16 15.0569 15.939 14.9351 15.8169L0.213867 1.06702C-0.0297852 0.82289 -0.0297852 0.4271 0.213867 0.183095C0.45752 -0.0610318 0.852417 -0.0610318 1.09607 0.183095L3.82617 2.91852C3.91077 2.84819 3.97668 2.75573 4.01489 2.64981L4.23083 2.05062C4.49768 1.31004 5.20508 0.812494 5.99097 0.812494H9.97595C10.7773 0.812494 11.4893 1.32325 11.7476 2.0834L11.9363 2.63892C12.0223 2.89222 12.2596 3.06248 12.5267 3.06248H13.4736C14.8495 3.06248 15.9688 4.18404 15.9688 5.56246V9.62493C15.9688 9.9702 15.6896 10.2499 15.345 10.2499C15.0005 10.2499 14.7212 9.9702 14.7212 9.62493V5.56246C14.7212 4.87325 14.1616 4.31247 13.4736 4.31247H12.5267C11.7255 4.31247 11.0134 3.80183 10.7552 3.04168L10.5664 2.48616C10.4803 2.23274 10.243 2.06248 9.97595 2.06248H5.99097C5.729 2.06248 5.49316 2.22833 5.40417 2.47515L5.18823 3.07434C5.08716 3.35492 4.92114 3.60369 4.70923 3.8033L6.25916 5.35625C6.80151 5.08179 7.40186 4.93746 8.01562 4.93746C10.1653 4.93746 11.9142 6.68977 11.9142 8.84374C11.9142 9.4603 11.7706 10.0606 11.4965 10.6038L14.4348 13.5478C14.618 13.3273 14.7212 13.0482 14.7212 12.7499C14.7212 12.4047 15.0005 12.1249 15.345 12.1249C15.6896 12.1249 15.9688 12.4047 15.9688 12.7499C15.9688 13.3871 15.734 13.9812 15.3197 14.4345L15.8174 14.933C16.0609 15.1771 16.0609 15.5729 15.8174 15.8169ZM7.21289 6.31184L10.5426 9.64804C10.6243 9.38997 10.6666 9.1193 10.6666 8.84374C10.6666 7.3791 9.47742 6.18745 8.01562 6.18745C7.74109 6.18745 7.4707 6.22989 7.21289 6.31184Z" fill="#C8D1EF"/>
</svg>
