<svg width="24" height="24" viewBox="0 0 24 24" fill="none" xmlns="http://www.w3.org/2000/svg">
<path d="M7.75736 7.75736C8.73892 6.7758 10.0304 6.16495 11.4119 6.02889C12.7933 5.89283 14.1792 6.23998 15.3334 7.01118C16.4876 7.78239 17.3387 8.92993 17.7416 10.2583C18.1446 11.5867 18.0745 13.0136 17.5433 14.2961C17.0121 15.5786 16.0526 16.6372 14.8284 17.2915C13.6042 17.9459 12.1909 18.1555 10.8295 17.8847C9.468 17.6139 8.24256 16.8794 7.36194 15.8064C6.48132 14.7333 6 13.3881 6 12M7.75736 7.75736L10.8295 8.5M7.75736 7.75736L8.5 4.5" stroke="#687E87" stroke-width="1.5" stroke-linecap="round"/>
<line x1="11.75" y1="13.25" x2="11.75" y2="10.75" stroke="#687E87" stroke-width="1.5" stroke-linecap="round"/>
<line x1="12.1352" y1="12.9938" x2="12.7936" y2="12.6646" stroke="#687E87" stroke-width="1.5" stroke-linecap="round"/>
</svg>
