<svg width="20" height="20" viewBox="0 0 20 20" fill="none" xmlns="http://www.w3.org/2000/svg">
<path d="M9.52002 3.72803H3.68669C3.24466 3.72803 2.82074 3.90362 2.50817 4.21618C2.19561 4.52874 2.02002 4.95267 2.02002 5.39469V17.0614C2.02002 17.5034 2.19561 17.9273 2.50817 18.2399C2.82074 18.5524 3.24466 18.728 3.68669 18.728H15.3534C15.7954 18.728 16.2193 18.5524 16.5319 18.2399C16.8444 17.9273 17.02 17.5034 17.02 17.0614V11.228" stroke="#5465FF" stroke-width="2" stroke-linecap="round" stroke-linejoin="round"/>
<path d="M15.77 2.47822C16.1015 2.1467 16.5512 1.96045 17.02 1.96045C17.4889 1.96045 17.9385 2.1467 18.27 2.47822C18.6015 2.80974 18.7878 3.25938 18.7878 3.72822C18.7878 4.19706 18.6015 4.6467 18.27 4.97822L10.3534 12.8949L7.02002 13.7282L7.85335 10.3949L15.77 2.47822Z" stroke="#5465FF" stroke-width="2" stroke-linecap="round" stroke-linejoin="round"/>
</svg>
