<svg width="24" height="24" viewBox="0 0 24 24" fill="none" xmlns="http://www.w3.org/2000/svg">
<path d="M18.7208 5.28022C18.3524 4.9118 17.7482 4.9118 17.3797 5.28022L5.28071 17.3793C4.91229 17.7477 4.91229 18.3519 5.28071 18.7203C5.47229 18.9119 5.70808 19.0003 5.94387 19.0003C6.17967 19.0003 6.43019 18.9119 6.60704 18.7203L18.7061 6.62129C19.0892 6.25286 19.0892 5.64865 18.7208 5.28022Z" fill="#C8D1EF"/>
<path d="M8.08002 11.16C9.77477 11.16 11.16 9.77477 11.16 8.08002C11.16 6.38527 9.77477 5 8.08002 5C6.38527 5 5 6.38527 5 8.08002C5 9.77477 6.38527 11.16 8.08002 11.16ZM8.08002 6.90106C8.72845 6.90106 9.25898 7.43159 9.25898 8.08002C9.25898 8.72845 8.72845 9.25898 8.08002 9.25898C7.43159 9.25898 6.90106 8.72845 6.90106 8.08002C6.90106 7.43159 7.43159 6.90106 8.08002 6.90106Z" fill="#C8D1EF"/>
<path d="M15.9199 12.8398C14.2251 12.8398 12.8398 14.2251 12.8398 15.9199C12.8398 17.6146 14.2251 18.9999 15.9199 18.9999C17.6146 18.9999 18.9999 17.6146 18.9999 15.9199C18.9999 14.2251 17.6146 12.8398 15.9199 12.8398ZM15.9199 17.0988C15.2714 17.0988 14.7409 16.5683 14.7409 15.9199C14.7409 15.2714 15.2714 14.7409 15.9199 14.7409C16.5683 14.7409 17.0988 15.2714 17.0988 15.9199C17.0988 16.5683 16.5683 17.0988 15.9199 17.0988Z" fill="#C8D1EF"/>
</svg>
