<svg width="16" height="16" viewBox="0 0 16 16" fill="none" xmlns="http://www.w3.org/2000/svg">
<path d="M11.9741 14H4.02591C3.88643 14 3.75266 13.945 3.65403 13.847C3.55541 13.749 3.5 13.6161 3.5 13.4775V11.5044C3.5003 10.6986 3.71992 9.9079 4.13561 9.21597C4.55129 8.52403 5.14757 7.95663 5.86132 7.57383C5.37556 7.14317 5.03295 6.57607 4.87887 5.94764C4.72479 5.31922 4.7665 4.65913 4.99849 4.05478C5.23047 3.45043 5.64178 2.93035 6.17794 2.56342C6.71409 2.19648 7.34981 2 8.00088 2C8.65195 2 9.28766 2.19648 9.82382 2.56342C10.36 2.93035 10.7713 3.45043 11.0033 4.05478C11.2352 4.65913 11.277 5.31922 11.1229 5.94764C10.9688 6.57607 10.6262 7.14317 10.1404 7.57383C10.8542 7.95642 11.4505 8.52382 11.8659 9.21584C12.2813 9.90786 12.5004 10.6987 12.5 11.5044V13.4775C12.5 13.6161 12.4446 13.749 12.346 13.847C12.2473 13.945 12.1136 14 11.9741 14ZM4.55181 12.9551H11.4482V11.5044C11.4478 10.782 11.2175 10.0782 10.7903 9.4936C10.363 8.90901 9.76069 8.47357 9.06934 8.24954C8.95171 8.21092 8.84822 8.13858 8.7719 8.04163C8.69558 7.94468 8.64985 7.82746 8.64048 7.70473C8.63111 7.58201 8.65851 7.45928 8.71923 7.352C8.77995 7.24472 8.87127 7.15769 8.98169 7.10188C9.3451 6.92005 9.64897 6.63932 9.85786 6.29242C10.0668 5.94553 10.1721 5.54678 10.1615 5.14269C10.1404 4.60342 9.91857 4.09112 9.539 3.70503C9.15943 3.31894 8.64912 3.08655 8.10693 3.05288C7.61502 3.02792 7.12929 3.17076 6.73031 3.4577C6.33133 3.74464 6.04306 4.15845 5.91332 4.63049C5.78358 5.10254 5.82017 5.60446 6.017 6.05301C6.21383 6.50157 6.55909 6.86981 6.99552 7.09666C7.10687 7.15447 7.19869 7.24348 7.25958 7.35266C7.32047 7.46184 7.34775 7.58637 7.33805 7.71082C7.32834 7.83526 7.28207 7.95413 7.20497 8.05268C7.12788 8.15124 7.02335 8.22514 6.90436 8.26521C6.22062 8.49311 5.62597 8.92814 5.20399 9.50916C4.78201 10.0902 4.55393 10.788 4.55181 11.5044V12.9551Z" fill="#C8D1EF"/>
</svg>
