<svg width="22" height="24" viewBox="0 0 22 24" fill="none" xmlns="http://www.w3.org/2000/svg">
<path d="M14.6835 20.5128C14.577 22.4566 12.9671 24 10.9967 24C9.02637 24 7.41648 22.4566 7.31004 20.5128H2.79568C1.43405 20.5128 0.330078 19.4113 0.330078 18.0513C0.330078 16.6931 1.43312 15.5897 2.79247 15.5897C2.79088 15.5897 2.79162 10.6664 2.79162 10.6664C2.79162 7.1986 4.96017 4.15824 8.12495 2.97796V2.86985C8.12495 1.28535 9.41252 0 10.9967 0C12.5827 0 13.8685 1.28458 13.8685 2.86985V2.97803C17.0332 4.15846 19.2019 7.19933 19.2019 10.6664V15.589C20.5583 15.5897 21.6634 16.6926 21.6634 18.0513C21.6634 19.4099 20.5586 20.5128 19.1978 20.5128H14.6835ZM13.0379 20.5128H8.95559C9.05851 21.5494 9.93308 22.359 10.9967 22.359C12.0604 22.359 12.935 21.5494 13.0379 20.5128ZM9.17285 4.35891C6.38702 5.16243 4.43264 7.72195 4.43264 10.6664V15.589C4.43264 16.4951 3.69742 17.2308 2.79247 17.2308C2.33953 17.2308 1.9711 17.5993 1.9711 18.0513C1.9711 18.5042 2.33953 18.8718 2.79568 18.8718H19.1978C19.6529 18.8718 20.0224 18.5029 20.0224 18.0513C20.0224 17.5997 19.6528 17.2308 19.201 17.2308C18.2943 17.2308 17.5608 16.4977 17.5608 15.589V10.6664C17.5608 7.72267 15.6063 5.16255 12.8206 4.35894L12.2275 4.18785V2.86985C12.2275 2.19126 11.6767 1.64103 10.9967 1.64103C10.3182 1.64103 9.76598 2.1923 9.76598 2.86985V4.18784L9.17285 4.35891Z" fill="#C8D1EF"/>
</svg>
