<svg width="16" height="16" viewBox="0 0 16 16" fill="none" xmlns="http://www.w3.org/2000/svg">
<path d="M1.55128 9.7418C1.50033 9.93279 1.48717 10.1322 1.51259 10.3283C1.53801 10.5245 1.60148 10.7137 1.69935 10.8848L2.39016 12.1002C2.58711 12.4457 2.91091 12.6978 3.29057 12.8012C3.67023 12.9046 4.07477 12.8508 4.41547 12.6517L4.71834 12.4721C5.06148 12.7279 5.43083 12.9454 5.81997 13.1207V13.4789C5.81997 14.3164 6.49301 15 7.30954 15H8.69143C9.50823 15 10.1813 14.3164 10.1813 13.4786V13.1204C10.5703 12.945 10.9396 12.7275 11.2826 12.4715L11.5868 12.6512C11.9274 12.8505 12.3319 12.9044 12.7115 12.801C13.0912 12.6977 13.4149 12.4455 13.6116 12.0999L14.3022 10.8845C14.4982 10.5384 14.5512 10.1274 14.4493 9.74174C14.3475 9.35605 14.0992 9.02714 13.7589 8.82715L13.4531 8.64777C13.5022 8.21728 13.5022 7.78245 13.4531 7.35195L13.7589 7.17258C14.0991 6.97255 14.3474 6.64359 14.4491 6.2579C14.5509 5.8722 14.4978 5.46126 14.3016 5.11523L13.6108 3.8998C13.4139 3.55425 13.0901 3.30212 12.7104 3.19873C12.3307 3.09533 11.9262 3.14912 11.5855 3.34828L11.2829 3.52793C10.9398 3.27205 10.5704 3.05459 10.1813 2.87934V2.52141C10.1813 1.68359 9.50823 1 8.69143 1H7.30954C6.49301 1 5.81997 1.68359 5.81997 2.52141V2.87961C5.43091 3.05497 5.06165 3.27253 4.71861 3.52848L4.41413 3.34883C4.24565 3.24989 4.05961 3.18566 3.86667 3.15981C3.67373 3.13396 3.47767 3.14699 3.28969 3.19817C3.10171 3.24934 2.92551 3.33765 2.77116 3.45804C2.61681 3.57843 2.48734 3.72855 2.39016 3.8998L1.69935 5.11523C1.50314 5.4613 1.45009 5.87228 1.55184 6.25802C1.65359 6.64377 1.90182 6.97277 2.24209 7.17285L2.54792 7.35223C2.49874 7.78272 2.49874 8.21755 2.54792 8.64805L2.24209 8.82742C2.07315 8.92588 1.9251 9.05739 1.80653 9.21434C1.68795 9.37129 1.6012 9.55057 1.55128 9.7418ZM2.74149 9.70598L3.64632 9.17578L3.58333 8.82414C3.48581 8.27945 3.48581 7.72137 3.58333 7.17668L3.64632 6.82422L2.74176 6.29375C2.6307 6.22845 2.54968 6.12107 2.51647 5.99517C2.48326 5.86927 2.50058 5.73514 2.56461 5.62219L3.25569 4.40703C3.3199 4.29407 3.42563 4.21161 3.54965 4.17777C3.67368 4.14393 3.80586 4.16148 3.91715 4.22656L4.82387 4.7584L5.09309 4.52625C5.50582 4.16724 5.97972 3.88793 6.4914 3.70211L6.81607 3.58207V2.52141C6.81607 2.24797 7.04814 2.01172 7.30954 2.01172H8.69143C8.95311 2.01172 9.18517 2.2466 9.18517 2.52141V3.58207L9.51119 3.70238C10.0233 3.88829 10.4977 4.16758 10.9111 4.52652L11.1779 4.7584L12.0852 4.22656C12.1963 4.16169 12.3283 4.14421 12.4521 4.17793C12.5759 4.21165 12.6815 4.29383 12.7458 4.40648L13.4366 5.62191C13.5007 5.73486 13.518 5.869 13.4848 5.9949C13.4516 6.12079 13.3705 6.22817 13.2595 6.29348L12.3549 6.82422L12.4179 7.17586C12.5154 7.72055 12.5154 8.27863 12.4179 8.82332L12.3549 9.17578L13.2595 9.70625C13.3705 9.77155 13.4516 9.87893 13.4848 10.0048C13.518 10.1307 13.5007 10.2649 13.4366 10.3778L12.7456 11.593C12.6813 11.7059 12.5756 11.7884 12.4516 11.8222C12.3276 11.8561 12.1954 11.8385 12.0841 11.7734L11.1774 11.2416L10.9082 11.4738C10.4954 11.8328 10.0215 12.1121 9.50985 12.2979L9.18517 12.4179V13.4786C9.18517 13.752 8.95311 13.9883 8.69143 13.9883H7.30954C7.04787 13.9883 6.81607 13.7534 6.81607 13.4786V12.4179L6.49005 12.2976C5.97792 12.1117 5.50351 11.8324 5.09013 11.4735L4.82333 11.2416L3.91608 11.7734C3.8049 11.8384 3.6729 11.8559 3.54901 11.8222C3.42512 11.7885 3.31945 11.7062 3.25515 11.5935L2.56434 10.3775C2.50024 10.2645 2.48292 10.1303 2.51619 10.0043C2.54945 9.87837 2.63058 9.77096 2.74176 9.7057L2.74149 9.70598Z" fill="#C8D1EF"/>
<path d="M8.00067 11.0209C8.58893 11.0209 9.16398 10.8437 9.6531 10.5118C10.1422 10.1798 10.5234 9.70801 10.7486 9.15601C10.9737 8.604 11.0326 7.99659 10.9178 7.41059C10.8031 6.82458 10.5198 6.2863 10.1038 5.86382C9.68785 5.44133 9.15788 5.15362 8.58092 5.03705C8.00397 4.92049 7.40593 4.98031 6.86245 5.20896C6.31897 5.43761 5.85445 5.82481 5.52763 6.3216C5.20081 6.81839 5.02637 7.40246 5.02637 7.99994C5.02722 8.80088 5.34086 9.56876 5.89846 10.1351C6.45607 10.7015 7.2121 11.02 8.00067 11.0209ZM8.00067 5.99373C8.3914 5.99373 8.77335 6.11142 9.09823 6.33191C9.4231 6.55239 9.67631 6.86578 9.82582 7.23243C9.97534 7.59909 10.0144 8.00254 9.9382 8.39176C9.86195 8.78099 9.67377 9.13851 9.39747 9.41911C9.12116 9.69971 8.76913 9.89079 8.3859 9.96818C8.00267 10.0456 7.60546 10.0058 7.24449 9.85389C6.88351 9.70198 6.575 9.44476 6.35796 9.11476C6.14092 8.78476 6.02511 8.3968 6.02516 7.99994C6.02573 7.46797 6.23405 6.95795 6.6044 6.58178C6.97476 6.20562 7.4769 5.99404 8.00067 5.99346V5.99373Z" fill="#C8D1EF"/>
</svg>
