<svg width="24" height="24" viewBox="0 0 24 24" fill="none" xmlns="http://www.w3.org/2000/svg">
<path d="M4.11934 18.7342L4.11978 18.7349C4.31365 19.0715 4.78498 19.2186 5.12783 18.99L6.23467 18.3564L6.2347 18.3564L6.23788 18.3545C6.58762 18.1365 6.73889 17.688 6.51237 17.3388C6.31726 16.977 5.87041 16.8333 5.50551 17.0601L5.07128 17.32C4.89958 16.9388 4.75015 16.5384 4.64102 16.1184L4.64103 16.1184L4.64067 16.1171C4.53146 15.7189 4.46208 15.2989 4.41435 14.875H4.93029C5.34865 14.875 5.68177 14.5358 5.68177 14.1152C5.68177 13.6897 5.34365 13.3798 4.93029 13.3798H4.41426C4.51236 12.5161 4.73156 11.6949 5.07141 10.9349L5.50629 11.1952L5.50625 11.1953L5.50976 11.1972C5.87235 11.3949 6.31694 11.2539 6.51234 10.9159C6.73523 10.5479 6.59427 10.0958 6.23468 9.89846L5.79713 9.6366C6.04517 9.28414 6.33131 8.95302 6.61808 8.66258C6.90371 8.37329 7.22917 8.08466 7.57557 7.83418L7.83493 8.29893L7.83492 8.29893L7.8356 8.3001C8.0303 8.63814 8.47672 8.78187 8.84131 8.55653C9.20617 8.35572 9.31183 7.90337 9.12047 7.54344L9.12054 7.5434L9.11855 7.53999L8.86005 7.09694C9.61005 6.75276 10.4203 6.53073 11.2727 6.43126V6.955C11.2727 7.37054 11.5768 7.71482 12 7.71482C12.4184 7.71482 12.7515 7.37559 12.7515 6.955V6.43126C13.6038 6.53073 14.4141 6.75276 15.1641 7.09694L14.906 7.53923C14.6836 7.90631 14.823 8.35744 15.1572 8.55563C15.5238 8.78333 15.9675 8.63616 16.1854 8.30518L16.1856 8.30532L16.1892 8.29893L16.447 7.83706C16.7739 8.08734 17.0979 8.37496 17.3819 8.66258L17.3819 8.66263L17.3846 8.66517C17.6903 8.95271 17.9569 9.28231 18.2031 9.63644L17.7653 9.89846C17.3999 10.0991 17.2939 10.5518 17.4854 10.912C17.6821 11.2819 18.1562 11.3941 18.4926 11.1958C18.4928 11.1957 18.493 11.1956 18.4932 11.1955L18.9497 10.9342C19.2721 11.6971 19.5094 12.5185 19.5883 13.3798H19.0697C18.678 13.3798 18.3424 13.6921 18.3424 14.1152C18.3424 14.5333 18.6731 14.875 19.0697 14.875H19.5856C19.5379 15.2989 19.4685 15.7189 19.3593 16.1171L19.359 16.1184C19.249 16.5417 19.1193 16.9425 18.9516 17.3218L18.4951 17.0604C18.1514 16.8312 17.6796 16.9797 17.4862 17.3414C17.2903 17.6834 17.4055 18.1322 17.7621 18.3545L17.7621 18.3545L17.7653 18.3564L18.8737 18.9909C19.2384 19.2169 19.6854 19.0732 19.8802 18.7349L19.8807 18.7342C20.2704 18.0435 20.5873 17.3029 20.8068 16.5124L20.8074 16.5103C21.0025 15.7443 21.1 14.954 21.1 14.1152C21.1 11.5713 20.1 9.27352 18.4411 7.59343L18.4406 7.59291C16.7824 5.93818 14.5135 4.9 12 4.9C9.48648 4.9 7.21759 5.93818 5.55939 7.59291L5.55938 7.5929L5.55835 7.59396C3.92456 9.27336 2.9 11.5707 2.9 14.1152C2.9 14.9533 2.9973 15.7442 3.21703 16.5114C3.41265 17.3031 3.72998 18.0441 4.11934 18.7342ZM13.444 15.5808L13.4442 15.581L13.4489 15.5759C13.802 15.1927 14.0303 14.6803 14.0303 14.1152C14.0303 13.8318 13.9663 13.5488 13.8574 13.305L15.4974 11.644C15.7772 11.3606 15.7772 10.8826 15.4974 10.5993C15.1954 10.2934 14.7196 10.2877 14.4366 10.6009L12.822 12.2362C12.5669 12.1263 12.3052 12.0602 12 12.0602C11.4423 12.0602 10.9341 12.2909 10.5776 12.6764C10.197 13.0375 9.96971 13.5516 9.96971 14.1152C9.96971 14.6807 10.1983 15.1942 10.5776 15.5784C10.9335 15.9388 11.4414 16.1702 12 16.1702C12.5591 16.1702 13.0656 15.9385 13.444 15.5808ZM12 13.5798C12.1733 13.5798 12.2899 13.6225 12.3873 13.7212C12.4901 13.8253 12.5515 13.9713 12.5515 14.1152C12.5515 14.2815 12.4916 14.4037 12.3873 14.5093C12.283 14.6149 12.163 14.675 12 14.675C11.8591 14.675 11.7155 14.6133 11.6127 14.5093C11.5151 14.4104 11.4727 14.2917 11.4727 14.1152C11.4727 13.9611 11.5162 13.8189 11.6127 13.7212C11.709 13.6236 11.8488 13.5798 12 13.5798Z" fill="#9CA1B4" stroke="#9CA1B4" stroke-width="0.2"/>
</svg>
