<svg width="24" height="24" viewBox="0 0 24 24" fill="none" xmlns="http://www.w3.org/2000/svg">
<g clip-path="url(#clip0)">
<path d="M13.4906 4.95522C13.819 4.607 13.819 4.01772 13.4906 3.6695L10.7117 0.723075C10.3832 0.374861 9.82746 0.374861 9.49903 0.723075C9.17061 1.07129 9.17061 1.66057 9.49903 2.00879L10.838 3.42843H7.0485C4.92639 3.42843 3.2085 5.24986 3.2085 7.49986V12.482C3.2085 12.9909 3.58744 13.3927 4.06745 13.3927C4.54745 13.3927 4.92639 12.9909 4.92639 12.482V7.47307C4.92639 6.24093 5.8864 5.22307 7.0485 5.22307H10.838L9.49903 6.64272C9.17061 6.99093 9.17061 7.58022 9.49903 7.92843C9.67588 8.11593 9.87798 8.19629 10.1054 8.19629C10.3327 8.19629 10.5348 8.11593 10.7117 7.92843L13.4906 4.95522Z" fill="white"/>
<path d="M19.9327 10.6067C19.4527 10.6067 19.0737 11.0085 19.0737 11.5174V16.4995C19.0737 17.7317 18.1137 18.7495 16.9516 18.7495H13.1621L14.5011 17.3299C14.8295 16.9817 14.8295 16.3924 14.5011 16.0442C14.1727 15.696 13.6169 15.696 13.2885 16.0442L10.5095 19.0174C10.1811 19.3656 10.1811 19.9549 10.5095 20.3031L13.3137 23.2763C13.4906 23.4638 13.6927 23.5442 13.92 23.5442C14.1474 23.5442 14.3495 23.4638 14.5264 23.2763C14.8548 22.9281 14.8548 22.3388 14.5264 21.9906L13.1621 20.571H16.9516C19.0737 20.571 20.7916 18.7495 20.7916 16.4995V11.5174C20.7916 11.0085 20.4127 10.6067 19.9327 10.6067Z" fill="white"/>
<path d="M19.8654 0C17.6542 0 15.8654 1.78882 15.8654 4C15.8654 6.21118 17.6542 8 19.8654 8C22.0765 8 23.8654 6.21118 23.8654 4C23.8654 1.78882 22.0765 0 19.8654 0Z" fill="white"/>
<path d="M4 15.375C1.78882 15.375 0 17.1638 0 19.375C0 21.5862 1.78882 23.375 4 23.375C6.21118 23.375 8 21.5862 8 19.375C8 17.1638 6.21118 15.375 4 15.375Z" fill="white"/>
</g>
<defs>
<clipPath id="clip0">
<rect width="24" height="24" fill="white"/>
</clipPath>
</defs>
</svg>
