<svg width="24" height="24" viewBox="0 0 24 24" fill="none" xmlns="http://www.w3.org/2000/svg">
<path d="M7.91209 0H16.0879C16.3756 0 16.6394 0.11988 16.8312 0.311688L23.6404 6.42557C23.8801 6.64136 24 6.92907 24 7.21678V16.7832C24 17.1189 23.8322 17.4066 23.5924 17.5984L16.7832 23.7123C16.5914 23.9041 16.3277 24 16.0879 24H7.91209C7.62438 24 7.36064 23.8801 7.16883 23.6883L0.35964 17.5744C0.11988 17.3586 0 17.0709 0 16.7832V7.21678C0 6.88112 0.143856 6.59341 0.407592 6.37762L7.19281 0.263736C7.40859 0.0959041 7.64835 0 7.91209 0V0ZM16.5195 8.22378L15.7762 7.48052C15.3447 7.04895 14.6733 7.04895 14.2657 7.48052L11.988 9.73427L9.73427 7.48052C9.32667 7.04895 8.63137 7.04895 8.22378 7.48052L7.48052 8.22378C7.04895 8.63137 7.04895 9.32667 7.48052 9.73427L9.73427 11.988L7.48052 14.2657C7.04895 14.6733 7.04895 15.3447 7.48052 15.7762L8.22378 16.5195C8.63137 16.9271 9.32667 16.9271 9.73427 16.5195L11.988 14.2657L14.2657 16.5195C14.6733 16.9271 15.3447 16.9271 15.7762 16.5195L16.5195 15.7762C16.9271 15.3447 16.9271 14.6733 16.5195 14.2657L14.2657 11.988L16.5195 9.73427C16.9271 9.32667 16.9271 8.63137 16.5195 8.22378ZM15.6803 2.13387H8.31968L2.13387 7.6963V16.3037L8.31968 21.8661H15.6803L21.8661 16.3037V7.6963L15.6803 2.13387Z" fill="white"/>
</svg>
