<svg width="14" height="20" viewBox="0 0 14 20" fill="none" xmlns="http://www.w3.org/2000/svg">
<path d="M3.6665 5.00008V3.33341C3.6665 2.89139 3.8421 2.46746 4.15466 2.1549C4.46722 1.84234 4.89114 1.66675 5.33317 1.66675H8.6665C9.10853 1.66675 9.53246 1.84234 9.84502 2.1549C10.1576 2.46746 10.3332 2.89139 10.3332 3.33341V5.00008M12.8332 5.00008V16.6667C12.8332 17.1088 12.6576 17.5327 12.345 17.8453C12.0325 18.1578 11.6085 18.3334 11.1665 18.3334H2.83317C2.39114 18.3334 1.96722 18.1578 1.65466 17.8453C1.3421 17.5327 1.1665 17.1088 1.1665 16.6667V5.00008H12.8332Z" stroke="#5465FF" stroke-width="2" stroke-linecap="round" stroke-linejoin="round"/>
</svg>
