<svg width="24" height="24" viewBox="0 0 24 24" fill="none" xmlns="http://www.w3.org/2000/svg">
<path d="M6.37497 18.5625C6.37497 19.5938 7.21872 20.4375 8.24997 20.4375H15.75C16.7812 20.4375 17.625 19.5938 17.625 18.5625V9.1875C17.625 8.15625 16.7812 7.3125 15.75 7.3125H8.24997C7.21872 7.3125 6.37497 8.15625 6.37497 9.1875V18.5625ZM17.625 4.5H15.2812L14.6156 3.83437C14.4468 3.66562 14.2031 3.5625 13.9593 3.5625H10.0406C9.79684 3.5625 9.55309 3.66562 9.38435 3.83437L8.71872 4.5H6.37497C5.85934 4.5 5.43747 4.92188 5.43747 5.4375C5.43747 5.95312 5.85934 6.375 6.37497 6.375H17.625C18.1406 6.375 18.5625 5.95312 18.5625 5.4375C18.5625 4.92188 18.1406 4.5 17.625 4.5Z" fill="#343545"/>
</svg>
