<svg width="24" height="24" viewBox="0 0 24 24" fill="none" xmlns="http://www.w3.org/2000/svg">
<path d="M13.9416 12.4074C14.359 11.9438 14.6153 11.3328 14.6153 10.6613C14.6153 9.21923 13.442 8.0459 12 8.0459C10.5579 8.0459 9.38458 9.21923 9.38458 10.6613C9.38458 11.3328 9.64089 11.9438 10.0584 12.4074C8.50418 13.1397 7.42304 14.7168 7.42304 16.5459V18.1155C7.42304 18.4764 7.71597 18.7693 8.07689 18.7693H15.923C16.284 18.7693 16.5769 18.4764 16.5769 18.1155V16.5459C16.5769 14.7168 15.4958 13.1397 13.9416 12.4074ZM10.6923 10.6613C10.6923 9.94009 11.2788 9.35359 12 9.35359C12.7212 9.35359 13.3077 9.94009 13.3077 10.6613C13.3077 11.3825 12.7212 11.969 12 11.969C11.2788 11.969 10.6923 11.3825 10.6923 10.6613ZM15.2692 17.4616H8.73073V16.5459C8.73073 14.7432 10.1973 13.2767 12 13.2767C13.8026 13.2767 15.2692 14.7432 15.2692 16.5459V17.4616Z" fill="#A3ABCB"/>
<path d="M19.3228 9.39471C19.4444 9.16652 19.5192 8.91054 19.5192 8.63462C19.5192 7.73329 18.786 7 17.8846 7C16.9833 7 16.25 7.73329 16.25 8.63462C16.25 8.91054 16.3249 9.16652 16.4465 9.39471C15.738 9.86319 15.2692 10.6661 15.2692 11.5769V12.2308C15.2692 12.5917 15.5622 12.8846 15.9231 12.8846H19.8462C20.2071 12.8846 20.5 12.5917 20.5 12.2308V11.5769C20.5 10.6661 20.0312 9.86319 19.3228 9.39471ZM17.5577 8.63462C17.5577 8.45448 17.7042 8.30769 17.8846 8.30769C18.0651 8.30769 18.2115 8.45448 18.2115 8.63462C18.2115 8.81475 18.0651 8.96154 17.8846 8.96154C17.7042 8.96154 17.5577 8.81475 17.5577 8.63462ZM16.5769 11.5769C16.5769 10.8557 17.1634 10.2692 17.8846 10.2692C18.6058 10.2692 19.1923 10.8557 19.1923 11.5769H16.5769Z" fill="#A3ABCB"/>
<path d="M8.73077 12.2958V11.642C8.73077 10.7312 8.26196 9.92826 7.55352 9.45977C7.67481 9.23191 7.75 8.9756 7.75 8.69968C7.75 7.79835 7.01671 7.06506 6.11538 7.06506C5.21406 7.06506 4.48077 7.79835 4.48077 8.69968C4.48077 8.9756 4.55596 9.23158 4.67725 9.45977C3.96881 9.92858 3.5 10.7312 3.5 11.642V12.2958C3.5 12.6568 3.79292 12.9497 4.15385 12.9497H8.07692C8.43785 12.9497 8.73077 12.6571 8.73077 12.2958ZM5.78846 8.69968C5.78846 8.51954 5.93525 8.37276 6.11538 8.37276C6.29552 8.37276 6.44231 8.51954 6.44231 8.69968C6.44231 8.87981 6.29552 9.0266 6.11538 9.0266C5.93525 9.0266 5.78846 8.87981 5.78846 8.69968ZM4.80769 11.642C4.80769 10.9208 5.39419 10.3343 6.11538 10.3343C6.83658 10.3343 7.42308 10.9208 7.42308 11.642H4.80769Z" fill="#A3ABCB"/>
</svg>
