<svg width="24" height="24" viewBox="0 0 24 24" fill="none" xmlns="http://www.w3.org/2000/svg">
<path d="M13.9416 11.4074C14.359 10.9438 14.6153 10.3328 14.6153 9.66128C14.6153 8.21923 13.442 7.0459 12 7.0459C10.5579 7.0459 9.38457 8.21923 9.38457 9.66128C9.38457 10.3328 9.64088 10.9438 10.0584 11.4074C8.50417 12.1397 7.42303 13.7168 7.42303 15.5459V17.1155C7.42303 17.4764 7.71596 17.7693 8.07688 17.7693H15.923C16.284 17.7693 16.5769 17.4764 16.5769 17.1155V15.5459C16.5769 13.7168 15.4957 12.1397 13.9416 11.4074ZM10.6923 9.66128C10.6923 8.94009 11.2788 8.35359 12 8.35359C12.7211 8.35359 13.3077 8.94009 13.3077 9.66128C13.3077 10.3825 12.7211 10.969 12 10.969C11.2788 10.969 10.6923 10.3825 10.6923 9.66128ZM15.2692 16.4616H8.73073V15.5459C8.73073 13.7432 10.1973 12.2767 12 12.2767C13.8026 12.2767 15.2692 13.7432 15.2692 15.5459V16.4616Z" fill="white"/>
<path d="M19.3228 8.39471C19.4444 8.16652 19.5192 7.91054 19.5192 7.63462C19.5192 6.73329 18.786 6 17.8846 6C16.9833 6 16.25 6.73329 16.25 7.63462C16.25 7.91054 16.3249 8.16652 16.4465 8.39471C15.738 8.86319 15.2692 9.66612 15.2692 10.5769V11.2308C15.2692 11.5917 15.5622 11.8846 15.9231 11.8846H19.8462C20.2071 11.8846 20.5 11.5917 20.5 11.2308V10.5769C20.5 9.66612 20.0312 8.86319 19.3228 8.39471ZM17.5577 7.63462C17.5577 7.45448 17.7042 7.30769 17.8846 7.30769C18.0651 7.30769 18.2115 7.45448 18.2115 7.63462C18.2115 7.81475 18.0651 7.96154 17.8846 7.96154C17.7042 7.96154 17.5577 7.81475 17.5577 7.63462ZM16.5769 10.5769C16.5769 9.85573 17.1634 9.26923 17.8846 9.26923C18.6058 9.26923 19.1923 9.85573 19.1923 10.5769H16.5769Z" fill="white"/>
<path d="M8.73077 11.2958V10.642C8.73077 9.73118 8.26196 8.92826 7.55352 8.45977C7.67481 8.23191 7.75 7.9756 7.75 7.69968C7.75 6.79835 7.01671 6.06506 6.11538 6.06506C5.21406 6.06506 4.48077 6.79835 4.48077 7.69968C4.48077 7.9756 4.55596 8.23158 4.67725 8.45977C3.96881 8.92858 3.5 9.73118 3.5 10.642V11.2958C3.5 11.6568 3.79292 11.9497 4.15385 11.9497H8.07692C8.43785 11.9497 8.73077 11.6571 8.73077 11.2958ZM5.78846 7.69968C5.78846 7.51954 5.93525 7.37276 6.11538 7.37276C6.29552 7.37276 6.44231 7.51954 6.44231 7.69968C6.44231 7.87981 6.29552 8.0266 6.11538 8.0266C5.93525 8.0266 5.78846 7.87981 5.78846 7.69968ZM4.80769 10.642C4.80769 9.92079 5.39419 9.33429 6.11538 9.33429C6.83658 9.33429 7.42308 9.92079 7.42308 10.642H4.80769Z" fill="white"/>
</svg>
