<svg width="12" height="12" viewBox="0 0 12 12" fill="none" xmlns="http://www.w3.org/2000/svg">
<path d="M6 6.16667C6.82667 6.16667 7.5 5.49333 7.5 4.66667C7.5 3.84 6.82667 3.16667 6 3.16667C5.17333 3.16667 4.5 3.84 4.5 4.66667C4.5 5.49333 5.17333 6.16667 6 6.16667ZM9 8.83333C9 7.83333 7 7.33333 6 7.33333C5 7.33333 3 7.83333 3 8.83333V9.33333H9V8.83333ZM10.6667 0H1.33333C0.6 0 0 0.6 0 1.33333V10.6667C0 11.4 0.6 12 1.33333 12H10.6667C11.4 12 12 11.4 12 10.6667V1.33333C12 0.6 11.4 0 10.6667 0ZM10 10.6667H2C1.63333 10.6667 1.33333 10.3667 1.33333 10V2C1.33333 1.63333 1.63333 1.33333 2 1.33333H10C10.3667 1.33333 10.6667 1.63333 10.6667 2V10C10.6667 10.3667 10.3667 10.6667 10 10.6667Z" fill="white"/>
</svg>
