<svg width="16" height="20" viewBox="0 0 16 20" fill="none" xmlns="http://www.w3.org/2000/svg">
<path d="M15.3325 19.333C14.9637 19.333 14.665 19.0191 14.665 18.6316C14.665 15.3805 12.6976 12.7358 10.2799 12.7358H5.71972C3.30204 12.7358 1.33504 15.3805 1.33504 18.6316C1.33504 19.0187 1.03626 19.333 0.66752 19.333C0.299167 19.333 0 19.0191 0 18.6316C0 14.6072 2.56572 11.333 5.71972 11.333H10.2803C13.4339 11.333 16 14.6072 16 18.6316C15.9996 19.0187 15.7008 19.333 15.3325 19.333Z" fill="#C8D1EF"/>
<path d="M7.99513 9.7333C5.3482 9.7333 3.19531 7.58003 3.19531 4.93311C3.19531 2.28657 5.34858 0.133301 7.99513 0.133301C10.6417 0.133301 12.7949 2.28657 12.7949 4.93311C12.7949 7.58003 10.642 9.7333 7.99513 9.7333ZM7.99513 1.4375C6.06734 1.4375 4.49951 3.00571 4.49951 4.93273C4.49951 6.86051 6.06734 8.42835 7.99513 8.42835C9.92253 8.42835 11.4907 6.86014 11.4907 4.93273C11.4907 3.00571 9.92253 1.4375 7.99513 1.4375Z" fill="#C8D1EF"/>
</svg>
