<svg width="24" height="7" viewBox="0 0 24 7" fill="none" xmlns="http://www.w3.org/2000/svg">
<path d="M12.4122 2.22857C12.3985 3.19975 13.3743 3.74175 14.1094 4.06396C14.8647 4.39461 15.1184 4.60661 15.1155 4.90224C15.1097 5.35477 14.513 5.55445 13.9545 5.56223C12.9801 5.57585 12.4137 5.32559 11.9632 5.13628L11.6123 6.61381C12.0641 6.80117 12.9008 6.96455 13.7685 6.97168C15.8052 6.97168 17.1377 6.06727 17.1449 4.66496C17.1528 2.88532 14.4085 2.78677 14.4272 1.99128C14.4337 1.75011 14.6896 1.49272 15.2503 1.42724C15.5277 1.39418 16.2938 1.3689 17.1622 1.72871L17.5031 0.299167C17.0361 0.146163 16.4358 -0.000357151 15.6884 -0.000357151C13.7714 -0.000357151 12.423 0.916368 12.4122 2.22857ZM20.7786 0.122823C20.4067 0.122823 20.0932 0.317968 19.9534 0.617492L17.044 6.86665H19.0792L19.4842 5.85981H21.9713L22.2062 6.86665H24L22.4347 0.122823H20.7786ZM21.0632 1.9446L21.6506 4.47694H20.042L21.0632 1.9446ZM9.94463 0.122823L8.3404 6.86665H10.2797L11.8833 0.122823H9.94463ZM7.07561 0.122823L5.05699 4.71293L4.24047 0.810043C4.14462 0.374372 3.76626 0.122823 3.34611 0.122823H0.0461234L0 0.318616C0.677437 0.450873 1.44712 0.664171 1.9134 0.89238C2.19879 1.03177 2.28022 1.15365 2.37391 1.48494L3.92049 6.86665H5.97009L9.11225 0.122823H7.07561Z" fill="white"/>
</svg>
